<?xml version="1.0" encoding="UTF-8" standalone="no"?>
<!DOCTYPE svg PUBLIC "-//W3C//DTD SVG 1.1//EN"
        "http://www.w3.org/Graphics/SVG/1.1/DTD/svg11.dtd">
<!-- Generated by graphviz version 9.0.0 (20230911.1827)
 -->
<!-- Title: G Pages: 1 -->
<svg width="2537pt"
     height="620pt" viewBox="0.00 0.00 2537.27 620.00" xmlns="http://www.w3.org/2000/svg">
    <g id="graph0" class="graph" transform="scale(1 1) rotate(0) translate(4 616)">
        <title>G</title>
        <polygon fill="white" stroke="none" points="-4,4 -4,-616 2533.27,-616 2533.27,4 -4,4"/>
        <!-- type: source, id: 26 -->
        <g id="node1" class="node">
            <title>type: source, id: 26</title>
            <polygon fill="pink" stroke="black"
                     points="799.64,-576.05 805.03,-576.15 810.36,-576.3 815.62,-576.49 820.77,-576.74 825.81,-577.03 830.7,-577.36 835.44,-577.75 840,-578.18 844.37,-578.65 848.53,-579.16 852.47,-579.71 856.17,-580.31 859.62,-580.94 862.81,-581.61 865.74,-582.31 868.39,-583.04 870.76,-583.8 872.84,-584.59 874.64,-585.41 876.15,-586.25 877.38,-587.11 878.31,-587.99 878.96,-588.89 879.34,-589.8 879.44,-590.72 879.27,-591.65 878.85,-592.59 878.17,-593.53 877.25,-594.47 876.11,-595.41 874.74,-596.35 873.16,-597.28 871.38,-598.2 869.42,-599.11 867.28,-600.01 864.98,-600.89 862.53,-601.75 859.94,-602.59 857.23,-603.41 854.39,-604.2 851.46,-604.96 848.42,-605.69 845.31,-606.39 842.12,-607.06 838.86,-607.69 835.54,-608.29 832.17,-608.84 828.76,-609.35 825.3,-609.82 821.82,-610.25 818.31,-610.64 814.78,-610.97 811.22,-611.26 807.66,-611.51 804.08,-611.7 800.49,-611.85 796.9,-611.95 793.3,-612 789.71,-612 786.11,-611.95 782.52,-611.85 778.93,-611.7 775.35,-611.51 771.79,-611.26 768.23,-610.97 764.7,-610.64 761.19,-610.25 757.71,-609.82 754.26,-609.35 750.84,-608.84 747.47,-608.29 744.16,-607.69 740.9,-607.06 737.7,-606.39 734.59,-605.69 731.55,-604.96 728.62,-604.2 725.79,-603.41 723.07,-602.59 720.48,-601.75 718.03,-600.89 715.73,-600.01 713.59,-599.11 711.63,-598.2 709.85,-597.28 708.27,-596.35 706.91,-595.41 705.76,-594.47 704.84,-593.53 704.16,-592.59 703.74,-591.65 703.57,-590.72 703.67,-589.8 704.05,-588.89 704.7,-587.99 705.64,-587.11 706.86,-586.25 708.37,-585.41 710.17,-584.59 712.25,-583.8 714.62,-583.04 717.27,-582.31 720.2,-581.61 723.39,-580.94 726.84,-580.31 730.54,-579.71 734.48,-579.16 738.64,-578.65 743.01,-578.18 747.57,-577.75 752.31,-577.36 757.2,-577.03 762.24,-576.74 767.4,-576.49 772.65,-576.3 777.98,-576.15 783.37,-576.05 788.79,-576 794.22,-576 799.64,-576.05"/>
            <text text-anchor="middle" x="791.51" y="-588.95" font-family="Times,serif" font-size="14.00">type: source,
                id: 26
            </text>
        </g>
        <!-- type: common, id: 25, name: source_item -->
        <g id="node2" class="node">
            <title>type: common, id: 25, name: source_item</title>
            <polygon fill="pink" stroke="black"
                     points="808.07,-504.05 819.03,-504.15 829.88,-504.3 840.57,-504.49 851.07,-504.74 861.31,-505.03 871.28,-505.36 880.92,-505.75 890.21,-506.18 899.1,-506.65 907.56,-507.16 915.57,-507.71 923.1,-508.31 930.13,-508.94 936.62,-509.61 942.58,-510.31 947.97,-511.04 952.79,-511.8 957.04,-512.59 960.7,-513.41 963.77,-514.25 966.26,-515.11 968.17,-515.99 969.5,-516.89 970.26,-517.8 970.46,-518.72 970.12,-519.65 969.26,-520.59 967.88,-521.53 966.01,-522.47 963.68,-523.41 960.89,-524.35 957.68,-525.28 954.06,-526.2 950.07,-527.11 945.72,-528.01 941.04,-528.89 936.05,-529.75 930.78,-530.59 925.25,-531.41 919.49,-532.2 913.51,-532.96 907.34,-533.69 901,-534.39 894.5,-535.06 887.87,-535.69 881.12,-536.29 874.26,-536.84 867.31,-537.35 860.29,-537.82 853.2,-538.25 846.06,-538.64 838.86,-538.97 831.64,-539.26 824.38,-539.51 817.1,-539.7 809.8,-539.85 802.49,-539.95 795.17,-540 787.84,-540 780.53,-539.95 773.21,-539.85 765.91,-539.7 758.63,-539.51 751.37,-539.26 744.15,-538.97 736.96,-538.64 729.81,-538.25 722.72,-537.82 715.7,-537.35 708.75,-536.84 701.89,-536.29 695.14,-535.69 688.51,-535.06 682.01,-534.39 675.67,-533.69 669.5,-532.96 663.52,-532.2 657.76,-531.41 652.23,-530.59 646.96,-529.75 641.97,-528.89 637.29,-528.01 632.94,-527.11 628.95,-526.2 625.33,-525.28 622.12,-524.35 619.33,-523.41 617,-522.47 615.13,-521.53 613.75,-520.59 612.89,-519.65 612.55,-518.72 612.75,-517.8 613.52,-516.89 614.84,-515.99 616.75,-515.11 619.24,-514.25 622.31,-513.41 625.97,-512.59 630.22,-511.8 635.04,-511.04 640.44,-510.31 646.39,-509.61 652.89,-508.94 659.91,-508.31 667.44,-507.71 675.45,-507.16 683.91,-506.65 692.8,-506.18 702.09,-505.75 711.73,-505.36 721.7,-505.03 731.95,-504.74 742.44,-504.49 753.13,-504.3 763.98,-504.15 774.95,-504.05 785.98,-504 797.03,-504 808.07,-504.05"/>
            <text text-anchor="middle" x="791.51" y="-516.95" font-family="Times,serif" font-size="14.00">type: common,
                id: 25, name: source_item
            </text>
        </g>
        <!-- type: source, id: 26&#45;&gt;type: common, id: 25, name: source_item -->
        <g id="edge1" class="edge">
            <title>type: source, id: 26&#45;&gt;type: common, id: 25, name: source_item</title>
            <path fill="none" stroke="black" d="M791.51,-575.7C791.51,-568.41 791.51,-559.73 791.51,-551.54"/>
            <polygon fill="black" stroke="black" points="795.01,-551.62 791.51,-541.62 788.01,-551.62 795.01,-551.62"/>
        </g>
        <!-- type: function_signature, id: 6 -->
        <g id="node3" class="node">
            <title>type: function_signature, id: 6</title>
            <polygon fill="pink" stroke="black"
                     points="654.63,-432.05 662.65,-432.15 670.59,-432.3 678.42,-432.49 686.1,-432.74 693.6,-433.03 700.9,-433.36 707.96,-433.75 714.75,-434.18 721.26,-434.65 727.46,-435.16 733.32,-435.71 738.83,-436.31 743.97,-436.94 748.73,-437.61 753.09,-438.31 757.03,-439.04 760.56,-439.8 763.67,-440.59 766.35,-441.41 768.6,-442.25 770.42,-443.11 771.82,-443.99 772.79,-444.89 773.35,-445.8 773.5,-446.72 773.25,-447.65 772.62,-448.59 771.61,-449.53 770.24,-450.47 768.53,-451.41 766.49,-452.35 764.14,-453.28 761.49,-454.2 758.57,-455.11 755.39,-456.01 751.96,-456.89 748.31,-457.75 744.45,-458.59 740.41,-459.41 736.19,-460.2 731.81,-460.96 727.3,-461.69 722.65,-462.39 717.9,-463.06 713.04,-463.69 708.1,-464.29 703.08,-464.84 698,-465.35 692.85,-465.82 687.66,-466.25 682.44,-466.64 677.17,-466.97 671.88,-467.26 666.57,-467.51 661.24,-467.7 655.89,-467.85 650.54,-467.95 645.18,-468 639.83,-468 634.47,-467.95 629.12,-467.85 623.77,-467.7 618.44,-467.51 613.13,-467.26 607.84,-466.97 602.58,-466.64 597.35,-466.25 592.16,-465.82 587.02,-465.35 581.93,-464.84 576.91,-464.29 571.97,-463.69 567.11,-463.06 562.36,-462.39 557.72,-461.69 553.2,-460.96 548.82,-460.2 544.6,-459.41 540.56,-458.59 536.7,-457.75 533.05,-456.89 529.63,-456.01 526.44,-455.11 523.52,-454.2 520.87,-453.28 518.52,-452.35 516.48,-451.41 514.77,-450.47 513.4,-449.53 512.39,-448.59 511.76,-447.65 511.51,-446.72 511.66,-445.8 512.22,-444.89 513.19,-443.99 514.59,-443.11 516.41,-442.25 518.66,-441.41 521.34,-440.59 524.45,-439.8 527.98,-439.04 531.93,-438.31 536.28,-437.61 541.04,-436.94 546.18,-436.31 551.69,-435.71 557.55,-435.16 563.75,-434.65 570.26,-434.18 577.05,-433.75 584.11,-433.36 591.41,-433.03 598.91,-432.74 606.59,-432.49 614.42,-432.3 622.36,-432.15 630.38,-432.05 638.46,-432 646.55,-432 654.63,-432.05"/>
            <text text-anchor="middle" x="642.51" y="-444.95" font-family="Times,serif" font-size="14.00">type:
                function_signature, id: 6
            </text>
        </g>
        <!-- type: common, id: 25, name: source_item&#45;&gt;type: function_signature, id: 6 -->
        <g id="edge2" class="edge">
            <title>type: common, id: 25, name: source_item&#45;&gt;type: function_signature, id: 6</title>
            <path fill="none" stroke="black" d="M755.06,-503.88C734.7,-494.31 709.15,-482.31 687.55,-472.16"/>
            <polygon fill="black" stroke="black" points="689.21,-469.07 678.67,-467.99 686.23,-475.41 689.21,-469.07"/>
        </g>
        <!-- type: common, id: 24, name: body -->
        <g id="node10" class="node">
            <title>type: common, id: 24, name: body</title>
            <polygon fill="pink" stroke="black"
                     points="1025.39,-432.05 1034.59,-432.15 1043.69,-432.3 1052.65,-432.49 1061.45,-432.74 1070.05,-433.03 1078.4,-433.36 1086.49,-433.75 1094.27,-434.18 1101.73,-434.65 1108.83,-435.16 1115.55,-435.71 1121.86,-436.31 1127.75,-436.94 1133.2,-437.61 1138.19,-438.31 1142.71,-439.04 1146.76,-439.8 1150.32,-440.59 1153.39,-441.41 1155.97,-442.25 1158.05,-443.11 1159.65,-443.99 1160.76,-444.89 1161.4,-445.8 1161.57,-446.72 1161.29,-447.65 1160.56,-448.59 1159.41,-449.53 1157.85,-450.47 1155.88,-451.41 1153.55,-452.35 1150.85,-453.28 1147.82,-454.2 1144.47,-455.11 1140.82,-456.01 1136.9,-456.89 1132.72,-457.75 1128.3,-458.59 1123.66,-459.41 1118.83,-460.2 1113.82,-460.96 1108.64,-461.69 1103.32,-462.39 1097.88,-463.06 1092.31,-463.69 1086.65,-464.29 1080.9,-464.84 1075.08,-465.35 1069.19,-465.82 1063.24,-466.25 1057.25,-466.64 1051.22,-466.97 1045.16,-467.26 1039.07,-467.51 1032.97,-467.7 1026.84,-467.85 1020.71,-467.95 1014.58,-468 1008.44,-468 1002.3,-467.95 996.17,-467.85 990.05,-467.7 983.94,-467.51 977.85,-467.26 971.79,-466.97 965.76,-466.64 959.77,-466.25 953.82,-465.82 947.93,-465.35 942.11,-464.84 936.36,-464.29 930.7,-463.69 925.13,-463.06 919.69,-462.39 914.37,-461.69 909.19,-460.96 904.18,-460.2 899.35,-459.41 894.71,-458.59 890.29,-457.75 886.11,-456.89 882.19,-456.01 878.54,-455.11 875.19,-454.2 872.16,-453.28 869.46,-452.35 867.13,-451.41 865.17,-450.47 863.6,-449.53 862.45,-448.59 861.72,-447.65 861.44,-446.72 861.61,-445.8 862.25,-444.89 863.36,-443.99 864.96,-443.11 867.05,-442.25 869.62,-441.41 872.69,-440.59 876.25,-439.8 880.3,-439.04 884.82,-438.31 889.81,-437.61 895.26,-436.94 901.15,-436.31 907.47,-435.71 914.18,-435.16 921.28,-434.65 928.74,-434.18 936.52,-433.75 944.61,-433.36 952.97,-433.03 961.56,-432.74 970.36,-432.49 979.33,-432.3 988.42,-432.15 997.62,-432.05 1006.87,-432 1016.14,-432 1025.39,-432.05"/>
            <text text-anchor="middle" x="1011.51" y="-444.95" font-family="Times,serif" font-size="14.00">type: common,
                id: 24, name: body
            </text>
        </g>
        <!-- type: common, id: 25, name: source_item&#45;&gt;type: common, id: 24, name: body -->
        <g id="edge9" class="edge">
            <title>type: common, id: 25, name: source_item&#45;&gt;type: common, id: 24, name: body</title>
            <path fill="none" stroke="black" d="M844.48,-504.14C876.6,-493.92 917.7,-480.85 951.08,-470.23"/>
            <polygon fill="black" stroke="black" points="951.72,-473.7 960.19,-467.33 949.6,-467.02 951.72,-473.7"/>
        </g>
        <!-- type: identifier, id: 0, value: test_method -->
        <g id="node4" class="node">
            <title>type: identifier, id: 0, value: test_method</title>
            <polygon fill="pink" stroke="black"
                     points="189.56,-360.05 200.19,-360.15 210.71,-360.3 221.08,-360.49 231.25,-360.74 241.19,-361.03 250.85,-361.36 260.2,-361.75 269.2,-362.18 277.82,-362.65 286.03,-363.16 293.79,-363.71 301.09,-364.31 307.9,-364.94 314.2,-365.61 319.97,-366.31 325.2,-367.04 329.88,-367.8 334,-368.59 337.55,-369.41 340.53,-370.25 342.94,-371.11 344.79,-371.99 346.07,-372.89 346.81,-373.8 347.01,-374.72 346.68,-375.65 345.84,-376.59 344.51,-377.53 342.7,-378.47 340.43,-379.41 337.73,-380.35 334.62,-381.28 331.11,-382.2 327.24,-383.11 323.02,-384.01 318.48,-384.89 313.65,-385.75 308.54,-386.59 303.18,-387.41 297.59,-388.2 291.8,-388.96 285.81,-389.69 279.66,-390.39 273.37,-391.06 266.93,-391.69 260.39,-392.29 253.74,-392.84 247,-393.35 240.19,-393.82 233.32,-394.25 226.39,-394.64 219.42,-394.97 212.41,-395.26 205.38,-395.51 198.32,-395.7 191.24,-395.85 184.15,-395.95 177.05,-396 169.96,-396 162.86,-395.95 155.77,-395.85 148.69,-395.7 141.63,-395.51 134.6,-395.26 127.59,-394.97 120.62,-394.64 113.69,-394.25 106.82,-393.82 100.01,-393.35 93.27,-392.84 86.62,-392.29 80.08,-391.69 73.65,-391.06 67.35,-390.39 61.2,-389.69 55.21,-388.96 49.42,-388.2 43.83,-387.41 38.47,-386.59 33.36,-385.75 28.53,-384.89 23.99,-384.01 19.77,-383.11 15.9,-382.2 12.39,-381.28 9.28,-380.35 6.58,-379.41 4.31,-378.47 2.5,-377.53 1.17,-376.59 0.33,-375.65 0,-374.72 0.2,-373.8 0.94,-372.89 2.23,-371.99 4.07,-371.11 6.48,-370.25 9.47,-369.41 13.01,-368.59 17.13,-367.8 21.81,-367.04 27.04,-366.31 32.81,-365.61 39.11,-364.94 45.92,-364.31 53.22,-363.71 60.98,-363.16 69.19,-362.65 77.81,-362.18 86.81,-361.75 96.16,-361.36 105.82,-361.03 115.76,-360.74 125.93,-360.49 136.3,-360.3 146.82,-360.15 157.45,-360.05 168.15,-360 178.86,-360 189.56,-360.05"/>
            <text text-anchor="middle" x="173.51" y="-372.95" font-family="Times,serif" font-size="14.00">type:
                identifier, id: 0, value: test_method
            </text>
        </g>
        <!-- type: function_signature, id: 6&#45;&gt;type: identifier, id: 0, value: test_method -->
        <g id="edge3" class="edge">
            <title>type: function_signature, id: 6&#45;&gt;type: identifier, id: 0, value: test_method</title>
            <path fill="none" stroke="black" d="M550.96,-435.34C471.66,-423.5 357.07,-406.4 274.98,-394.15"/>
            <polygon fill="black" stroke="black" points="275.52,-390.69 265.12,-392.67 274.49,-397.61 275.52,-390.69"/>
        </g>
        <!-- type: common, id: 4, name: list -->
        <g id="node5" class="node">
            <title>type: common, id: 4, name: list</title>
            <polygon fill="pink" stroke="black"
                     points="515.23,-360.05 523.66,-360.15 532,-360.3 540.22,-360.49 548.28,-360.74 556.16,-361.03 563.81,-361.36 571.22,-361.75 578.36,-362.18 585.19,-362.65 591.7,-363.16 597.85,-363.71 603.64,-364.31 609.04,-364.94 614.03,-365.61 618.61,-366.31 622.75,-367.04 626.46,-367.8 629.72,-368.59 632.54,-369.41 634.9,-370.25 636.81,-371.11 638.27,-371.99 639.3,-372.89 639.88,-373.8 640.04,-374.72 639.78,-375.65 639.11,-376.59 638.06,-377.53 636.62,-378.47 634.82,-379.41 632.68,-380.35 630.21,-381.28 627.43,-382.2 624.36,-383.11 621.02,-384.01 617.42,-384.89 613.59,-385.75 609.54,-386.59 605.3,-387.41 600.87,-388.2 596.27,-388.96 591.53,-389.69 586.65,-390.39 581.66,-391.06 576.56,-391.69 571.37,-392.29 566.1,-392.84 560.77,-393.35 555.37,-393.82 549.92,-394.25 544.43,-394.64 538.9,-394.97 533.35,-395.26 527.77,-395.51 522.17,-395.7 516.56,-395.85 510.94,-395.95 505.32,-396 499.69,-396 494.07,-395.95 488.45,-395.85 482.84,-395.7 477.24,-395.51 471.66,-395.26 466.11,-394.97 460.58,-394.64 455.09,-394.25 449.64,-393.82 444.24,-393.35 438.91,-392.84 433.64,-392.29 428.45,-391.69 423.35,-391.06 418.36,-390.39 413.48,-389.69 408.74,-388.96 404.15,-388.2 399.72,-387.41 395.47,-386.59 391.42,-385.75 387.59,-384.89 383.99,-384.01 380.65,-383.11 377.58,-382.2 374.8,-381.28 372.33,-380.35 370.19,-379.41 368.39,-378.47 366.96,-377.53 365.9,-376.59 365.23,-375.65 364.97,-374.72 365.13,-373.8 365.72,-372.89 366.74,-371.99 368.2,-371.11 370.11,-370.25 372.48,-369.41 375.29,-368.59 378.55,-367.8 382.26,-367.04 386.4,-366.31 390.98,-365.61 395.97,-364.94 401.37,-364.31 407.16,-363.71 413.31,-363.16 419.82,-362.65 426.65,-362.18 433.79,-361.75 441.2,-361.36 448.86,-361.03 456.73,-360.74 464.8,-360.49 473.01,-360.3 481.35,-360.15 489.78,-360.05 498.26,-360 506.75,-360 515.23,-360.05"/>
            <text text-anchor="middle" x="502.51" y="-372.95" font-family="Times,serif" font-size="14.00">type: common,
                id: 4, name: list
            </text>
        </g>
        <!-- type: function_signature, id: 6&#45;&gt;type: common, id: 4, name: list -->
        <g id="edge4" class="edge">
            <title>type: function_signature, id: 6&#45;&gt;type: common, id: 4, name: list</title>
            <path fill="none" stroke="black" d="M608.62,-432.05C589.73,-422.61 566.02,-410.76 545.81,-400.65"/>
            <polygon fill="black" stroke="black" points="547.46,-397.57 536.95,-396.22 544.33,-403.83 547.46,-397.57"/>
        </g>
        <!-- type: identifier, id: 5, value: test_type -->
        <g id="node9" class="node">
            <title>type: identifier, id: 5, value: test_type</title>
            <polygon fill="pink" stroke="black"
                     points="833.35,-360.05 843.18,-360.15 852.91,-360.3 862.49,-360.49 871.9,-360.74 881.09,-361.03 890.02,-361.36 898.66,-361.75 906.99,-362.18 914.96,-362.65 922.54,-363.16 929.73,-363.71 936.47,-364.31 942.77,-364.94 948.59,-365.61 953.93,-366.31 958.77,-367.04 963.09,-367.8 966.9,-368.59 970.18,-369.41 972.93,-370.25 975.16,-371.11 976.87,-371.99 978.06,-372.89 978.75,-373.8 978.93,-374.72 978.63,-375.65 977.85,-376.59 976.62,-377.53 974.94,-378.47 972.85,-379.41 970.35,-380.35 967.47,-381.28 964.23,-382.2 960.65,-383.11 956.75,-384.01 952.55,-384.89 948.08,-385.75 943.36,-386.59 938.4,-387.41 933.24,-388.2 927.88,-388.96 922.35,-389.69 916.66,-390.39 910.84,-391.06 904.89,-391.69 898.84,-392.29 892.69,-392.84 886.46,-393.35 880.17,-393.82 873.81,-394.25 867.41,-394.64 860.96,-394.97 854.48,-395.26 847.97,-395.51 841.45,-395.7 834.9,-395.85 828.35,-395.95 821.79,-396 815.22,-396 808.66,-395.95 802.11,-395.85 795.56,-395.7 789.04,-395.51 782.53,-395.26 776.05,-394.97 769.6,-394.64 763.2,-394.25 756.84,-393.82 750.55,-393.35 744.32,-392.84 738.17,-392.29 732.12,-391.69 726.17,-391.06 720.35,-390.39 714.66,-389.69 709.13,-388.96 703.77,-388.2 698.61,-387.41 693.65,-386.59 688.93,-385.75 684.46,-384.89 680.26,-384.01 676.36,-383.11 672.78,-382.2 669.54,-381.28 666.66,-380.35 664.16,-379.41 662.07,-378.47 660.39,-377.53 659.16,-376.59 658.38,-375.65 658.08,-374.72 658.26,-373.8 658.95,-372.89 660.14,-371.99 661.85,-371.11 664.08,-370.25 666.83,-369.41 670.11,-368.59 673.92,-367.8 678.24,-367.04 683.08,-366.31 688.42,-365.61 694.24,-364.94 700.54,-364.31 707.29,-363.71 714.47,-363.16 722.06,-362.65 730.03,-362.18 738.35,-361.75 746.99,-361.36 755.93,-361.03 765.11,-360.74 774.52,-360.49 784.1,-360.3 793.83,-360.15 803.66,-360.05 813.55,-360 823.46,-360 833.35,-360.05"/>
            <text text-anchor="middle" x="818.51" y="-372.95" font-family="Times,serif" font-size="14.00">type:
                identifier, id: 5, value: test_type
            </text>
        </g>
        <!-- type: function_signature, id: 6&#45;&gt;type: identifier, id: 5, value: test_type -->
        <g id="edge8" class="edge">
            <title>type: function_signature, id: 6&#45;&gt;type: identifier, id: 5, value: test_type</title>
            <path fill="none" stroke="black" d="M684.66,-432.23C709.24,-422.46 740.44,-410.05 766.53,-399.67"/>
            <polygon fill="black" stroke="black" points="767.59,-403.02 775.59,-396.07 765.01,-396.51 767.59,-403.02"/>
        </g>
        <!-- type: common, id: 3, name: list_item -->
        <g id="node6" class="node">
            <title>type: common, id: 3, name: list_item</title>
            <polygon fill="pink" stroke="black"
                     points="517.35,-288.05 527.18,-288.15 536.91,-288.3 546.49,-288.49 555.9,-288.74 565.09,-289.03 574.02,-289.36 582.66,-289.75 590.99,-290.18 598.96,-290.65 606.54,-291.16 613.73,-291.71 620.47,-292.31 626.77,-292.94 632.59,-293.61 637.93,-294.31 642.77,-295.04 647.09,-295.8 650.9,-296.59 654.18,-297.41 656.93,-298.25 659.16,-299.11 660.87,-299.99 662.06,-300.89 662.75,-301.8 662.93,-302.72 662.63,-303.65 661.85,-304.59 660.62,-305.53 658.94,-306.47 656.85,-307.41 654.35,-308.35 651.47,-309.28 648.23,-310.2 644.65,-311.11 640.75,-312.01 636.55,-312.89 632.08,-313.75 627.36,-314.59 622.4,-315.41 617.24,-316.2 611.88,-316.96 606.35,-317.69 600.66,-318.39 594.84,-319.06 588.89,-319.69 582.84,-320.29 576.69,-320.84 570.46,-321.35 564.17,-321.82 557.81,-322.25 551.41,-322.64 544.96,-322.97 538.48,-323.26 531.97,-323.51 525.45,-323.7 518.9,-323.85 512.35,-323.95 505.79,-324 499.22,-324 492.66,-323.95 486.11,-323.85 479.56,-323.7 473.04,-323.51 466.53,-323.26 460.05,-322.97 453.6,-322.64 447.2,-322.25 440.84,-321.82 434.55,-321.35 428.32,-320.84 422.17,-320.29 416.12,-319.69 410.17,-319.06 404.35,-318.39 398.66,-317.69 393.13,-316.96 387.77,-316.2 382.61,-315.41 377.65,-314.59 372.93,-313.75 368.46,-312.89 364.26,-312.01 360.36,-311.11 356.78,-310.2 353.54,-309.28 350.66,-308.35 348.16,-307.41 346.07,-306.47 344.39,-305.53 343.16,-304.59 342.38,-303.65 342.08,-302.72 342.26,-301.8 342.95,-300.89 344.14,-299.99 345.85,-299.11 348.08,-298.25 350.83,-297.41 354.11,-296.59 357.92,-295.8 362.24,-295.04 367.08,-294.31 372.42,-293.61 378.24,-292.94 384.54,-292.31 391.29,-291.71 398.47,-291.16 406.06,-290.65 414.03,-290.18 422.35,-289.75 430.99,-289.36 439.93,-289.03 449.11,-288.74 458.52,-288.49 468.1,-288.3 477.83,-288.15 487.66,-288.05 497.55,-288 507.46,-288 517.35,-288.05"/>
            <text text-anchor="middle" x="502.51" y="-300.95" font-family="Times,serif" font-size="14.00">type: common,
                id: 3, name: list_item
            </text>
        </g>
        <!-- type: common, id: 4, name: list&#45;&gt;type: common, id: 3, name: list_item -->
        <g id="edge5" class="edge">
            <title>type: common, id: 4, name: list&#45;&gt;type: common, id: 3, name: list_item</title>
            <path fill="none" stroke="black" d="M502.51,-359.7C502.51,-352.41 502.51,-343.73 502.51,-335.54"/>
            <polygon fill="black" stroke="black" points="506.01,-335.62 502.51,-325.62 499.01,-335.62 506.01,-335.62"/>
        </g>
        <!-- type: identifier, id: 1, value: a -->
        <g id="node7" class="node">
            <title>type: identifier, id: 1, value: a</title>
            <polygon fill="pink" stroke="black"
                     points="382.48,-216.05 390.4,-216.15 398.24,-216.3 405.97,-216.49 413.56,-216.74 420.97,-217.03 428.17,-217.36 435.14,-217.75 441.85,-218.18 448.28,-218.65 454.4,-219.16 460.19,-219.71 465.63,-220.31 470.71,-220.94 475.4,-221.61 479.71,-222.31 483.6,-223.04 487.09,-223.8 490.16,-224.59 492.81,-225.41 495.03,-226.25 496.83,-227.11 498.2,-227.99 499.16,-228.89 499.71,-229.8 499.86,-230.72 499.62,-231.65 498.99,-232.59 498,-233.53 496.65,-234.47 494.96,-235.41 492.94,-236.35 490.62,-237.28 488.01,-238.2 485.12,-239.11 481.98,-240.01 478.59,-240.89 474.99,-241.75 471.18,-242.59 467.18,-243.41 463.02,-244.2 458.7,-244.96 454.24,-245.69 449.65,-246.39 444.96,-247.06 440.16,-247.69 435.28,-248.29 430.32,-248.84 425.3,-249.35 420.23,-249.82 415.1,-250.25 409.94,-250.64 404.74,-250.97 399.51,-251.26 394.27,-251.51 389,-251.7 383.73,-251.85 378.44,-251.95 373.15,-252 367.86,-252 362.57,-251.95 357.28,-251.85 352.01,-251.7 346.74,-251.51 341.5,-251.26 336.27,-250.97 331.07,-250.64 325.91,-250.25 320.79,-249.82 315.71,-249.35 310.69,-248.84 305.73,-248.29 300.85,-247.69 296.06,-247.06 291.36,-246.39 286.77,-245.69 282.31,-244.96 277.99,-244.2 273.83,-243.41 269.83,-242.59 266.02,-241.75 262.42,-240.89 259.03,-240.01 255.89,-239.11 253,-238.2 250.39,-237.28 248.07,-236.35 246.05,-235.41 244.36,-234.47 243.01,-233.53 242.02,-232.59 241.39,-231.65 241.15,-230.72 241.3,-229.8 241.85,-228.89 242.81,-227.99 244.18,-227.11 245.98,-226.25 248.21,-225.41 250.85,-224.59 253.92,-223.8 257.41,-223.04 261.31,-222.31 265.61,-221.61 270.31,-220.94 275.38,-220.31 280.82,-219.71 286.61,-219.16 292.73,-218.65 299.16,-218.18 305.87,-217.75 312.84,-217.36 320.04,-217.03 327.45,-216.74 335.04,-216.49 342.77,-216.3 350.61,-216.15 358.54,-216.05 366.51,-216 374.5,-216 382.48,-216.05"/>
            <text text-anchor="middle" x="370.51" y="-228.95" font-family="Times,serif" font-size="14.00">type:
                identifier, id: 1, value: a
            </text>
        </g>
        <!-- type: common, id: 3, name: list_item&#45;&gt;type: identifier, id: 1, value: a -->
        <g id="edge6" class="edge">
            <title>type: common, id: 3, name: list_item&#45;&gt;type: identifier, id: 1, value: a</title>
            <path fill="none" stroke="black" d="M470.21,-287.88C452.57,-278.52 430.53,-266.83 411.66,-256.83"/>
            <polygon fill="black" stroke="black" points="413.37,-253.77 402.89,-252.17 410.09,-259.95 413.37,-253.77"/>
        </g>
        <!-- type: type, id: 2, name: int -->
        <g id="node8" class="node">
            <title>type: type, id: 2, name: int</title>
            <polygon fill="pink" stroke="black"
                     points="646.37,-216.05 653.56,-216.15 660.67,-216.3 667.69,-216.49 674.57,-216.74 681.29,-217.03 687.82,-217.36 694.15,-217.75 700.24,-218.18 706.07,-218.65 711.62,-219.16 716.87,-219.71 721.81,-220.31 726.42,-220.94 730.68,-221.61 734.58,-222.31 738.12,-223.04 741.28,-223.8 744.07,-224.59 746.47,-225.41 748.48,-226.25 750.12,-227.11 751.37,-227.99 752.24,-228.89 752.74,-229.8 752.87,-230.72 752.65,-231.65 752.08,-232.59 751.18,-233.53 749.96,-234.47 748.42,-235.41 746.59,-236.35 744.49,-237.28 742.12,-238.2 739.5,-239.11 736.64,-240.01 733.57,-240.89 730.3,-241.75 726.85,-242.59 723.22,-243.41 719.44,-244.2 715.52,-244.96 711.48,-245.69 707.32,-246.39 703.05,-247.06 698.7,-247.69 694.28,-248.29 689.78,-248.84 685.22,-249.35 680.62,-249.82 675.97,-250.25 671.28,-250.64 666.57,-250.97 661.83,-251.26 657.06,-251.51 652.29,-251.7 647.5,-251.85 642.71,-251.95 637.91,-252 633.1,-252 628.3,-251.95 623.51,-251.85 618.72,-251.7 613.95,-251.51 609.19,-251.26 604.45,-250.97 599.73,-250.64 595.04,-250.25 590.39,-249.82 585.79,-249.35 581.23,-248.84 576.74,-248.29 572.31,-247.69 567.96,-247.06 563.7,-246.39 559.54,-245.69 555.49,-244.96 551.57,-244.2 547.79,-243.41 544.16,-242.59 540.71,-241.75 537.44,-240.89 534.37,-240.01 531.51,-239.11 528.89,-238.2 526.52,-237.28 524.42,-236.35 522.59,-235.41 521.06,-234.47 519.83,-233.53 518.93,-232.59 518.36,-231.65 518.14,-230.72 518.27,-229.8 518.77,-228.89 519.64,-227.99 520.89,-227.11 522.53,-226.25 524.54,-225.41 526.94,-224.59 529.73,-223.8 532.89,-223.04 536.43,-222.31 540.33,-221.61 544.59,-220.94 549.2,-220.31 554.14,-219.71 559.39,-219.16 564.94,-218.65 570.77,-218.18 576.86,-217.75 583.19,-217.36 589.72,-217.03 596.44,-216.74 603.33,-216.49 610.34,-216.3 617.45,-216.15 624.64,-216.05 631.88,-216 639.13,-216 646.37,-216.05"/>
            <text text-anchor="middle" x="635.51" y="-228.95" font-family="Times,serif" font-size="14.00">type: type,
                id: 2, name: int
            </text>
        </g>
        <!-- type: common, id: 3, name: list_item&#45;&gt;type: type, id: 2, name: int -->
        <g id="edge7" class="edge">
            <title>type: common, id: 3, name: list_item&#45;&gt;type: type, id: 2, name: int</title>
            <path fill="none" stroke="black" d="M535.04,-287.88C553.03,-278.41 575.56,-266.55 594.72,-256.47"/>
            <polygon fill="black" stroke="black" points="596.12,-259.69 603.34,-251.93 592.86,-253.49 596.12,-259.69"/>
        </g>
        <!-- type: block, id: 23 -->
        <g id="node11" class="node">
            <title>type: block, id: 23</title>
            <polygon fill="pink" stroke="black"
                     points="1089.29,-360.05 1094.44,-360.15 1099.54,-360.3 1104.57,-360.49 1109.5,-360.74 1114.32,-361.03 1119,-361.36 1123.54,-361.75 1127.9,-362.18 1132.08,-362.65 1136.06,-363.16 1139.82,-363.71 1143.36,-364.31 1146.66,-364.94 1149.72,-365.61 1152.52,-366.31 1155.05,-367.04 1157.32,-367.8 1159.31,-368.59 1161.03,-369.41 1162.48,-370.25 1163.65,-371.11 1164.55,-371.99 1165.17,-372.89 1165.53,-373.8 1165.62,-374.72 1165.46,-375.65 1165.06,-376.59 1164.41,-377.53 1163.53,-378.47 1162.43,-379.41 1161.13,-380.35 1159.61,-381.28 1157.92,-382.2 1156.04,-383.11 1153.99,-384.01 1151.79,-384.89 1149.45,-385.75 1146.97,-386.59 1144.37,-387.41 1141.67,-388.2 1138.86,-388.96 1135.95,-389.69 1132.97,-390.39 1129.92,-391.06 1126.8,-391.69 1123.63,-392.29 1120.4,-392.84 1117.14,-393.35 1113.84,-393.82 1110.51,-394.25 1107.15,-394.64 1103.77,-394.97 1100.37,-395.26 1096.96,-395.51 1093.53,-395.7 1090.1,-395.85 1086.67,-395.95 1083.23,-396 1079.78,-396 1076.34,-395.95 1072.91,-395.85 1069.48,-395.7 1066.05,-395.51 1062.64,-395.26 1059.24,-394.97 1055.86,-394.64 1052.51,-394.25 1049.17,-393.82 1045.87,-393.35 1042.61,-392.84 1039.38,-392.29 1036.21,-391.69 1033.09,-391.06 1030.04,-390.39 1027.06,-389.69 1024.16,-388.96 1021.35,-388.2 1018.64,-387.41 1016.04,-386.59 1013.56,-385.75 1011.22,-384.89 1009.02,-384.01 1006.97,-383.11 1005.1,-382.2 1003.4,-381.28 1001.89,-380.35 1000.58,-379.41 999.48,-378.47 998.6,-377.53 997.95,-376.59 997.55,-375.65 997.39,-374.72 997.48,-373.8 997.84,-372.89 998.47,-371.99 999.36,-371.11 1000.53,-370.25 1001.98,-369.41 1003.7,-368.59 1005.69,-367.8 1007.96,-367.04 1010.49,-366.31 1013.29,-365.61 1016.35,-364.94 1019.65,-364.31 1023.19,-363.71 1026.95,-363.16 1030.93,-362.65 1035.11,-362.18 1039.47,-361.75 1044.01,-361.36 1048.69,-361.03 1053.51,-360.74 1058.44,-360.49 1063.47,-360.3 1068.57,-360.15 1073.72,-360.05 1078.91,-360 1084.1,-360 1089.29,-360.05"/>
            <text text-anchor="middle" x="1081.51" y="-372.95" font-family="Times,serif" font-size="14.00">type: block,
                id: 23
            </text>
        </g>
        <!-- type: common, id: 24, name: body&#45;&gt;type: block, id: 23 -->
        <g id="edge10" class="edge">
            <title>type: common, id: 24, name: body&#45;&gt;type: block, id: 23</title>
            <path fill="none" stroke="black" d="M1028.81,-431.7C1037.24,-423.27 1047.53,-412.97 1056.77,-403.73"/>
            <polygon fill="black" stroke="black"
                     points="1059.22,-406.24 1063.81,-396.69 1054.27,-401.29 1059.22,-406.24"/>
        </g>
        <!-- type: common, id: 22, name: block_item -->
        <g id="node12" class="node">
            <title>type: common, id: 22, name: block_item</title>
            <polygon fill="pink" stroke="black"
                     points="1097.71,-288.05 1108.44,-288.15 1119.06,-288.3 1129.53,-288.49 1139.8,-288.74 1149.83,-289.03 1159.58,-289.36 1169.02,-289.75 1178.1,-290.18 1186.8,-290.65 1195.09,-291.16 1202.93,-291.71 1210.3,-292.31 1217.17,-292.94 1223.53,-293.61 1229.35,-294.31 1234.63,-295.04 1239.35,-295.8 1243.51,-296.59 1247.09,-297.41 1250.1,-298.25 1252.54,-299.11 1254.4,-299.99 1255.7,-300.89 1256.45,-301.8 1256.65,-302.72 1256.32,-303.65 1255.47,-304.59 1254.12,-305.53 1252.29,-306.47 1250.01,-307.41 1247.28,-308.35 1244.13,-309.28 1240.6,-310.2 1236.69,-311.11 1232.43,-312.01 1227.85,-312.89 1222.97,-313.75 1217.81,-314.59 1212.4,-315.41 1206.76,-316.2 1200.91,-316.96 1194.87,-317.69 1188.66,-318.39 1182.31,-319.06 1175.81,-319.69 1169.21,-320.29 1162.5,-320.84 1155.7,-321.35 1148.82,-321.82 1141.88,-322.25 1134.89,-322.64 1127.86,-322.97 1120.78,-323.26 1113.68,-323.51 1106.55,-323.7 1099.41,-323.85 1092.25,-323.95 1085.09,-324 1077.92,-324 1070.76,-323.95 1063.6,-323.85 1056.46,-323.7 1049.33,-323.51 1042.23,-323.26 1035.16,-322.97 1028.12,-322.64 1021.13,-322.25 1014.19,-321.82 1007.31,-321.35 1000.52,-320.84 993.8,-320.29 987.2,-319.69 980.7,-319.06 974.35,-318.39 968.14,-317.69 962.1,-316.96 956.25,-316.2 950.61,-315.41 945.2,-314.59 940.04,-313.75 935.16,-312.89 930.58,-312.01 926.32,-311.11 922.41,-310.2 918.88,-309.28 915.73,-308.35 913,-307.41 910.72,-306.47 908.89,-305.53 907.54,-304.59 906.7,-303.65 906.36,-302.72 906.57,-301.8 907.31,-300.89 908.61,-299.99 910.48,-299.11 912.91,-298.25 915.92,-297.41 919.5,-296.59 923.66,-295.8 928.38,-295.04 933.66,-294.31 939.48,-293.61 945.84,-292.94 952.71,-292.31 960.08,-291.71 967.92,-291.16 976.21,-290.65 984.91,-290.18 993.99,-289.75 1003.43,-289.36 1013.19,-289.03 1023.22,-288.74 1033.48,-288.49 1043.95,-288.3 1054.57,-288.15 1065.3,-288.05 1076.1,-288 1086.92,-288 1097.71,-288.05"/>
            <text text-anchor="middle" x="1081.51" y="-300.95" font-family="Times,serif" font-size="14.00">type: common,
                id: 22, name: block_item
            </text>
        </g>
        <!-- type: block, id: 23&#45;&gt;type: common, id: 22, name: block_item -->
        <g id="edge11" class="edge">
            <title>type: block, id: 23&#45;&gt;type: common, id: 22, name: block_item</title>
            <path fill="none" stroke="black" d="M1081.51,-359.7C1081.51,-352.41 1081.51,-343.73 1081.51,-335.54"/>
            <polygon fill="black" stroke="black"
                     points="1085.01,-335.62 1081.51,-325.62 1078.01,-335.62 1085.01,-335.62"/>
        </g>
        <!-- type: common, id: 21, name: block_item -->
        <g id="node13" class="node">
            <title>type: common, id: 21, name: block_item</title>
            <polygon fill="pink" stroke="black"
                     points="1030.71,-216.05 1041.44,-216.15 1052.06,-216.3 1062.53,-216.49 1072.8,-216.74 1082.83,-217.03 1092.58,-217.36 1102.02,-217.75 1111.1,-218.18 1119.8,-218.65 1128.09,-219.16 1135.93,-219.71 1143.3,-220.31 1150.17,-220.94 1156.53,-221.61 1162.35,-222.31 1167.63,-223.04 1172.35,-223.8 1176.51,-224.59 1180.09,-225.41 1183.1,-226.25 1185.54,-227.11 1187.4,-227.99 1188.7,-228.89 1189.45,-229.8 1189.65,-230.72 1189.32,-231.65 1188.47,-232.59 1187.12,-233.53 1185.29,-234.47 1183.01,-235.41 1180.28,-236.35 1177.13,-237.28 1173.6,-238.2 1169.69,-239.11 1165.43,-240.01 1160.85,-240.89 1155.97,-241.75 1150.81,-242.59 1145.4,-243.41 1139.76,-244.2 1133.91,-244.96 1127.87,-245.69 1121.66,-246.39 1115.31,-247.06 1108.81,-247.69 1102.21,-248.29 1095.5,-248.84 1088.7,-249.35 1081.82,-249.82 1074.88,-250.25 1067.89,-250.64 1060.86,-250.97 1053.78,-251.26 1046.68,-251.51 1039.55,-251.7 1032.41,-251.85 1025.25,-251.95 1018.09,-252 1010.92,-252 1003.76,-251.95 996.6,-251.85 989.46,-251.7 982.33,-251.51 975.23,-251.26 968.16,-250.97 961.12,-250.64 954.13,-250.25 947.19,-249.82 940.31,-249.35 933.52,-248.84 926.8,-248.29 920.2,-247.69 913.7,-247.06 907.35,-246.39 901.14,-245.69 895.1,-244.96 889.25,-244.2 883.61,-243.41 878.2,-242.59 873.04,-241.75 868.16,-240.89 863.58,-240.01 859.32,-239.11 855.41,-238.2 851.88,-237.28 848.73,-236.35 846,-235.41 843.72,-234.47 841.89,-233.53 840.54,-232.59 839.7,-231.65 839.36,-230.72 839.57,-229.8 840.31,-228.89 841.61,-227.99 843.48,-227.11 845.91,-226.25 848.92,-225.41 852.5,-224.59 856.66,-223.8 861.38,-223.04 866.66,-222.31 872.48,-221.61 878.84,-220.94 885.71,-220.31 893.08,-219.71 900.92,-219.16 909.21,-218.65 917.91,-218.18 926.99,-217.75 936.43,-217.36 946.19,-217.03 956.22,-216.74 966.48,-216.49 976.95,-216.3 987.57,-216.15 998.3,-216.05 1009.1,-216 1019.92,-216 1030.71,-216.05"/>
            <text text-anchor="middle" x="1014.51" y="-228.95" font-family="Times,serif" font-size="14.00">type: common,
                id: 21, name: block_item
            </text>
        </g>
        <!-- type: common, id: 22, name: block_item&#45;&gt;type: common, id: 21, name: block_item -->
        <g id="edge12" class="edge">
            <title>type: common, id: 22, name: block_item&#45;&gt;type: common, id: 21, name: block_item</title>
            <path fill="none" stroke="black" d="M1064.94,-287.7C1057.07,-279.47 1047.51,-269.48 1038.84,-260.42"/>
            <polygon fill="black" stroke="black" points="1041.37,-258 1031.92,-253.2 1036.31,-262.84 1041.37,-258"/>
        </g>
        <!-- type: loop, id: 15, loop_type: while -->
        <g id="node19" class="node">
            <title>type: loop, id: 15, loop_type: while</title>
            <polygon fill="pink" stroke="black"
                     points="1462.54,-216.05 1471.84,-216.15 1481.04,-216.3 1490.1,-216.49 1499,-216.74 1507.68,-217.03 1516.13,-217.36 1524.31,-217.75 1532.18,-218.18 1539.71,-218.65 1546.89,-219.16 1553.68,-219.71 1560.06,-220.31 1566.02,-220.94 1571.52,-221.61 1576.57,-222.31 1581.14,-223.04 1585.23,-223.8 1588.83,-224.59 1591.93,-225.41 1594.54,-226.25 1596.65,-227.11 1598.26,-227.99 1599.39,-228.89 1600.04,-229.8 1600.21,-230.72 1599.92,-231.65 1599.19,-232.59 1598.02,-233.53 1596.44,-234.47 1594.46,-235.41 1592.1,-236.35 1589.37,-237.28 1586.31,-238.2 1582.92,-239.11 1579.23,-240.01 1575.27,-240.89 1571.04,-241.75 1566.57,-242.59 1561.89,-243.41 1557,-244.2 1551.93,-244.96 1546.7,-245.69 1541.33,-246.39 1535.82,-247.06 1530.19,-247.69 1524.47,-248.29 1518.66,-248.84 1512.77,-249.35 1506.81,-249.82 1500.81,-250.25 1494.75,-250.64 1488.65,-250.97 1482.53,-251.26 1476.37,-251.51 1470.2,-251.7 1464.01,-251.85 1457.81,-251.95 1451.61,-252 1445.4,-252 1439.2,-251.95 1433,-251.85 1426.81,-251.7 1420.64,-251.51 1414.49,-251.26 1408.36,-250.97 1402.26,-250.64 1396.21,-250.25 1390.2,-249.82 1384.24,-249.35 1378.35,-248.84 1372.54,-248.29 1366.82,-247.69 1361.19,-247.06 1355.69,-246.39 1350.31,-245.69 1345.08,-244.96 1340.01,-244.2 1335.12,-243.41 1330.44,-242.59 1325.97,-241.75 1321.75,-240.89 1317.78,-240.01 1314.09,-239.11 1310.7,-238.2 1307.64,-237.28 1304.92,-236.35 1302.55,-235.41 1300.57,-234.47 1298.99,-233.53 1297.82,-232.59 1297.09,-231.65 1296.8,-230.72 1296.98,-229.8 1297.62,-228.89 1298.75,-227.99 1300.36,-227.11 1302.47,-226.25 1305.08,-225.41 1308.18,-224.59 1311.78,-223.8 1315.87,-223.04 1320.44,-222.31 1325.49,-221.61 1331,-220.94 1336.95,-220.31 1343.33,-219.71 1350.12,-219.16 1357.3,-218.65 1364.83,-218.18 1372.71,-217.75 1380.88,-217.36 1389.33,-217.03 1398.02,-216.74 1406.91,-216.49 1415.97,-216.3 1425.17,-216.15 1434.47,-216.05 1443.82,-216 1453.19,-216 1462.54,-216.05"/>
            <text text-anchor="middle" x="1448.51" y="-228.95" font-family="Times,serif" font-size="14.00">type: loop,
                id: 15, loop_type: while
            </text>
        </g>
        <!-- type: common, id: 22, name: block_item&#45;&gt;type: loop, id: 15, loop_type: while -->
        <g id="edge18" class="edge">
            <title>type: common, id: 22, name: block_item&#45;&gt;type: loop, id: 15, loop_type: while</title>
            <path fill="none" stroke="black" d="M1164.78,-289.12C1224.29,-277.77 1304.08,-262.55 1363.88,-251.14"/>
            <polygon fill="black" stroke="black"
                     points="1364.53,-254.58 1373.7,-249.27 1363.22,-247.7 1364.53,-254.58"/>
        </g>
        <!-- type: assign, id: 20, oper_name: ASSIGMENT -->
        <g id="node14" class="node">
            <title>type: assign, id: 20, oper_name: ASSIGMENT</title>
            <polygon fill="pink" stroke="black"
                     points="944.83,-144.05 956.96,-144.15 968.97,-144.3 980.8,-144.49 992.41,-144.74 1003.76,-145.03 1014.78,-145.36 1025.45,-145.75 1035.73,-146.18 1045.57,-146.65 1054.93,-147.16 1063.8,-147.71 1072.13,-148.31 1079.9,-148.94 1087.09,-149.61 1093.68,-150.31 1099.65,-151.04 1104.99,-151.8 1109.68,-152.59 1113.73,-153.41 1117.14,-154.25 1119.89,-155.11 1122,-155.99 1123.47,-156.89 1124.31,-157.8 1124.54,-158.72 1124.16,-159.65 1123.21,-160.59 1121.68,-161.53 1119.62,-162.47 1117.03,-163.41 1113.95,-164.35 1110.39,-165.28 1106.39,-166.2 1101.97,-167.11 1097.16,-168.01 1091.98,-168.89 1086.46,-169.75 1080.63,-170.59 1074.51,-171.41 1068.13,-172.2 1061.52,-172.96 1054.69,-173.69 1047.67,-174.39 1040.48,-175.06 1033.14,-175.69 1025.67,-176.29 1018.08,-176.84 1010.39,-177.35 1002.62,-177.82 994.78,-178.25 986.87,-178.64 978.91,-178.97 970.91,-179.26 962.88,-179.51 954.82,-179.7 946.75,-179.85 938.66,-179.95 930.56,-180 922.45,-180 914.36,-179.95 906.26,-179.85 898.19,-179.7 890.13,-179.51 882.1,-179.26 874.1,-178.97 866.14,-178.64 858.23,-178.25 850.39,-177.82 842.62,-177.35 834.93,-176.84 827.34,-176.29 819.87,-175.69 812.53,-175.06 805.34,-174.39 798.32,-173.69 791.49,-172.96 784.88,-172.2 778.5,-171.41 772.38,-170.59 766.55,-169.75 761.03,-168.89 755.85,-168.01 751.04,-167.11 746.62,-166.2 742.62,-165.28 739.06,-164.35 735.98,-163.41 733.39,-162.47 731.33,-161.53 729.81,-160.59 728.85,-159.65 728.47,-158.72 728.7,-157.8 729.54,-156.89 731.01,-155.99 733.12,-155.11 735.87,-154.25 739.28,-153.41 743.33,-152.59 748.02,-151.8 753.36,-151.04 759.33,-150.31 765.92,-149.61 773.11,-148.94 780.88,-148.31 789.21,-147.71 798.08,-147.16 807.44,-146.65 817.28,-146.18 827.56,-145.75 838.23,-145.36 849.26,-145.03 860.6,-144.74 872.21,-144.49 884.04,-144.3 896.05,-144.15 908.18,-144.05 920.39,-144 932.62,-144 944.83,-144.05"/>
            <text text-anchor="middle" x="926.51" y="-156.95" font-family="Times,serif" font-size="14.00">type: assign,
                id: 20, oper_name: ASSIGMENT
            </text>
        </g>
        <!-- type: common, id: 21, name: block_item&#45;&gt;type: assign, id: 20, oper_name: ASSIGMENT -->
        <g id="edge13" class="edge">
            <title>type: common, id: 21, name: block_item&#45;&gt;type: assign, id: 20, oper_name: ASSIGMENT</title>
            <path fill="none" stroke="black" d="M992.75,-215.7C981.88,-207.05 968.56,-196.45 956.71,-187.03"/>
            <polygon fill="black" stroke="black" points="959.2,-184.53 949.19,-181.05 954.84,-190.01 959.2,-184.53"/>
        </g>
        <!-- type: identifier, id: 16, value: a -->
        <g id="node15" class="node">
            <title>type: identifier, id: 16, value: a</title>
            <polygon fill="pink" stroke="black"
                     points="581.93,-72.05 590.16,-72.15 598.3,-72.3 606.32,-72.49 614.19,-72.74 621.88,-73.03 629.36,-73.36 636.59,-73.75 643.56,-74.18 650.23,-74.65 656.58,-75.16 662.59,-75.71 668.24,-76.31 673.51,-76.94 678.38,-77.61 682.85,-78.31 686.89,-79.04 690.51,-79.8 693.7,-80.59 696.44,-81.41 698.75,-82.25 700.62,-83.11 702.05,-83.99 703.04,-84.89 703.61,-85.8 703.77,-86.72 703.51,-87.65 702.86,-88.59 701.83,-89.53 700.43,-90.47 698.68,-91.41 696.59,-92.35 694.18,-93.28 691.46,-94.2 688.47,-95.11 685.2,-96.01 681.69,-96.89 677.95,-97.75 674,-98.59 669.85,-99.41 665.53,-100.2 661.04,-100.96 656.41,-101.69 651.65,-102.39 646.78,-103.06 641.8,-103.69 636.74,-104.29 631.59,-104.84 626.38,-105.35 621.11,-105.82 615.79,-106.25 610.43,-106.64 605.04,-106.97 599.61,-107.26 594.17,-107.51 588.71,-107.7 583.23,-107.85 577.74,-107.95 572.25,-108 566.76,-108 561.27,-107.95 555.78,-107.85 550.31,-107.7 544.84,-107.51 539.4,-107.26 533.97,-106.97 528.58,-106.64 523.22,-106.25 517.9,-105.82 512.63,-105.35 507.42,-104.84 502.27,-104.29 497.21,-103.69 492.23,-103.06 487.36,-102.39 482.6,-101.69 477.97,-100.96 473.48,-100.2 469.16,-99.41 465.01,-98.59 461.06,-97.75 457.32,-96.89 453.81,-96.01 450.54,-95.11 447.55,-94.2 444.83,-93.28 442.42,-92.35 440.33,-91.41 438.58,-90.47 437.18,-89.53 436.15,-88.59 435.5,-87.65 435.24,-86.72 435.4,-85.8 435.97,-84.89 436.97,-83.99 438.39,-83.11 440.26,-82.25 442.57,-81.41 445.31,-80.59 448.5,-79.8 452.12,-79.04 456.16,-78.31 460.63,-77.61 465.51,-76.94 470.77,-76.31 476.42,-75.71 482.43,-75.16 488.78,-74.65 495.45,-74.18 502.42,-73.75 509.65,-73.36 517.13,-73.03 524.82,-72.74 532.69,-72.49 540.71,-72.3 548.86,-72.15 557.08,-72.05 565.36,-72 573.65,-72 581.93,-72.05"/>
            <text text-anchor="middle" x="569.51" y="-84.95" font-family="Times,serif" font-size="14.00">type:
                identifier, id: 16, value: a
            </text>
        </g>
        <!-- type: assign, id: 20, oper_name: ASSIGMENT&#45;&gt;type: identifier, id: 16, value: a -->
        <g id="edge14" class="edge">
            <title>type: assign, id: 20, oper_name: ASSIGMENT&#45;&gt;type: identifier, id: 16, value: a</title>
            <path fill="none" stroke="black" d="M843.71,-144.76C785.39,-133.33 707.72,-118.1 649.94,-106.77"/>
            <polygon fill="black" stroke="black" points="650.63,-103.34 640.14,-104.85 649.28,-110.21 650.63,-103.34"/>
        </g>
        <!-- type: expression, id: 19, oper_name: BIN_PLUS -->
        <g id="node16" class="node">
            <title>type: expression, id: 19, oper_name: BIN_PLUS</title>
            <polygon fill="pink" stroke="black"
                     points="945.49,-72.05 958.05,-72.15 970.49,-72.3 982.75,-72.49 994.77,-72.74 1006.52,-73.03 1017.94,-73.36 1028.99,-73.75 1039.64,-74.18 1049.83,-74.65 1059.53,-75.16 1068.71,-75.71 1077.34,-76.31 1085.39,-76.94 1092.84,-77.61 1099.66,-78.31 1105.84,-79.04 1111.37,-79.8 1116.24,-80.59 1120.43,-81.41 1123.96,-82.25 1126.81,-83.11 1128.99,-83.99 1130.52,-84.89 1131.39,-85.8 1131.62,-86.72 1131.24,-87.65 1130.24,-88.59 1128.67,-89.53 1126.53,-90.47 1123.85,-91.41 1120.65,-92.35 1116.97,-93.28 1112.83,-94.2 1108.25,-95.11 1103.26,-96.01 1097.9,-96.89 1092.18,-97.75 1086.14,-98.59 1079.81,-99.41 1073.2,-100.2 1066.35,-100.96 1059.28,-101.69 1052.01,-102.39 1044.56,-103.06 1036.96,-103.69 1029.22,-104.29 1021.36,-104.84 1013.4,-105.35 1005.35,-105.82 997.22,-106.25 989.03,-106.64 980.79,-106.97 972.5,-107.26 964.18,-107.51 955.84,-107.7 947.47,-107.85 939.09,-107.95 930.7,-108 922.31,-108 913.92,-107.95 905.54,-107.85 897.17,-107.7 888.83,-107.51 880.51,-107.26 872.22,-106.97 863.98,-106.64 855.79,-106.25 847.67,-105.82 839.61,-105.35 831.65,-104.84 823.79,-104.29 816.05,-103.69 808.45,-103.06 801,-102.39 793.73,-101.69 786.66,-100.96 779.81,-100.2 773.2,-99.41 766.87,-98.59 760.83,-97.75 755.11,-96.89 749.75,-96.01 744.76,-95.11 740.18,-94.2 736.04,-93.28 732.36,-92.35 729.16,-91.41 726.48,-90.47 724.34,-89.53 722.77,-88.59 721.78,-87.65 721.39,-86.72 721.62,-85.8 722.49,-84.89 724.02,-83.99 726.2,-83.11 729.05,-82.25 732.58,-81.41 736.77,-80.59 741.64,-79.8 747.17,-79.04 753.35,-78.31 760.17,-77.61 767.62,-76.94 775.67,-76.31 784.3,-75.71 793.48,-75.16 803.18,-74.65 813.37,-74.18 824.02,-73.75 835.07,-73.36 846.49,-73.03 858.24,-72.74 870.26,-72.49 882.52,-72.3 894.96,-72.15 907.52,-72.05 920.17,-72 932.84,-72 945.49,-72.05"/>
            <text text-anchor="middle" x="926.51" y="-84.95" font-family="Times,serif" font-size="14.00">type:
                expression, id: 19, oper_name: BIN_PLUS
            </text>
        </g>
        <!-- type: assign, id: 20, oper_name: ASSIGMENT&#45;&gt;type: expression, id: 19, oper_name: BIN_PLUS -->
        <g id="edge15" class="edge">
            <title>type: assign, id: 20, oper_name: ASSIGMENT&#45;&gt;type: expression, id: 19, oper_name: BIN_PLUS
            </title>
            <path fill="none" stroke="black" d="M926.51,-143.7C926.51,-136.41 926.51,-127.73 926.51,-119.54"/>
            <polygon fill="black" stroke="black" points="930.01,-119.62 926.51,-109.62 923.01,-119.62 930.01,-119.62"/>
        </g>
        <!-- type: identifier, id: 17, value: a -->
        <g id="node17" class="node">
            <title>type: identifier, id: 17, value: a</title>
            <polygon fill="pink" stroke="black"
                     points="668.93,-0.05 677.16,-0.15 685.3,-0.3 693.32,-0.49 701.19,-0.74 708.88,-1.03 716.36,-1.36 723.59,-1.75 730.56,-2.18 737.23,-2.65 743.58,-3.16 749.59,-3.71 755.24,-4.31 760.51,-4.94 765.38,-5.61 769.85,-6.31 773.89,-7.04 777.51,-7.8 780.7,-8.59 783.44,-9.41 785.75,-10.25 787.62,-11.11 789.05,-11.99 790.04,-12.89 790.61,-13.8 790.77,-14.72 790.51,-15.65 789.86,-16.59 788.83,-17.53 787.43,-18.47 785.68,-19.41 783.59,-20.35 781.18,-21.28 778.46,-22.2 775.47,-23.11 772.2,-24.01 768.69,-24.89 764.95,-25.75 761,-26.59 756.85,-27.41 752.53,-28.2 748.04,-28.96 743.41,-29.69 738.65,-30.39 733.78,-31.06 728.8,-31.69 723.74,-32.29 718.59,-32.84 713.38,-33.35 708.11,-33.82 702.79,-34.25 697.43,-34.64 692.04,-34.97 686.61,-35.26 681.17,-35.51 675.71,-35.7 670.23,-35.85 664.74,-35.95 659.25,-36 653.76,-36 648.27,-35.95 642.78,-35.85 637.31,-35.7 631.84,-35.51 626.4,-35.26 620.97,-34.97 615.58,-34.64 610.22,-34.25 604.9,-33.82 599.63,-33.35 594.42,-32.84 589.27,-32.29 584.21,-31.69 579.23,-31.06 574.36,-30.39 569.6,-29.69 564.97,-28.96 560.48,-28.2 556.16,-27.41 552.01,-26.59 548.06,-25.75 544.32,-24.89 540.81,-24.01 537.54,-23.11 534.55,-22.2 531.83,-21.28 529.42,-20.35 527.33,-19.41 525.58,-18.47 524.18,-17.53 523.15,-16.59 522.5,-15.65 522.24,-14.72 522.4,-13.8 522.97,-12.89 523.97,-11.99 525.39,-11.11 527.26,-10.25 529.57,-9.41 532.31,-8.59 535.5,-7.8 539.12,-7.04 543.16,-6.31 547.63,-5.61 552.51,-4.94 557.77,-4.31 563.42,-3.71 569.43,-3.16 575.78,-2.65 582.45,-2.18 589.42,-1.75 596.65,-1.36 604.13,-1.03 611.82,-0.74 619.69,-0.49 627.71,-0.3 635.86,-0.15 644.08,-0.05 652.36,0 660.65,0 668.93,-0.05"/>
            <text text-anchor="middle" x="656.51" y="-12.95" font-family="Times,serif" font-size="14.00">type:
                identifier, id: 17, value: a
            </text>
        </g>
        <!-- type: expression, id: 19, oper_name: BIN_PLUS&#45;&gt;type: identifier, id: 17, value: a -->
        <g id="edge16" class="edge">
            <title>type: expression, id: 19, oper_name: BIN_PLUS&#45;&gt;type: identifier, id: 17, value: a</title>
            <path fill="none" stroke="black" d="M861.83,-72.23C820.3,-61.47 766.45,-47.5 724.32,-36.58"/>
            <polygon fill="black" stroke="black" points="725.34,-33.23 714.78,-34.11 723.59,-40.01 725.34,-33.23"/>
        </g>
        <!-- type: value, id: 18, type_name: DEC, value: 6 -->
        <g id="node18" class="node">
            <title>type: value, id: 18, type_name: DEC, value: 6</title>
            <polygon fill="pink" stroke="black"
                     points="1021.53,-0.05 1033.46,-0.15 1045.27,-0.3 1056.91,-0.49 1068.33,-0.74 1079.48,-1.03 1090.33,-1.36 1100.82,-1.75 1110.92,-2.18 1120.6,-2.65 1129.81,-3.16 1138.53,-3.71 1146.73,-4.31 1154.37,-4.94 1161.44,-5.61 1167.92,-6.31 1173.79,-7.04 1179.04,-7.8 1183.66,-8.59 1187.64,-9.41 1190.99,-10.25 1193.7,-11.11 1195.77,-11.99 1197.22,-12.89 1198.04,-13.8 1198.27,-14.72 1197.9,-15.65 1196.96,-16.59 1195.46,-17.53 1193.43,-18.47 1190.88,-19.41 1187.85,-20.35 1184.35,-21.28 1180.42,-22.2 1176.07,-23.11 1171.34,-24.01 1166.24,-24.89 1160.82,-25.75 1155.08,-26.59 1149.07,-27.41 1142.79,-28.2 1136.29,-28.96 1129.57,-29.69 1122.67,-30.39 1115.6,-31.06 1108.38,-31.69 1101.03,-32.29 1093.57,-32.84 1086.01,-33.35 1078.37,-33.82 1070.65,-34.25 1062.87,-34.64 1055.05,-34.97 1047.18,-35.26 1039.28,-35.51 1031.36,-35.7 1023.41,-35.85 1015.45,-35.95 1007.49,-36 999.52,-36 991.56,-35.95 983.6,-35.85 975.65,-35.7 967.73,-35.51 959.83,-35.26 951.96,-34.97 944.14,-34.64 936.36,-34.25 928.65,-33.82 921,-33.35 913.44,-32.84 905.98,-32.29 898.63,-31.69 891.41,-31.06 884.34,-30.39 877.44,-29.69 870.72,-28.96 864.22,-28.2 857.94,-27.41 851.93,-26.59 846.19,-25.75 840.77,-24.89 835.67,-24.01 830.94,-23.11 826.59,-22.2 822.66,-21.28 819.16,-20.35 816.13,-19.41 813.58,-18.47 811.55,-17.53 810.05,-16.59 809.11,-15.65 808.74,-14.72 808.97,-13.8 809.79,-12.89 811.24,-11.99 813.31,-11.11 816.02,-10.25 819.37,-9.41 823.35,-8.59 827.97,-7.8 833.22,-7.04 839.09,-6.31 845.57,-5.61 852.64,-4.94 860.29,-4.31 868.48,-3.71 877.2,-3.16 886.41,-2.65 896.09,-2.18 906.19,-1.75 916.69,-1.36 927.53,-1.03 938.69,-0.74 950.1,-0.49 961.74,-0.3 973.55,-0.15 985.48,-0.05 997.49,0 1009.52,0 1021.53,-0.05"/>
            <text text-anchor="middle" x="1003.51" y="-12.95" font-family="Times,serif" font-size="14.00">type: value,
                id: 18, type_name: DEC, value: 6
            </text>
        </g>
        <!-- type: expression, id: 19, oper_name: BIN_PLUS&#45;&gt;type: value, id: 18, type_name: DEC, value: 6 -->
        <g id="edge17" class="edge">
            <title>type: expression, id: 19, oper_name: BIN_PLUS&#45;&gt;type: value, id: 18, type_name: DEC, value: 6
            </title>
            <path fill="none" stroke="black" d="M945.54,-71.7C954.7,-63.37 965.86,-53.22 975.93,-44.07"/>
            <polygon fill="black" stroke="black" points="978.26,-46.68 983.3,-37.37 973.55,-41.5 978.26,-46.68"/>
        </g>
        <!-- type: assign, id: 14, oper_name: ASSIGMENT -->
        <g id="node20" class="node">
            <title>type: assign, id: 14, oper_name: ASSIGMENT</title>
            <polygon fill="pink" stroke="black"
                     points="1466.83,-144.05 1478.96,-144.15 1490.97,-144.3 1502.8,-144.49 1514.41,-144.74 1525.76,-145.03 1536.78,-145.36 1547.45,-145.75 1557.73,-146.18 1567.57,-146.65 1576.93,-147.16 1585.8,-147.71 1594.13,-148.31 1601.9,-148.94 1609.09,-149.61 1615.68,-150.31 1621.65,-151.04 1626.99,-151.8 1631.68,-152.59 1635.73,-153.41 1639.14,-154.25 1641.89,-155.11 1644,-155.99 1645.47,-156.89 1646.31,-157.8 1646.54,-158.72 1646.16,-159.65 1645.21,-160.59 1643.68,-161.53 1641.62,-162.47 1639.03,-163.41 1635.95,-164.35 1632.39,-165.28 1628.39,-166.2 1623.97,-167.11 1619.16,-168.01 1613.98,-168.89 1608.46,-169.75 1602.63,-170.59 1596.51,-171.41 1590.13,-172.2 1583.52,-172.96 1576.69,-173.69 1569.67,-174.39 1562.48,-175.06 1555.14,-175.69 1547.67,-176.29 1540.08,-176.84 1532.39,-177.35 1524.62,-177.82 1516.78,-178.25 1508.87,-178.64 1500.91,-178.97 1492.91,-179.26 1484.88,-179.51 1476.82,-179.7 1468.75,-179.85 1460.66,-179.95 1452.56,-180 1444.45,-180 1436.36,-179.95 1428.26,-179.85 1420.19,-179.7 1412.13,-179.51 1404.1,-179.26 1396.1,-178.97 1388.14,-178.64 1380.23,-178.25 1372.39,-177.82 1364.62,-177.35 1356.93,-176.84 1349.34,-176.29 1341.87,-175.69 1334.53,-175.06 1327.34,-174.39 1320.32,-173.69 1313.49,-172.96 1306.88,-172.2 1300.5,-171.41 1294.38,-170.59 1288.55,-169.75 1283.03,-168.89 1277.85,-168.01 1273.04,-167.11 1268.62,-166.2 1264.62,-165.28 1261.06,-164.35 1257.98,-163.41 1255.39,-162.47 1253.33,-161.53 1251.81,-160.59 1250.85,-159.65 1250.47,-158.72 1250.7,-157.8 1251.54,-156.89 1253.01,-155.99 1255.12,-155.11 1257.87,-154.25 1261.28,-153.41 1265.33,-152.59 1270.02,-151.8 1275.36,-151.04 1281.33,-150.31 1287.92,-149.61 1295.11,-148.94 1302.88,-148.31 1311.21,-147.71 1320.08,-147.16 1329.44,-146.65 1339.28,-146.18 1349.56,-145.75 1360.23,-145.36 1371.26,-145.03 1382.6,-144.74 1394.21,-144.49 1406.04,-144.3 1418.05,-144.15 1430.18,-144.05 1442.39,-144 1454.62,-144 1466.83,-144.05"/>
            <text text-anchor="middle" x="1448.51" y="-156.95" font-family="Times,serif" font-size="14.00">type: assign,
                id: 14, oper_name: ASSIGMENT
            </text>
        </g>
        <!-- type: loop, id: 15, loop_type: while&#45;&gt;type: assign, id: 14, oper_name: ASSIGMENT -->
        <g id="edge19" class="edge">
            <title>type: loop, id: 15, loop_type: while&#45;&gt;type: assign, id: 14, oper_name: ASSIGMENT</title>
            <path fill="none" stroke="black" d="M1448.51,-215.7C1448.51,-208.41 1448.51,-199.73 1448.51,-191.54"/>
            <polygon fill="black" stroke="black"
                     points="1452.01,-191.62 1448.51,-181.62 1445.01,-191.62 1452.01,-191.62"/>
        </g>
        <!-- type: expression, id: 9, oper_name: BIN_GREATER -->
        <g id="node25" class="node">
            <title>type: expression, id: 9, oper_name: BIN_GREATER</title>
            <polygon fill="pink" stroke="black"
                     points="2012.9,-144.05 2026.4,-144.15 2039.76,-144.3 2052.93,-144.49 2065.85,-144.74 2078.47,-145.03 2090.74,-145.36 2102.62,-145.75 2114.05,-146.18 2125,-146.65 2135.43,-147.16 2145.29,-147.71 2154.56,-148.31 2163.21,-148.94 2171.21,-149.61 2178.54,-150.31 2185.19,-151.04 2191.13,-151.8 2196.35,-152.59 2200.86,-153.41 2204.65,-154.25 2207.71,-155.11 2210.06,-155.99 2211.69,-156.89 2212.63,-157.8 2212.88,-158.72 2212.47,-159.65 2211.4,-160.59 2209.71,-161.53 2207.41,-162.47 2204.53,-163.41 2201.1,-164.35 2197.14,-165.28 2192.69,-166.2 2187.77,-167.11 2182.41,-168.01 2176.65,-168.89 2170.51,-169.75 2164.02,-170.59 2157.21,-171.41 2150.12,-172.2 2142.75,-172.96 2135.16,-173.69 2127.34,-174.39 2119.34,-175.06 2111.17,-175.69 2102.86,-176.29 2094.42,-176.84 2085.86,-177.35 2077.21,-177.82 2068.48,-178.25 2059.68,-178.64 2050.83,-178.97 2041.93,-179.26 2032.99,-179.51 2024.02,-179.7 2015.03,-179.85 2006.03,-179.95 1997.01,-180 1988,-180 1978.98,-179.95 1969.98,-179.85 1960.99,-179.7 1952.02,-179.51 1943.08,-179.26 1934.18,-178.97 1925.33,-178.64 1916.53,-178.25 1907.8,-177.82 1899.15,-177.35 1890.6,-176.84 1882.15,-176.29 1873.84,-175.69 1865.67,-175.06 1857.67,-174.39 1849.86,-173.69 1842.26,-172.96 1834.9,-172.2 1827.8,-171.41 1820.99,-170.59 1814.5,-169.75 1808.36,-168.89 1802.6,-168.01 1797.24,-167.11 1792.32,-166.2 1787.87,-165.28 1783.91,-164.35 1780.48,-163.41 1777.6,-162.47 1775.3,-161.53 1773.61,-160.59 1772.54,-159.65 1772.13,-158.72 1772.38,-157.8 1773.32,-156.89 1774.95,-155.99 1777.3,-155.11 1780.36,-154.25 1784.15,-153.41 1788.66,-152.59 1793.88,-151.8 1799.82,-151.04 1806.47,-150.31 1813.8,-149.61 1821.8,-148.94 1830.45,-148.31 1839.72,-147.71 1849.58,-147.16 1860.01,-146.65 1870.96,-146.18 1882.39,-145.75 1894.27,-145.36 1906.54,-145.03 1919.16,-144.74 1932.08,-144.49 1945.25,-144.3 1958.61,-144.15 1972.11,-144.05 1985.7,-144 1999.31,-144 2012.9,-144.05"/>
            <text text-anchor="middle" x="1992.51" y="-156.95" font-family="Times,serif" font-size="14.00">type:
                expression, id: 9, oper_name: BIN_GREATER
            </text>
        </g>
        <!-- type: loop, id: 15, loop_type: while&#45;&gt;type: expression, id: 9, oper_name: BIN_GREATER -->
        <g id="edge24" class="edge">
            <title>type: loop, id: 15, loop_type: while&#45;&gt;type: expression, id: 9, oper_name: BIN_GREATER</title>
            <path fill="none" stroke="black" d="M1554.69,-219.34C1646.2,-207.56 1778.21,-190.57 1873.32,-178.34"/>
            <polygon fill="black" stroke="black"
                     points="1873.76,-181.81 1883.23,-177.06 1872.87,-174.87 1873.76,-181.81"/>
        </g>
        <!-- type: identifier, id: 10, value: a -->
        <g id="node21" class="node">
            <title>type: identifier, id: 10, value: a</title>
            <polygon fill="pink" stroke="black"
                     points="1295.93,-72.05 1304.16,-72.15 1312.3,-72.3 1320.32,-72.49 1328.19,-72.74 1335.88,-73.03 1343.36,-73.36 1350.59,-73.75 1357.56,-74.18 1364.23,-74.65 1370.58,-75.16 1376.59,-75.71 1382.24,-76.31 1387.51,-76.94 1392.38,-77.61 1396.85,-78.31 1400.89,-79.04 1404.51,-79.8 1407.7,-80.59 1410.44,-81.41 1412.75,-82.25 1414.62,-83.11 1416.05,-83.99 1417.04,-84.89 1417.61,-85.8 1417.77,-86.72 1417.51,-87.65 1416.86,-88.59 1415.83,-89.53 1414.43,-90.47 1412.68,-91.41 1410.59,-92.35 1408.18,-93.28 1405.46,-94.2 1402.47,-95.11 1399.2,-96.01 1395.69,-96.89 1391.95,-97.75 1388,-98.59 1383.85,-99.41 1379.53,-100.2 1375.04,-100.96 1370.41,-101.69 1365.65,-102.39 1360.78,-103.06 1355.8,-103.69 1350.74,-104.29 1345.59,-104.84 1340.38,-105.35 1335.11,-105.82 1329.79,-106.25 1324.43,-106.64 1319.04,-106.97 1313.61,-107.26 1308.17,-107.51 1302.71,-107.7 1297.23,-107.85 1291.74,-107.95 1286.25,-108 1280.76,-108 1275.27,-107.95 1269.78,-107.85 1264.31,-107.7 1258.84,-107.51 1253.4,-107.26 1247.97,-106.97 1242.58,-106.64 1237.22,-106.25 1231.9,-105.82 1226.63,-105.35 1221.42,-104.84 1216.27,-104.29 1211.21,-103.69 1206.23,-103.06 1201.36,-102.39 1196.6,-101.69 1191.97,-100.96 1187.48,-100.2 1183.16,-99.41 1179.01,-98.59 1175.06,-97.75 1171.32,-96.89 1167.81,-96.01 1164.54,-95.11 1161.55,-94.2 1158.83,-93.28 1156.42,-92.35 1154.33,-91.41 1152.58,-90.47 1151.18,-89.53 1150.15,-88.59 1149.5,-87.65 1149.24,-86.72 1149.4,-85.8 1149.97,-84.89 1150.97,-83.99 1152.39,-83.11 1154.26,-82.25 1156.57,-81.41 1159.31,-80.59 1162.5,-79.8 1166.12,-79.04 1170.16,-78.31 1174.63,-77.61 1179.51,-76.94 1184.77,-76.31 1190.42,-75.71 1196.43,-75.16 1202.78,-74.65 1209.45,-74.18 1216.42,-73.75 1223.65,-73.36 1231.13,-73.03 1238.82,-72.74 1246.69,-72.49 1254.71,-72.3 1262.86,-72.15 1271.08,-72.05 1279.36,-72 1287.65,-72 1295.93,-72.05"/>
            <text text-anchor="middle" x="1283.51" y="-84.95" font-family="Times,serif" font-size="14.00">type:
                identifier, id: 10, value: a
            </text>
        </g>
        <!-- type: assign, id: 14, oper_name: ASSIGMENT&#45;&gt;type: identifier, id: 10, value: a -->
        <g id="edge20" class="edge">
            <title>type: assign, id: 14, oper_name: ASSIGMENT&#45;&gt;type: identifier, id: 10, value: a</title>
            <path fill="none" stroke="black" d="M1408.14,-143.88C1385.2,-134.14 1356.33,-121.89 1332.14,-111.63"/>
            <polygon fill="black" stroke="black"
                     points="1333.72,-108.5 1323.15,-107.82 1330.98,-114.94 1333.72,-108.5"/>
        </g>
        <!-- type: expression, id: 13, oper_name: BIN_PLUS -->
        <g id="node22" class="node">
            <title>type: expression, id: 13, oper_name: BIN_PLUS</title>
            <polygon fill="pink" stroke="black"
                     points="1659.49,-72.05 1672.05,-72.15 1684.49,-72.3 1696.75,-72.49 1708.77,-72.74 1720.52,-73.03 1731.94,-73.36 1742.99,-73.75 1753.64,-74.18 1763.83,-74.65 1773.53,-75.16 1782.71,-75.71 1791.34,-76.31 1799.39,-76.94 1806.84,-77.61 1813.66,-78.31 1819.84,-79.04 1825.37,-79.8 1830.24,-80.59 1834.43,-81.41 1837.96,-82.25 1840.81,-83.11 1842.99,-83.99 1844.52,-84.89 1845.39,-85.8 1845.62,-86.72 1845.24,-87.65 1844.24,-88.59 1842.67,-89.53 1840.53,-90.47 1837.85,-91.41 1834.65,-92.35 1830.97,-93.28 1826.83,-94.2 1822.25,-95.11 1817.26,-96.01 1811.9,-96.89 1806.18,-97.75 1800.14,-98.59 1793.81,-99.41 1787.2,-100.2 1780.35,-100.96 1773.28,-101.69 1766.01,-102.39 1758.56,-103.06 1750.96,-103.69 1743.22,-104.29 1735.36,-104.84 1727.4,-105.35 1719.35,-105.82 1711.22,-106.25 1703.03,-106.64 1694.79,-106.97 1686.5,-107.26 1678.18,-107.51 1669.84,-107.7 1661.47,-107.85 1653.09,-107.95 1644.7,-108 1636.31,-108 1627.92,-107.95 1619.54,-107.85 1611.17,-107.7 1602.83,-107.51 1594.51,-107.26 1586.22,-106.97 1577.98,-106.64 1569.79,-106.25 1561.67,-105.82 1553.61,-105.35 1545.65,-104.84 1537.79,-104.29 1530.05,-103.69 1522.45,-103.06 1515,-102.39 1507.73,-101.69 1500.66,-100.96 1493.81,-100.2 1487.2,-99.41 1480.87,-98.59 1474.83,-97.75 1469.11,-96.89 1463.75,-96.01 1458.76,-95.11 1454.18,-94.2 1450.04,-93.28 1446.36,-92.35 1443.16,-91.41 1440.48,-90.47 1438.34,-89.53 1436.77,-88.59 1435.78,-87.65 1435.39,-86.72 1435.62,-85.8 1436.49,-84.89 1438.02,-83.99 1440.2,-83.11 1443.05,-82.25 1446.58,-81.41 1450.77,-80.59 1455.64,-79.8 1461.17,-79.04 1467.35,-78.31 1474.17,-77.61 1481.62,-76.94 1489.67,-76.31 1498.3,-75.71 1507.48,-75.16 1517.18,-74.65 1527.37,-74.18 1538.02,-73.75 1549.07,-73.36 1560.49,-73.03 1572.24,-72.74 1584.26,-72.49 1596.52,-72.3 1608.96,-72.15 1621.52,-72.05 1634.17,-72 1646.84,-72 1659.49,-72.05"/>
            <text text-anchor="middle" x="1640.51" y="-84.95" font-family="Times,serif" font-size="14.00">type:
                expression, id: 13, oper_name: BIN_PLUS
            </text>
        </g>
        <!-- type: assign, id: 14, oper_name: ASSIGMENT&#45;&gt;type: expression, id: 13, oper_name: BIN_PLUS -->
        <g id="edge21" class="edge">
            <title>type: assign, id: 14, oper_name: ASSIGMENT&#45;&gt;type: expression, id: 13, oper_name: BIN_PLUS
            </title>
            <path fill="none" stroke="black" d="M1495.47,-143.88C1522.25,-134.11 1555.98,-121.82 1584.18,-111.54"/>
            <polygon fill="black" stroke="black"
                     points="1585.07,-114.94 1593.26,-108.22 1582.67,-108.36 1585.07,-114.94"/>
        </g>
        <!-- type: value, id: 11, type_name: DEC, value: 7 -->
        <g id="node23" class="node">
            <title>type: value, id: 11, type_name: DEC, value: 7</title>
            <polygon fill="pink" stroke="black"
                     points="1582.53,-0.05 1594.46,-0.15 1606.27,-0.3 1617.91,-0.49 1629.33,-0.74 1640.48,-1.03 1651.33,-1.36 1661.82,-1.75 1671.92,-2.18 1681.6,-2.65 1690.81,-3.16 1699.53,-3.71 1707.73,-4.31 1715.37,-4.94 1722.44,-5.61 1728.92,-6.31 1734.79,-7.04 1740.04,-7.8 1744.66,-8.59 1748.64,-9.41 1751.99,-10.25 1754.7,-11.11 1756.77,-11.99 1758.22,-12.89 1759.04,-13.8 1759.27,-14.72 1758.9,-15.65 1757.96,-16.59 1756.46,-17.53 1754.43,-18.47 1751.88,-19.41 1748.85,-20.35 1745.35,-21.28 1741.42,-22.2 1737.07,-23.11 1732.34,-24.01 1727.24,-24.89 1721.82,-25.75 1716.08,-26.59 1710.07,-27.41 1703.79,-28.2 1697.29,-28.96 1690.57,-29.69 1683.67,-30.39 1676.6,-31.06 1669.38,-31.69 1662.03,-32.29 1654.57,-32.84 1647.01,-33.35 1639.37,-33.82 1631.65,-34.25 1623.87,-34.64 1616.05,-34.97 1608.18,-35.26 1600.28,-35.51 1592.36,-35.7 1584.41,-35.85 1576.45,-35.95 1568.49,-36 1560.52,-36 1552.56,-35.95 1544.6,-35.85 1536.65,-35.7 1528.73,-35.51 1520.83,-35.26 1512.96,-34.97 1505.14,-34.64 1497.36,-34.25 1489.65,-33.82 1482,-33.35 1474.44,-32.84 1466.98,-32.29 1459.63,-31.69 1452.41,-31.06 1445.34,-30.39 1438.44,-29.69 1431.72,-28.96 1425.22,-28.2 1418.94,-27.41 1412.93,-26.59 1407.19,-25.75 1401.77,-24.89 1396.67,-24.01 1391.94,-23.11 1387.59,-22.2 1383.66,-21.28 1380.16,-20.35 1377.13,-19.41 1374.58,-18.47 1372.55,-17.53 1371.05,-16.59 1370.11,-15.65 1369.74,-14.72 1369.97,-13.8 1370.79,-12.89 1372.24,-11.99 1374.31,-11.11 1377.02,-10.25 1380.37,-9.41 1384.35,-8.59 1388.97,-7.8 1394.22,-7.04 1400.09,-6.31 1406.57,-5.61 1413.64,-4.94 1421.29,-4.31 1429.48,-3.71 1438.2,-3.16 1447.41,-2.65 1457.09,-2.18 1467.19,-1.75 1477.69,-1.36 1488.53,-1.03 1499.69,-0.74 1511.1,-0.49 1522.74,-0.3 1534.55,-0.15 1546.48,-0.05 1558.49,0 1570.52,0 1582.53,-0.05"/>
            <text text-anchor="middle" x="1564.51" y="-12.95" font-family="Times,serif" font-size="14.00">type: value,
                id: 11, type_name: DEC, value: 7
            </text>
        </g>
        <!-- type: expression, id: 13, oper_name: BIN_PLUS&#45;&gt;type: value, id: 11, type_name: DEC, value: 7 -->
        <g id="edge22" class="edge">
            <title>type: expression, id: 13, oper_name: BIN_PLUS&#45;&gt;type: value, id: 11, type_name: DEC, value: 7
            </title>
            <path fill="none" stroke="black" d="M1621.72,-71.7C1612.68,-63.37 1601.66,-53.22 1591.72,-44.07"/>
            <polygon fill="black" stroke="black" points="1594.18,-41.57 1584.45,-37.37 1589.44,-46.72 1594.18,-41.57"/>
        </g>
        <!-- type: identifier, id: 12, value: a -->
        <g id="node24" class="node">
            <title>type: identifier, id: 12, value: a</title>
            <polygon fill="pink" stroke="black"
                     points="1923.93,-0.05 1932.16,-0.15 1940.3,-0.3 1948.32,-0.49 1956.19,-0.74 1963.88,-1.03 1971.36,-1.36 1978.59,-1.75 1985.56,-2.18 1992.23,-2.65 1998.58,-3.16 2004.59,-3.71 2010.24,-4.31 2015.51,-4.94 2020.38,-5.61 2024.85,-6.31 2028.89,-7.04 2032.51,-7.8 2035.7,-8.59 2038.44,-9.41 2040.75,-10.25 2042.62,-11.11 2044.05,-11.99 2045.04,-12.89 2045.61,-13.8 2045.77,-14.72 2045.51,-15.65 2044.86,-16.59 2043.83,-17.53 2042.43,-18.47 2040.68,-19.41 2038.59,-20.35 2036.18,-21.28 2033.46,-22.2 2030.47,-23.11 2027.2,-24.01 2023.69,-24.89 2019.95,-25.75 2016,-26.59 2011.85,-27.41 2007.53,-28.2 2003.04,-28.96 1998.41,-29.69 1993.65,-30.39 1988.78,-31.06 1983.8,-31.69 1978.74,-32.29 1973.59,-32.84 1968.38,-33.35 1963.11,-33.82 1957.79,-34.25 1952.43,-34.64 1947.04,-34.97 1941.61,-35.26 1936.17,-35.51 1930.71,-35.7 1925.23,-35.85 1919.74,-35.95 1914.25,-36 1908.76,-36 1903.27,-35.95 1897.78,-35.85 1892.31,-35.7 1886.84,-35.51 1881.4,-35.26 1875.97,-34.97 1870.58,-34.64 1865.22,-34.25 1859.9,-33.82 1854.63,-33.35 1849.42,-32.84 1844.27,-32.29 1839.21,-31.69 1834.23,-31.06 1829.36,-30.39 1824.6,-29.69 1819.97,-28.96 1815.48,-28.2 1811.16,-27.41 1807.01,-26.59 1803.06,-25.75 1799.32,-24.89 1795.81,-24.01 1792.54,-23.11 1789.55,-22.2 1786.83,-21.28 1784.42,-20.35 1782.33,-19.41 1780.58,-18.47 1779.18,-17.53 1778.15,-16.59 1777.5,-15.65 1777.24,-14.72 1777.4,-13.8 1777.97,-12.89 1778.97,-11.99 1780.39,-11.11 1782.26,-10.25 1784.57,-9.41 1787.31,-8.59 1790.5,-7.8 1794.12,-7.04 1798.16,-6.31 1802.63,-5.61 1807.51,-4.94 1812.77,-4.31 1818.42,-3.71 1824.43,-3.16 1830.78,-2.65 1837.45,-2.18 1844.42,-1.75 1851.65,-1.36 1859.13,-1.03 1866.82,-0.74 1874.69,-0.49 1882.71,-0.3 1890.86,-0.15 1899.08,-0.05 1907.36,0 1915.65,0 1923.93,-0.05"/>
            <text text-anchor="middle" x="1911.51" y="-12.95" font-family="Times,serif" font-size="14.00">type:
                identifier, id: 12, value: a
            </text>
        </g>
        <!-- type: expression, id: 13, oper_name: BIN_PLUS&#45;&gt;type: identifier, id: 12, value: a -->
        <g id="edge23" class="edge">
            <title>type: expression, id: 13, oper_name: BIN_PLUS&#45;&gt;type: identifier, id: 12, value: a</title>
            <path fill="none" stroke="black" d="M1705.42,-72.23C1747.1,-61.47 1801.15,-47.5 1843.44,-36.58"/>
            <polygon fill="black" stroke="black" points="1844.21,-40 1853.02,-34.11 1842.46,-33.22 1844.21,-40"/>
        </g>
        <!-- type: identifier, id: 7, value: a -->
        <g id="node26" class="node">
            <title>type: identifier, id: 7, value: a</title>
            <polygon fill="pink" stroke="black"
                     points="2004.48,-72.05 2012.4,-72.15 2020.24,-72.3 2027.97,-72.49 2035.56,-72.74 2042.97,-73.03 2050.17,-73.36 2057.14,-73.75 2063.85,-74.18 2070.28,-74.65 2076.4,-75.16 2082.19,-75.71 2087.63,-76.31 2092.71,-76.94 2097.4,-77.61 2101.71,-78.31 2105.6,-79.04 2109.09,-79.8 2112.16,-80.59 2114.81,-81.41 2117.03,-82.25 2118.83,-83.11 2120.2,-83.99 2121.16,-84.89 2121.71,-85.8 2121.86,-86.72 2121.62,-87.65 2120.99,-88.59 2120,-89.53 2118.65,-90.47 2116.96,-91.41 2114.94,-92.35 2112.62,-93.28 2110.01,-94.2 2107.12,-95.11 2103.98,-96.01 2100.59,-96.89 2096.99,-97.75 2093.18,-98.59 2089.18,-99.41 2085.02,-100.2 2080.7,-100.96 2076.24,-101.69 2071.65,-102.39 2066.96,-103.06 2062.16,-103.69 2057.28,-104.29 2052.32,-104.84 2047.3,-105.35 2042.23,-105.82 2037.1,-106.25 2031.94,-106.64 2026.74,-106.97 2021.51,-107.26 2016.27,-107.51 2011,-107.7 2005.73,-107.85 2000.44,-107.95 1995.15,-108 1989.86,-108 1984.57,-107.95 1979.28,-107.85 1974.01,-107.7 1968.74,-107.51 1963.5,-107.26 1958.27,-106.97 1953.07,-106.64 1947.91,-106.25 1942.79,-105.82 1937.71,-105.35 1932.69,-104.84 1927.73,-104.29 1922.85,-103.69 1918.06,-103.06 1913.36,-102.39 1908.77,-101.69 1904.31,-100.96 1899.99,-100.2 1895.83,-99.41 1891.83,-98.59 1888.02,-97.75 1884.42,-96.89 1881.03,-96.01 1877.89,-95.11 1875,-94.2 1872.39,-93.28 1870.07,-92.35 1868.05,-91.41 1866.36,-90.47 1865.01,-89.53 1864.02,-88.59 1863.39,-87.65 1863.15,-86.72 1863.3,-85.8 1863.85,-84.89 1864.81,-83.99 1866.18,-83.11 1867.98,-82.25 1870.21,-81.41 1872.85,-80.59 1875.92,-79.8 1879.41,-79.04 1883.31,-78.31 1887.61,-77.61 1892.31,-76.94 1897.38,-76.31 1902.82,-75.71 1908.61,-75.16 1914.73,-74.65 1921.16,-74.18 1927.87,-73.75 1934.84,-73.36 1942.04,-73.03 1949.45,-72.74 1957.04,-72.49 1964.77,-72.3 1972.61,-72.15 1980.54,-72.05 1988.51,-72 1996.5,-72 2004.48,-72.05"/>
            <text text-anchor="middle" x="1992.51" y="-84.95" font-family="Times,serif" font-size="14.00">type:
                identifier, id: 7, value: a
            </text>
        </g>
        <!-- type: expression, id: 9, oper_name: BIN_GREATER&#45;&gt;type: identifier, id: 7, value: a -->
        <g id="edge25" class="edge">
            <title>type: expression, id: 9, oper_name: BIN_GREATER&#45;&gt;type: identifier, id: 7, value: a</title>
            <path fill="none" stroke="black" d="M1992.51,-143.7C1992.51,-136.41 1992.51,-127.73 1992.51,-119.54"/>
            <polygon fill="black" stroke="black"
                     points="1996.01,-119.62 1992.51,-109.62 1989.01,-119.62 1996.01,-119.62"/>
        </g>
        <!-- type: value, id: 8, type_name: DEC, value: 10 -->
        <g id="node27" class="node">
            <title>type: value, id: 8, type_name: DEC, value: 10</title>
            <polygon fill="pink" stroke="black"
                     points="2352.53,-72.05 2364.46,-72.15 2376.27,-72.3 2387.91,-72.49 2399.33,-72.74 2410.48,-73.03 2421.33,-73.36 2431.82,-73.75 2441.92,-74.18 2451.6,-74.65 2460.81,-75.16 2469.53,-75.71 2477.73,-76.31 2485.37,-76.94 2492.44,-77.61 2498.92,-78.31 2504.79,-79.04 2510.04,-79.8 2514.66,-80.59 2518.64,-81.41 2521.99,-82.25 2524.7,-83.11 2526.77,-83.99 2528.22,-84.89 2529.04,-85.8 2529.27,-86.72 2528.9,-87.65 2527.96,-88.59 2526.46,-89.53 2524.43,-90.47 2521.88,-91.41 2518.85,-92.35 2515.35,-93.28 2511.42,-94.2 2507.07,-95.11 2502.34,-96.01 2497.24,-96.89 2491.82,-97.75 2486.08,-98.59 2480.07,-99.41 2473.79,-100.2 2467.29,-100.96 2460.57,-101.69 2453.67,-102.39 2446.6,-103.06 2439.38,-103.69 2432.03,-104.29 2424.57,-104.84 2417.01,-105.35 2409.37,-105.82 2401.65,-106.25 2393.87,-106.64 2386.05,-106.97 2378.18,-107.26 2370.28,-107.51 2362.36,-107.7 2354.41,-107.85 2346.45,-107.95 2338.49,-108 2330.52,-108 2322.56,-107.95 2314.6,-107.85 2306.65,-107.7 2298.73,-107.51 2290.83,-107.26 2282.96,-106.97 2275.14,-106.64 2267.36,-106.25 2259.65,-105.82 2252,-105.35 2244.44,-104.84 2236.98,-104.29 2229.63,-103.69 2222.41,-103.06 2215.34,-102.39 2208.44,-101.69 2201.72,-100.96 2195.22,-100.2 2188.94,-99.41 2182.93,-98.59 2177.19,-97.75 2171.77,-96.89 2166.67,-96.01 2161.94,-95.11 2157.59,-94.2 2153.66,-93.28 2150.16,-92.35 2147.13,-91.41 2144.58,-90.47 2142.55,-89.53 2141.05,-88.59 2140.11,-87.65 2139.74,-86.72 2139.97,-85.8 2140.79,-84.89 2142.24,-83.99 2144.31,-83.11 2147.02,-82.25 2150.37,-81.41 2154.35,-80.59 2158.97,-79.8 2164.22,-79.04 2170.09,-78.31 2176.57,-77.61 2183.64,-76.94 2191.29,-76.31 2199.48,-75.71 2208.2,-75.16 2217.41,-74.65 2227.09,-74.18 2237.19,-73.75 2247.69,-73.36 2258.53,-73.03 2269.69,-72.74 2281.1,-72.49 2292.74,-72.3 2304.55,-72.15 2316.48,-72.05 2328.49,-72 2340.52,-72 2352.53,-72.05"/>
            <text text-anchor="middle" x="2334.51" y="-84.95" font-family="Times,serif" font-size="14.00">type: value,
                id: 8, type_name: DEC, value: 10
            </text>
        </g>
        <!-- type: expression, id: 9, oper_name: BIN_GREATER&#45;&gt;type: value, id: 8, type_name: DEC, value: 10 -->
        <g id="edge26" class="edge">
            <title>type: expression, id: 9, oper_name: BIN_GREATER&#45;&gt;type: value, id: 8, type_name: DEC, value:
                10
            </title>
            <path fill="none" stroke="black" d="M2073.12,-144.5C2125.85,-133.71 2194.67,-119.62 2248.46,-108.61"/>
            <polygon fill="black" stroke="black"
                     points="2249.12,-112.05 2258.21,-106.62 2247.71,-105.19 2249.12,-112.05"/>
        </g>
    </g>
</svg>
