<?xml version="1.0" encoding="UTF-8" standalone="no"?>
<!DOCTYPE svg PUBLIC "-//W3C//DTD SVG 1.1//EN"
        "http://www.w3.org/Graphics/SVG/1.1/DTD/svg11.dtd">
<!-- Generated by graphviz version 9.0.0 (20230911.1827)
 -->
<!-- Title: G Pages: 1 -->
<svg width="1156pt"
     height="188pt" viewBox="0.00 0.00 1156.03 188.00" xmlns="http://www.w3.org/2000/svg">
    <g id="graph0" class="graph" transform="scale(1 1) rotate(0) translate(4 184)">
        <title>G</title>
        <polygon fill="white" stroke="none" points="-4,4 -4,-184 1152.03,-184 1152.03,4 -4,4"/>
        <!-- value: start, id: 0, operation:  -->
        <g id="node1" class="node">
            <title>value: start, id: 0, operation:</title>
            <polygon fill="aquamarine" stroke="black"
                     points="294.23,-144.05 301.99,-144.15 309.67,-144.3 317.24,-144.49 324.66,-144.74 331.91,-145.03 338.96,-145.36 345.79,-145.75 352.36,-146.18 358.65,-146.65 364.64,-147.16 370.31,-147.71 375.63,-148.31 380.6,-148.94 385.2,-149.61 389.41,-150.31 393.23,-151.04 396.64,-151.8 399.65,-152.59 402.24,-153.41 404.41,-154.25 406.17,-155.11 407.52,-155.99 408.46,-156.89 409,-157.8 409.15,-158.72 408.91,-159.65 408.29,-160.59 407.32,-161.53 406,-162.47 404.35,-163.41 402.37,-164.35 400.1,-165.28 397.54,-166.2 394.71,-167.11 391.64,-168.01 388.32,-168.89 384.8,-169.75 381.07,-170.59 377.16,-171.41 373.08,-172.2 368.85,-172.96 364.48,-173.69 359.99,-174.39 355.4,-175.06 350.7,-175.69 345.92,-176.29 341.07,-176.84 336.16,-177.35 331.19,-177.82 326.17,-178.25 321.11,-178.64 316.03,-178.97 310.91,-179.26 305.78,-179.51 300.62,-179.7 295.46,-179.85 290.28,-179.95 285.1,-180 279.92,-180 274.74,-179.95 269.57,-179.85 264.41,-179.7 259.25,-179.51 254.12,-179.26 249,-178.97 243.91,-178.64 238.86,-178.25 233.84,-177.82 228.87,-177.35 223.96,-176.84 219.1,-176.29 214.33,-175.69 209.63,-175.06 205.03,-174.39 200.55,-173.69 196.18,-172.96 191.95,-172.2 187.87,-171.41 183.96,-170.59 180.23,-169.75 176.7,-168.89 173.39,-168.01 170.31,-167.11 167.49,-166.2 164.93,-165.28 162.65,-164.35 160.68,-163.41 159.03,-162.47 157.71,-161.53 156.73,-160.59 156.12,-159.65 155.88,-158.72 156.03,-157.8 156.57,-156.89 157.51,-155.99 158.85,-155.11 160.62,-154.25 162.79,-153.41 165.38,-152.59 168.38,-151.8 171.8,-151.04 175.61,-150.31 179.83,-149.61 184.42,-148.94 189.39,-148.31 194.72,-147.71 200.39,-147.16 206.38,-146.65 212.67,-146.18 219.24,-145.75 226.06,-145.36 233.12,-145.03 240.37,-144.74 247.79,-144.49 255.36,-144.3 263.04,-144.15 270.8,-144.05 278.6,-144 286.43,-144 294.23,-144.05"/>
            <text text-anchor="middle" x="282.51" y="-156.95" font-family="Times,serif" font-size="14.00">value: start,
                id: 0, operation:
            </text>
        </g>
        <!-- value: while, id: 1, operation: a READ &#160;BIN_GREATER 10 -->
        <g id="node2" class="node">
            <title>value: while, id: 1, operation: a READ &#160;BIN_GREATER 10</title>
            <polygon fill="aquamarine" stroke="black"
                     points="305.58,-72.05 320.85,-72.15 335.97,-72.3 350.86,-72.49 365.47,-72.74 379.75,-73.03 393.63,-73.36 407.06,-73.75 419.99,-74.18 432.38,-74.65 444.17,-75.16 455.33,-75.71 465.81,-76.31 475.6,-76.94 484.65,-77.61 492.94,-78.31 500.45,-79.04 507.17,-79.8 513.08,-80.59 518.18,-81.41 522.46,-82.25 525.93,-83.11 528.58,-83.99 530.43,-84.89 531.5,-85.8 531.78,-86.72 531.31,-87.65 530.1,-88.59 528.19,-89.53 525.59,-90.47 522.33,-91.41 518.45,-92.35 513.97,-93.28 508.94,-94.2 503.37,-95.11 497.31,-96.01 490.8,-96.89 483.85,-97.75 476.51,-98.59 468.81,-99.41 460.78,-100.2 452.46,-100.96 443.86,-101.69 435.03,-102.39 425.98,-103.06 416.74,-103.69 407.33,-104.29 397.78,-104.84 388.11,-105.35 378.32,-105.82 368.45,-106.25 358.5,-106.64 348.48,-106.97 338.41,-107.26 328.3,-107.51 318.16,-107.7 307.99,-107.85 297.81,-107.95 287.61,-108 277.42,-108 267.22,-107.95 257.04,-107.85 246.87,-107.7 236.73,-107.51 226.62,-107.26 216.55,-106.97 206.53,-106.64 196.58,-106.25 186.7,-105.82 176.92,-105.35 167.25,-104.84 157.7,-104.29 148.29,-103.69 139.05,-103.06 130,-102.39 121.17,-101.69 112.57,-100.96 104.24,-100.2 96.22,-99.41 88.52,-98.59 81.18,-97.75 74.23,-96.89 67.71,-96.01 61.65,-95.11 56.09,-94.2 51.05,-93.28 46.58,-92.35 42.7,-91.41 39.44,-90.47 36.84,-89.53 34.92,-88.59 33.72,-87.65 33.25,-86.72 33.53,-85.8 34.59,-84.89 36.44,-83.99 39.1,-83.11 42.56,-82.25 46.85,-81.41 51.94,-80.59 57.86,-79.8 64.58,-79.04 72.09,-78.31 80.38,-77.61 89.43,-76.94 99.21,-76.31 109.7,-75.71 120.86,-75.16 132.65,-74.65 145.03,-74.18 157.97,-73.75 171.4,-73.36 185.28,-73.03 199.55,-72.74 214.17,-72.49 229.06,-72.3 244.18,-72.15 259.45,-72.05 274.81,-72 290.21,-72 305.58,-72.05"/>
            <text text-anchor="middle" x="282.51" y="-84.95" font-family="Times,serif" font-size="14.00">value: while,
                id: 1, operation: a READ &#160;BIN_GREATER 10
            </text>
        </g>
        <!-- value: start, id: 0, operation: &#45;&gt;value: while, id: 1, operation: a READ &#160;BIN_GREATER 10 -->
        <g id="edge1" class="edge">
            <title>value: start, id: 0, operation: &#45;&gt;value: while, id: 1, operation: a READ &#160;BIN_GREATER
                10
            </title>
            <path fill="none" stroke="black" d="M282.51,-143.7C282.51,-136.41 282.51,-127.73 282.51,-119.54"/>
            <polygon fill="black" stroke="black" points="286.01,-119.62 282.51,-109.62 279.01,-119.62 286.01,-119.62"/>
        </g>
        <!-- value: assigment, id: 2, operation: a WRITE 7 BIN_PLUS a READ  -->
        <g id="node3" class="node">
            <title>value: assigment, id: 2, operation: a WRITE 7 BIN_PLUS a READ</title>
            <polygon fill="aquamarine" stroke="black"
                     points="308.66,-0.05 325.97,-0.15 343.1,-0.3 359.98,-0.49 376.54,-0.74 392.72,-1.03 408.45,-1.36 423.68,-1.75 438.33,-2.18 452.37,-2.65 465.73,-3.16 478.38,-3.71 490.26,-4.31 501.35,-4.94 511.61,-5.61 521.01,-6.31 529.52,-7.04 537.14,-7.8 543.84,-8.59 549.62,-9.41 554.47,-10.25 558.4,-11.11 561.41,-11.99 563.5,-12.89 564.7,-13.8 565.03,-14.72 564.49,-15.65 563.13,-16.59 560.96,-17.53 558.01,-18.47 554.32,-19.41 549.92,-20.35 544.85,-21.28 539.14,-22.2 532.83,-23.11 525.97,-24.01 518.58,-24.89 510.7,-25.75 502.39,-26.59 493.66,-27.41 484.56,-28.2 475.13,-28.96 465.38,-29.69 455.37,-30.39 445.11,-31.06 434.64,-31.69 423.98,-32.29 413.16,-32.84 402.19,-33.35 391.1,-33.82 379.91,-34.25 368.63,-34.64 357.28,-34.97 345.87,-35.26 334.41,-35.51 322.91,-35.7 311.39,-35.85 299.85,-35.95 288.29,-36 276.74,-36 265.18,-35.95 253.64,-35.85 242.11,-35.7 230.62,-35.51 219.16,-35.26 207.75,-34.97 196.4,-34.64 185.12,-34.25 173.93,-33.82 162.84,-33.35 151.87,-32.84 141.05,-32.29 130.39,-31.69 119.92,-31.06 109.66,-30.39 99.64,-29.69 89.9,-28.96 80.47,-28.2 71.37,-27.41 62.64,-26.59 54.32,-25.75 46.45,-24.89 39.06,-24.01 32.2,-23.11 25.89,-22.2 20.18,-21.28 15.11,-20.35 10.71,-19.41 7.02,-18.47 4.07,-17.53 1.9,-16.59 0.53,-15.65 0,-14.72 0.32,-13.8 1.53,-12.89 3.62,-11.99 6.63,-11.11 10.56,-10.25 15.41,-9.41 21.19,-8.59 27.89,-7.8 35.51,-7.04 44.02,-6.31 53.42,-5.61 63.68,-4.94 74.77,-4.31 86.65,-3.71 99.3,-3.16 112.66,-2.65 126.7,-2.18 141.35,-1.75 156.58,-1.36 172.31,-1.03 188.49,-0.74 205.05,-0.49 221.93,-0.3 239.06,-0.15 256.37,-0.05 273.79,0 291.24,0 308.66,-0.05"/>
            <text text-anchor="middle" x="282.51" y="-12.95" font-family="Times,serif" font-size="14.00">value:
                assigment, id: 2, operation: a WRITE 7 BIN_PLUS a READ
            </text>
        </g>
        <!-- value: while, id: 1, operation: a READ &#160;BIN_GREATER 10&#45;&gt;value: assigment, id: 2, operation: a WRITE 7 BIN_PLUS a READ  -->
        <g id="edge2" class="edge">
            <title>value: while, id: 1, operation: a READ &#160;BIN_GREATER 10&#45;&gt;value: assigment, id: 2,
                operation: a WRITE 7 BIN_PLUS a READ
            </title>
            <path fill="none" stroke="black" d="M276.6,-71.7C275.85,-64.41 275.6,-55.73 275.87,-47.54"/>
            <polygon fill="black" stroke="black" points="279.36,-47.82 276.52,-37.61 272.37,-47.36 279.36,-47.82"/>
        </g>
        <!-- value: assigment, id: 4, operation: a WRITE a READ &#160;BIN_PLUS 6 -->
        <g id="node4" class="node">
            <title>value: assigment, id: 4, operation: a WRITE a READ &#160;BIN_PLUS 6</title>
            <polygon fill="aquamarine" stroke="black"
                     points="891.66,-0.05 908.97,-0.15 926.1,-0.3 942.98,-0.49 959.54,-0.74 975.72,-1.03 991.45,-1.36 1006.68,-1.75 1021.33,-2.18 1035.37,-2.65 1048.73,-3.16 1061.38,-3.71 1073.26,-4.31 1084.35,-4.94 1094.61,-5.61 1104.01,-6.31 1112.52,-7.04 1120.14,-7.8 1126.84,-8.59 1132.62,-9.41 1137.47,-10.25 1141.4,-11.11 1144.41,-11.99 1146.5,-12.89 1147.7,-13.8 1148.03,-14.72 1147.49,-15.65 1146.13,-16.59 1143.96,-17.53 1141.01,-18.47 1137.32,-19.41 1132.92,-20.35 1127.85,-21.28 1122.14,-22.2 1115.83,-23.11 1108.97,-24.01 1101.58,-24.89 1093.7,-25.75 1085.39,-26.59 1076.66,-27.41 1067.56,-28.2 1058.13,-28.96 1048.38,-29.69 1038.37,-30.39 1028.11,-31.06 1017.64,-31.69 1006.98,-32.29 996.16,-32.84 985.19,-33.35 974.1,-33.82 962.91,-34.25 951.63,-34.64 940.28,-34.97 928.87,-35.26 917.41,-35.51 905.91,-35.7 894.39,-35.85 882.85,-35.95 871.29,-36 859.74,-36 848.18,-35.95 836.64,-35.85 825.11,-35.7 813.62,-35.51 802.16,-35.26 790.75,-34.97 779.4,-34.64 768.12,-34.25 756.93,-33.82 745.84,-33.35 734.87,-32.84 724.05,-32.29 713.39,-31.69 702.92,-31.06 692.66,-30.39 682.64,-29.69 672.9,-28.96 663.47,-28.2 654.37,-27.41 645.64,-26.59 637.32,-25.75 629.45,-24.89 622.06,-24.01 615.2,-23.11 608.89,-22.2 603.18,-21.28 598.11,-20.35 593.71,-19.41 590.02,-18.47 587.07,-17.53 584.9,-16.59 583.53,-15.65 583,-14.72 583.32,-13.8 584.53,-12.89 586.62,-11.99 589.63,-11.11 593.56,-10.25 598.41,-9.41 604.19,-8.59 610.89,-7.8 618.51,-7.04 627.02,-6.31 636.42,-5.61 646.68,-4.94 657.77,-4.31 669.65,-3.71 682.3,-3.16 695.66,-2.65 709.7,-2.18 724.35,-1.75 739.58,-1.36 755.31,-1.03 771.49,-0.74 788.05,-0.49 804.93,-0.3 822.06,-0.15 839.37,-0.05 856.79,0 874.24,0 891.66,-0.05"/>
            <text text-anchor="middle" x="865.51" y="-12.95" font-family="Times,serif" font-size="14.00">value:
                assigment, id: 4, operation: a WRITE a READ &#160;BIN_PLUS 6
            </text>
        </g>
        <!-- value: while, id: 1, operation: a READ &#160;BIN_GREATER 10&#45;&gt;value: assigment, id: 4, operation: a WRITE a READ &#160;BIN_PLUS 6 -->
        <g id="edge4" class="edge">
            <title>value: while, id: 1, operation: a READ &#160;BIN_GREATER 10&#45;&gt;value: assigment, id: 4,
                operation: a WRITE a READ &#160;BIN_PLUS 6
            </title>
            <path fill="none" stroke="black" d="M412.26,-73.42C507.31,-62.01 635.94,-46.57 731.88,-35.04"/>
            <polygon fill="black" stroke="black" points="732.11,-38.54 741.62,-33.88 731.27,-31.59 732.11,-38.54"/>
        </g>
        <!-- value: assigment, id: 2, operation: a WRITE 7 BIN_PLUS a READ &#45;&gt;value: while, id: 1, operation: a READ &#160;BIN_GREATER 10 -->
        <g id="edge3" class="edge">
            <title>value: assigment, id: 2, operation: a WRITE 7 BIN_PLUS a READ &#45;&gt;value: while, id: 1,
                operation: a READ &#160;BIN_GREATER 10
            </title>
            <path fill="none" stroke="black" d="M288.41,-36.1C289.17,-43.37 289.42,-52.04 289.17,-60.24"/>
            <polygon fill="black" stroke="black" points="285.68,-59.98 288.53,-70.19 292.66,-60.43 285.68,-59.98"/>
        </g>
    </g>
</svg>
