<?xml version="1.0" encoding="UTF-8" standalone="no"?>
<!DOCTYPE svg PUBLIC "-//W3C//DTD SVG 1.1//EN"
        "http://www.w3.org/Graphics/SVG/1.1/DTD/svg11.dtd">
<!-- Generated by graphviz version 9.0.0 (20230911.1827)
 -->
<!-- Title: G Pages: 1 -->
<svg width="1459pt"
     height="548pt" viewBox="0.00 0.00 1458.71 548.00" xmlns="http://www.w3.org/2000/svg">
    <g id="graph0" class="graph" transform="scale(1 1) rotate(0) translate(4 544)">
        <title>G</title>
        <polygon fill="white" stroke="none" points="-4,4 -4,-544 1454.71,-544 1454.71,4 -4,4"/>
        <!-- value: start, id: 0, ot:  -->
        <g id="node1" class="node">
            <title>value: start, id: 0, ot:</title>
            <polygon fill="aquamarine" stroke="black"
                     points="519.9,-504.05 525.85,-504.15 531.74,-504.3 537.55,-504.49 543.25,-504.74 548.82,-505.03 554.23,-505.36 559.47,-505.75 564.51,-506.18 569.34,-506.65 573.94,-507.16 578.29,-507.71 582.38,-508.31 586.19,-508.94 589.72,-509.61 592.95,-510.31 595.88,-511.04 598.5,-511.8 600.81,-512.59 602.8,-513.41 604.47,-514.25 605.82,-515.11 606.85,-515.99 607.58,-516.89 607.99,-517.8 608.1,-518.72 607.92,-519.65 607.45,-520.59 606.7,-521.53 605.69,-522.47 604.42,-523.41 602.9,-524.35 601.16,-525.28 599.19,-526.2 597.02,-527.11 594.66,-528.01 592.12,-528.89 589.41,-529.75 586.55,-530.59 583.55,-531.41 580.42,-532.2 577.17,-532.96 573.82,-533.69 570.37,-534.39 566.84,-535.06 563.24,-535.69 559.57,-536.29 555.85,-536.84 552.08,-537.35 548.26,-537.82 544.41,-538.25 540.53,-538.64 536.62,-538.97 532.7,-539.26 528.76,-539.51 524.8,-539.7 520.84,-539.85 516.87,-539.95 512.89,-540 508.91,-540 504.94,-539.95 500.97,-539.85 497,-539.7 493.05,-539.51 489.1,-539.26 485.18,-538.97 481.27,-538.64 477.39,-538.25 473.54,-537.82 469.73,-537.35 465.95,-536.84 462.23,-536.29 458.56,-535.69 454.96,-535.06 451.43,-534.39 447.99,-533.69 444.63,-532.96 441.39,-532.2 438.26,-531.41 435.25,-530.59 432.39,-529.75 429.68,-528.89 427.14,-528.01 424.78,-527.11 422.61,-526.2 420.65,-525.28 418.9,-524.35 417.39,-523.41 416.12,-522.47 415.1,-521.53 414.36,-520.59 413.89,-519.65 413.7,-518.72 413.81,-517.8 414.23,-516.89 414.95,-515.99 415.98,-515.11 417.34,-514.25 419,-513.41 420.99,-512.59 423.3,-511.8 425.92,-511.04 428.85,-510.31 432.08,-509.61 435.61,-508.94 439.43,-508.31 443.51,-507.71 447.87,-507.16 452.46,-506.65 457.29,-506.18 462.33,-505.75 467.57,-505.36 472.99,-505.03 478.55,-504.74 484.25,-504.49 490.06,-504.3 495.95,-504.15 501.91,-504.05 507.9,-504 513.9,-504 519.9,-504.05"/>
            <text text-anchor="middle" x="510.9" y="-516.95" font-family="Times,serif" font-size="14.00">value: start,
                id: 0, ot:
            </text>
        </g>
        <!-- value: assigment, id: 1, ot: a WRITE a READ &#160;BIN_PLUS 6 -->
        <g id="node2" class="node">
            <title>value: assigment, id: 1, ot: a WRITE a READ &#160;BIN_PLUS 6</title>
            <polygon fill="aquamarine" stroke="black"
                     points="534.32,-432.05 549.83,-432.15 565.17,-432.3 580.29,-432.49 595.13,-432.74 609.63,-433.03 623.72,-433.36 637.36,-433.75 650.49,-434.18 663.06,-434.65 675.03,-435.16 686.36,-435.71 697.01,-436.31 706.94,-436.94 716.13,-437.61 724.55,-438.31 732.18,-439.04 739,-439.8 745,-440.59 750.18,-441.41 754.52,-442.25 758.04,-443.11 760.74,-443.99 762.62,-444.89 763.69,-445.8 763.98,-446.72 763.51,-447.65 762.28,-448.59 760.34,-449.53 757.69,-450.47 754.39,-451.41 750.45,-452.35 745.9,-453.28 740.79,-454.2 735.14,-455.11 728.99,-456.01 722.37,-456.89 715.32,-457.75 707.87,-458.59 700.05,-459.41 691.9,-460.2 683.45,-460.96 674.72,-461.69 665.75,-462.39 656.56,-463.06 647.18,-463.69 637.63,-464.29 627.93,-464.84 618.11,-465.35 608.18,-465.82 598.15,-466.25 588.05,-466.64 577.88,-466.97 567.66,-467.26 557.39,-467.51 547.09,-467.7 536.77,-467.85 526.43,-467.95 516.08,-468 505.72,-468 495.37,-467.95 485.03,-467.85 474.71,-467.7 464.41,-467.51 454.15,-467.26 443.93,-466.97 433.76,-466.64 423.65,-466.25 413.63,-465.82 403.69,-465.35 393.87,-464.84 384.17,-464.29 374.62,-463.69 365.24,-463.06 356.05,-462.39 347.08,-461.69 338.36,-460.96 329.9,-460.2 321.75,-459.41 313.94,-458.59 306.48,-457.75 299.43,-456.89 292.81,-456.01 286.66,-455.11 281.01,-454.2 275.9,-453.28 271.35,-452.35 267.41,-451.41 264.11,-450.47 261.47,-449.53 259.52,-448.59 258.3,-447.65 257.82,-446.72 258.11,-445.8 259.19,-444.89 261.07,-443.99 263.76,-443.11 267.28,-442.25 271.63,-441.41 276.8,-440.59 282.81,-439.8 289.63,-439.04 297.26,-438.31 305.68,-437.61 314.86,-436.94 324.8,-436.31 335.44,-435.71 346.77,-435.16 358.74,-434.65 371.32,-434.18 384.45,-433.75 398.08,-433.36 412.18,-433.03 426.67,-432.74 441.51,-432.49 456.63,-432.3 471.98,-432.15 487.48,-432.05 503.08,-432 518.72,-432 534.32,-432.05"/>
            <text text-anchor="middle" x="510.9" y="-444.95" font-family="Times,serif" font-size="14.00">value:
                assigment, id: 1, ot: a WRITE a READ &#160;BIN_PLUS 6
            </text>
        </g>
        <!-- value: start, id: 0, ot: &#45;&gt;value: assigment, id: 1, ot: a WRITE a READ &#160;BIN_PLUS 6 -->
        <g id="edge1" class="edge">
            <title>value: start, id: 0, ot: &#45;&gt;value: assigment, id: 1, ot: a WRITE a READ &#160;BIN_PLUS 6
            </title>
            <path fill="none" stroke="black" d="M510.9,-503.7C510.9,-496.41 510.9,-487.73 510.9,-479.54"/>
            <polygon fill="black" stroke="black" points="514.4,-479.62 510.9,-469.62 507.4,-479.62 514.4,-479.62"/>
        </g>
        <!-- value: if, id: 2, ot: a READ &#160;BIN_GREATER 10 -->
        <g id="node3" class="node">
            <title>value: if, id: 2, ot: a READ &#160;BIN_GREATER 10</title>
            <polygon fill="aquamarine" stroke="black"
                     points="529.78,-360.05 542.28,-360.15 554.65,-360.3 566.84,-360.49 578.81,-360.74 590.49,-361.03 601.85,-361.36 612.85,-361.75 623.43,-362.18 633.57,-362.65 643.22,-363.16 652.35,-363.71 660.93,-364.31 668.94,-364.94 676.35,-365.61 683.14,-366.31 689.29,-367.04 694.79,-367.8 699.63,-368.59 703.8,-369.41 707.3,-370.25 710.14,-371.11 712.31,-371.99 713.83,-372.89 714.7,-373.8 714.93,-374.72 714.54,-375.65 713.56,-376.59 711.99,-377.53 709.86,-378.47 707.19,-379.41 704.02,-380.35 700.35,-381.28 696.23,-382.2 691.68,-383.11 686.72,-384.01 681.38,-384.89 675.7,-385.75 669.69,-386.59 663.39,-387.41 656.82,-388.2 650,-388.96 642.97,-389.69 635.74,-390.39 628.33,-391.06 620.77,-391.69 613.07,-392.29 605.25,-392.84 597.33,-393.35 589.32,-393.82 581.24,-394.25 573.09,-394.64 564.9,-394.97 556.66,-395.26 548.38,-395.51 540.08,-395.7 531.76,-395.85 523.42,-395.95 515.08,-396 506.73,-396 498.38,-395.95 490.05,-395.85 481.73,-395.7 473.42,-395.51 465.15,-395.26 456.91,-394.97 448.71,-394.64 440.56,-394.25 432.48,-393.82 424.47,-393.35 416.55,-392.84 408.74,-392.29 401.04,-391.69 393.47,-391.06 386.07,-390.39 378.84,-389.69 371.8,-388.96 364.99,-388.2 358.41,-387.41 352.11,-386.59 346.11,-385.75 340.42,-384.89 335.08,-384.01 330.13,-383.11 325.57,-382.2 321.45,-381.28 317.79,-380.35 314.61,-379.41 311.94,-378.47 309.81,-377.53 308.25,-376.59 307.26,-375.65 306.87,-374.72 307.11,-373.8 307.98,-372.89 309.49,-371.99 311.66,-371.11 314.5,-370.25 318,-369.41 322.18,-368.59 327.02,-367.8 332.52,-367.04 338.67,-366.31 345.45,-365.61 352.86,-364.94 360.87,-364.31 369.45,-363.71 378.58,-363.16 388.24,-362.65 398.37,-362.18 408.96,-361.75 419.95,-361.36 431.31,-361.03 443,-360.74 454.96,-360.49 467.15,-360.3 479.52,-360.15 492.02,-360.05 504.6,-360 517.2,-360 529.78,-360.05"/>
            <text text-anchor="middle" x="510.9" y="-372.95" font-family="Times,serif" font-size="14.00">value: if, id:
                2, ot: a READ &#160;BIN_GREATER 10
            </text>
        </g>
        <!-- value: assigment, id: 1, ot: a WRITE a READ &#160;BIN_PLUS 6&#45;&gt;value: if, id: 2, ot: a READ &#160;BIN_GREATER 10 -->
        <g id="edge2" class="edge">
            <title>value: assigment, id: 1, ot: a WRITE a READ &#160;BIN_PLUS 6&#45;&gt;value: if, id: 2, ot: a READ
                &#160;BIN_GREATER 10
            </title>
            <path fill="none" stroke="black" d="M510.9,-431.7C510.9,-424.41 510.9,-415.73 510.9,-407.54"/>
            <polygon fill="black" stroke="black" points="514.4,-407.62 510.9,-397.62 507.4,-407.62 514.4,-407.62"/>
        </g>
        <!-- value: assigment, id: 3, ot: a WRITE a READ &#160;BIN_MUL 2 -->
        <g id="node4" class="node">
            <title>value: assigment, id: 3, ot: a WRITE a READ &#160;BIN_MUL 2</title>
            <polygon fill="aquamarine" stroke="black"
                     points="274.12,-288.05 289.49,-288.15 304.7,-288.3 319.7,-288.49 334.41,-288.74 348.78,-289.03 362.75,-289.36 376.27,-289.75 389.28,-290.18 401.75,-290.65 413.62,-291.16 424.85,-291.71 435.4,-292.31 445.25,-292.94 454.36,-293.61 462.71,-294.31 470.27,-295.04 477.03,-295.8 482.98,-296.59 488.12,-297.41 492.43,-298.25 495.91,-299.11 498.59,-299.99 500.45,-300.89 501.52,-301.8 501.8,-302.72 501.33,-303.65 500.12,-304.59 498.19,-305.53 495.57,-306.47 492.29,-307.41 488.38,-308.35 483.88,-309.28 478.81,-310.2 473.21,-311.11 467.11,-312.01 460.55,-312.89 453.56,-313.75 446.17,-314.59 438.42,-315.41 430.34,-316.2 421.96,-316.96 413.31,-317.69 404.42,-318.39 395.31,-319.06 386.01,-319.69 376.54,-320.29 366.93,-320.84 357.19,-321.35 347.34,-321.82 337.4,-322.25 327.38,-322.64 317.3,-322.97 307.17,-323.26 296.99,-323.51 286.78,-323.7 276.55,-323.85 266.3,-323.95 256.03,-324 245.77,-324 235.51,-323.95 225.26,-323.85 215.02,-323.7 204.81,-323.51 194.64,-323.26 184.5,-322.97 174.42,-322.64 164.4,-322.25 154.46,-321.82 144.62,-321.35 134.88,-320.84 125.26,-320.29 115.8,-319.69 106.5,-319.06 97.39,-318.39 88.49,-317.69 79.84,-316.96 71.46,-316.2 63.38,-315.41 55.63,-314.59 48.24,-313.75 41.25,-312.89 34.69,-312.01 28.59,-311.11 22.99,-310.2 17.92,-309.28 13.42,-308.35 9.51,-307.41 6.23,-306.47 3.62,-305.53 1.69,-304.59 0.47,-303.65 0,-302.72 0.29,-301.8 1.35,-300.89 3.22,-299.99 5.89,-299.11 9.38,-298.25 13.69,-297.41 18.82,-296.59 24.77,-295.8 31.53,-295.04 39.1,-294.31 47.44,-293.61 56.55,-292.94 66.4,-292.31 76.96,-291.71 88.19,-291.16 100.05,-290.65 112.52,-290.18 125.54,-289.75 139.06,-289.36 153.03,-289.03 167.4,-288.74 182.11,-288.49 197.1,-288.3 212.31,-288.15 227.68,-288.05 243.15,-288 258.65,-288 274.12,-288.05"/>
            <text text-anchor="middle" x="250.9" y="-300.95" font-family="Times,serif" font-size="14.00">value:
                assigment, id: 3, ot: a WRITE a READ &#160;BIN_MUL 2
            </text>
        </g>
        <!-- value: if, id: 2, ot: a READ &#160;BIN_GREATER 10&#45;&gt;value: assigment, id: 3, ot: a WRITE a READ &#160;BIN_MUL 2 -->
        <g id="edge3" class="edge">
            <title>value: if, id: 2, ot: a READ &#160;BIN_GREATER 10&#45;&gt;value: assigment, id: 3, ot: a WRITE a READ
                &#160;BIN_MUL 2
            </title>
            <path fill="none" stroke="black" d="M448.29,-360.14C410.74,-350.03 362.82,-337.13 323.6,-326.57"/>
            <polygon fill="black" stroke="black" points="324.54,-323.2 313.98,-323.98 322.72,-329.96 324.54,-323.2"/>
        </g>
        <!-- value: assigment, id: 4, ot: a WRITE a READ &#160;BIN_MUL 3 -->
        <g id="node11" class="node">
            <title>value: assigment, id: 4, ot: a WRITE a READ &#160;BIN_MUL 3</title>
            <polygon fill="aquamarine" stroke="black"
                     points="794.12,-288.05 809.49,-288.15 824.7,-288.3 839.7,-288.49 854.41,-288.74 868.78,-289.03 882.75,-289.36 896.27,-289.75 909.28,-290.18 921.75,-290.65 933.62,-291.16 944.85,-291.71 955.4,-292.31 965.25,-292.94 974.36,-293.61 982.71,-294.31 990.27,-295.04 997.03,-295.8 1002.98,-296.59 1008.12,-297.41 1012.43,-298.25 1015.91,-299.11 1018.59,-299.99 1020.45,-300.89 1021.52,-301.8 1021.8,-302.72 1021.33,-303.65 1020.12,-304.59 1018.19,-305.53 1015.57,-306.47 1012.29,-307.41 1008.38,-308.35 1003.88,-309.28 998.81,-310.2 993.21,-311.11 987.11,-312.01 980.55,-312.89 973.56,-313.75 966.17,-314.59 958.42,-315.41 950.34,-316.2 941.96,-316.96 933.31,-317.69 924.42,-318.39 915.31,-319.06 906.01,-319.69 896.54,-320.29 886.93,-320.84 877.19,-321.35 867.34,-321.82 857.4,-322.25 847.38,-322.64 837.3,-322.97 827.17,-323.26 816.99,-323.51 806.78,-323.7 796.55,-323.85 786.3,-323.95 776.03,-324 765.77,-324 755.51,-323.95 745.26,-323.85 735.02,-323.7 724.81,-323.51 714.64,-323.26 704.5,-322.97 694.42,-322.64 684.4,-322.25 674.46,-321.82 664.62,-321.35 654.88,-320.84 645.26,-320.29 635.8,-319.69 626.5,-319.06 617.39,-318.39 608.49,-317.69 599.84,-316.96 591.46,-316.2 583.38,-315.41 575.63,-314.59 568.24,-313.75 561.25,-312.89 554.69,-312.01 548.59,-311.11 542.99,-310.2 537.92,-309.28 533.42,-308.35 529.51,-307.41 526.23,-306.47 523.62,-305.53 521.69,-304.59 520.47,-303.65 520,-302.72 520.29,-301.8 521.35,-300.89 523.22,-299.99 525.89,-299.11 529.38,-298.25 533.69,-297.41 538.82,-296.59 544.77,-295.8 551.53,-295.04 559.1,-294.31 567.44,-293.61 576.55,-292.94 586.4,-292.31 596.96,-291.71 608.19,-291.16 620.05,-290.65 632.52,-290.18 645.54,-289.75 659.06,-289.36 673.03,-289.03 687.4,-288.74 702.11,-288.49 717.1,-288.3 732.31,-288.15 747.68,-288.05 763.15,-288 778.65,-288 794.12,-288.05"/>
            <text text-anchor="middle" x="770.9" y="-300.95" font-family="Times,serif" font-size="14.00">value:
                assigment, id: 4, ot: a WRITE a READ &#160;BIN_MUL 3
            </text>
        </g>
        <!-- value: if, id: 2, ot: a READ &#160;BIN_GREATER 10&#45;&gt;value: assigment, id: 4, ot: a WRITE a READ &#160;BIN_MUL 3 -->
        <g id="edge12" class="edge">
            <title>value: if, id: 2, ot: a READ &#160;BIN_GREATER 10&#45;&gt;value: assigment, id: 4, ot: a WRITE a READ
                &#160;BIN_MUL 3
            </title>
            <path fill="none" stroke="black" d="M573.51,-360.14C611.06,-350.03 658.99,-337.13 698.21,-326.57"/>
            <polygon fill="black" stroke="black" points="699.08,-329.96 707.83,-323.98 697.26,-323.2 699.08,-329.96"/>
        </g>
        <!-- value: while, id: 5, ot: a READ &#160;BIN_GREATER 10 -->
        <g id="node5" class="node">
            <title>value: while, id: 5, ot: a READ &#160;BIN_GREATER 10</title>
            <polygon fill="aquamarine" stroke="black"
                     points="531.24,-216.05 544.71,-216.15 558.04,-216.3 571.18,-216.49 584.07,-216.74 596.66,-217.03 608.9,-217.36 620.74,-217.75 632.15,-218.18 643.07,-218.65 653.47,-219.16 663.31,-219.71 672.56,-220.31 681.19,-220.94 689.17,-221.61 696.48,-222.31 703.11,-223.04 709.03,-223.8 714.25,-224.59 718.74,-225.41 722.52,-226.25 725.58,-227.11 727.92,-227.99 729.55,-228.89 730.48,-229.8 730.74,-230.72 730.32,-231.65 729.26,-232.59 727.57,-233.53 725.27,-234.47 722.4,-235.41 718.98,-236.35 715.03,-237.28 710.59,-238.2 705.68,-239.11 700.34,-240.01 694.59,-240.89 688.46,-241.75 681.99,-242.59 675.2,-243.41 668.12,-244.2 660.78,-244.96 653.2,-245.69 645.41,-246.39 637.43,-247.06 629.28,-247.69 620.98,-248.29 612.56,-248.84 604.03,-249.35 595.4,-249.82 586.69,-250.25 577.91,-250.64 569.08,-250.97 560.2,-251.26 551.28,-251.51 542.34,-251.7 533.37,-251.85 524.39,-251.95 515.4,-252 506.4,-252 497.41,-251.95 488.43,-251.85 479.46,-251.7 470.52,-251.51 461.6,-251.26 452.72,-250.97 443.89,-250.64 435.11,-250.25 426.41,-249.82 417.78,-249.35 409.24,-248.84 400.82,-248.29 392.53,-247.69 384.38,-247.06 376.4,-246.39 368.6,-245.69 361.02,-244.96 353.68,-244.2 346.6,-243.41 339.81,-242.59 333.34,-241.75 327.21,-240.89 321.46,-240.01 316.12,-239.11 311.21,-238.2 306.77,-237.28 302.82,-236.35 299.4,-235.41 296.53,-234.47 294.24,-233.53 292.55,-232.59 291.48,-231.65 291.07,-230.72 291.32,-229.8 292.25,-228.89 293.89,-227.99 296.23,-227.11 299.28,-226.25 303.06,-225.41 307.56,-224.59 312.77,-223.8 318.7,-223.04 325.32,-222.31 332.64,-221.61 340.62,-220.94 349.25,-220.31 358.49,-219.71 368.33,-219.16 378.73,-218.65 389.65,-218.18 401.06,-217.75 412.91,-217.36 425.15,-217.03 437.74,-216.74 450.63,-216.49 463.76,-216.3 477.09,-216.15 490.56,-216.05 504.11,-216 517.69,-216 531.24,-216.05"/>
            <text text-anchor="middle" x="510.9" y="-228.95" font-family="Times,serif" font-size="14.00">value: while,
                id: 5, ot: a READ &#160;BIN_GREATER 10
            </text>
        </g>
        <!-- value: assigment, id: 3, ot: a WRITE a READ &#160;BIN_MUL 2&#45;&gt;value: while, id: 5, ot: a READ &#160;BIN_GREATER 10 -->
        <g id="edge4" class="edge">
            <title>value: assigment, id: 3, ot: a WRITE a READ &#160;BIN_MUL 2&#45;&gt;value: while, id: 5, ot: a READ
                &#160;BIN_GREATER 10
            </title>
            <path fill="none" stroke="black" d="M314.17,-287.97C352.01,-277.78 400.2,-264.8 439.42,-254.25"/>
            <polygon fill="black" stroke="black" points="440.28,-257.64 449.02,-251.66 438.46,-250.88 440.28,-257.64"/>
        </g>
        <!-- value: assigment, id: 6, ot: a WRITE 2 BIN_PLUS 3 -->
        <g id="node6" class="node">
            <title>value: assigment, id: 6, ot: a WRITE 2 BIN_PLUS 3</title>
            <polygon fill="aquamarine" stroke="black"
                     points="531.4,-144.05 544.96,-144.15 558.39,-144.3 571.63,-144.49 584.61,-144.74 597.29,-145.03 609.63,-145.36 621.56,-145.75 633.05,-146.18 644.05,-146.65 654.53,-147.16 664.44,-147.71 673.76,-148.31 682.45,-148.94 690.49,-149.61 697.86,-150.31 704.54,-151.04 710.51,-151.8 715.76,-152.59 720.29,-153.41 724.09,-154.25 727.17,-155.11 729.53,-155.99 731.18,-156.89 732.12,-157.8 732.37,-158.72 731.95,-159.65 730.88,-160.59 729.18,-161.53 726.87,-162.47 723.98,-163.41 720.53,-164.35 716.55,-165.28 712.08,-166.2 707.13,-167.11 701.75,-168.01 695.96,-168.89 689.79,-169.75 683.27,-170.59 676.42,-171.41 669.29,-172.2 661.89,-172.96 654.26,-173.69 646.41,-174.39 638.37,-175.06 630.16,-175.69 621.8,-176.29 613.32,-176.84 604.72,-177.35 596.03,-177.82 587.25,-178.25 578.41,-178.64 569.51,-178.97 560.57,-179.26 551.58,-179.51 542.57,-179.7 533.54,-179.85 524.49,-179.95 515.43,-180 506.37,-180 497.31,-179.95 488.26,-179.85 479.23,-179.7 470.22,-179.51 461.24,-179.26 452.29,-178.97 443.39,-178.64 434.55,-178.25 425.78,-177.82 417.08,-177.35 408.49,-176.84 400,-176.29 391.65,-175.69 383.44,-175.06 375.4,-174.39 367.55,-173.69 359.91,-172.96 352.51,-172.2 345.38,-171.41 338.54,-170.59 332.02,-169.75 325.85,-168.89 320.05,-168.01 314.67,-167.11 309.73,-166.2 305.25,-165.28 301.28,-164.35 297.83,-163.41 294.94,-162.47 292.62,-161.53 290.92,-160.59 289.85,-159.65 289.43,-158.72 289.69,-157.8 290.63,-156.89 292.27,-155.99 294.63,-155.11 297.71,-154.25 301.51,-153.41 306.04,-152.59 311.3,-151.8 317.27,-151.04 323.94,-150.31 331.31,-149.61 339.35,-148.94 348.04,-148.31 357.36,-147.71 367.27,-147.16 377.75,-146.65 388.75,-146.18 400.24,-145.75 412.18,-145.36 424.51,-145.03 437.19,-144.74 450.18,-144.49 463.41,-144.3 476.84,-144.15 490.41,-144.05 504.06,-144 517.74,-144 531.4,-144.05"/>
            <text text-anchor="middle" x="510.9" y="-156.95" font-family="Times,serif" font-size="14.00">value:
                assigment, id: 6, ot: a WRITE 2 BIN_PLUS 3
            </text>
        </g>
        <!-- value: while, id: 5, ot: a READ &#160;BIN_GREATER 10&#45;&gt;value: assigment, id: 6, ot: a WRITE 2 BIN_PLUS 3 -->
        <g id="edge5" class="edge">
            <title>value: while, id: 5, ot: a READ &#160;BIN_GREATER 10&#45;&gt;value: assigment, id: 6, ot: a WRITE 2
                BIN_PLUS 3
            </title>
            <path fill="none" stroke="black" d="M504.99,-215.7C504.23,-208.41 503.99,-199.73 504.26,-191.54"/>
            <polygon fill="black" stroke="black" points="507.74,-191.82 504.91,-181.61 500.76,-191.36 507.74,-191.82"/>
        </g>
        <!-- value: if, id: 8, ot: a READ &#160;BIN_LESS 10 -->
        <g id="node7" class="node">
            <title>value: if, id: 8, ot: a READ &#160;BIN_LESS 10</title>
            <polygon fill="aquamarine" stroke="black"
                     points="949.81,-144.05 961.01,-144.15 972.09,-144.3 983.02,-144.49 993.73,-144.74 1004.2,-145.03 1014.38,-145.36 1024.23,-145.75 1033.71,-146.18 1042.79,-146.65 1051.43,-147.16 1059.61,-147.71 1067.3,-148.31 1074.48,-148.94 1081.11,-149.61 1087.19,-150.31 1092.7,-151.04 1097.63,-151.8 1101.96,-152.59 1105.7,-153.41 1108.84,-154.25 1111.38,-155.11 1113.33,-155.99 1114.69,-156.89 1115.46,-157.8 1115.67,-158.72 1115.33,-159.65 1114.44,-160.59 1113.04,-161.53 1111.13,-162.47 1108.74,-163.41 1105.9,-164.35 1102.62,-165.28 1098.92,-166.2 1094.84,-167.11 1090.4,-168.01 1085.62,-168.89 1080.53,-169.75 1075.15,-170.59 1069.5,-171.41 1063.62,-172.2 1057.51,-172.96 1051.21,-173.69 1044.73,-174.39 1038.09,-175.06 1031.32,-175.69 1024.42,-176.29 1017.42,-176.84 1010.33,-177.35 1003.15,-177.82 995.91,-178.25 988.61,-178.64 981.27,-178.97 973.89,-179.26 966.48,-179.51 959.04,-179.7 951.58,-179.85 944.12,-179.95 936.64,-180 929.16,-180 921.69,-179.95 914.22,-179.85 906.76,-179.7 899.33,-179.51 891.91,-179.26 884.53,-178.97 877.19,-178.64 869.89,-178.25 862.65,-177.82 855.48,-177.35 848.38,-176.84 841.38,-176.29 834.48,-175.69 827.71,-175.06 821.07,-174.39 814.59,-173.69 808.29,-172.96 802.19,-172.2 796.3,-171.41 790.66,-170.59 785.27,-169.75 780.18,-168.89 775.4,-168.01 770.96,-167.11 766.88,-166.2 763.19,-165.28 759.91,-164.35 757.06,-163.41 754.67,-162.47 752.77,-161.53 751.36,-160.59 750.48,-159.65 750.13,-158.72 750.34,-157.8 751.12,-156.89 752.47,-155.99 754.42,-155.11 756.96,-154.25 760.1,-153.41 763.84,-152.59 768.18,-151.8 773.1,-151.04 778.61,-150.31 784.69,-149.61 791.33,-148.94 798.5,-148.31 806.19,-147.71 814.37,-147.16 823.02,-146.65 832.1,-146.18 841.58,-145.75 851.43,-145.36 861.6,-145.03 872.07,-144.74 882.79,-144.49 893.71,-144.3 904.79,-144.15 915.99,-144.05 927.26,-144 938.55,-144 949.81,-144.05"/>
            <text text-anchor="middle" x="932.9" y="-156.95" font-family="Times,serif" font-size="14.00">value: if, id:
                8, ot: a READ &#160;BIN_LESS 10
            </text>
        </g>
        <!-- value: while, id: 5, ot: a READ &#160;BIN_GREATER 10&#45;&gt;value: if, id: 8, ot: a READ &#160;BIN_LESS 10 -->
        <g id="edge7" class="edge">
            <title>value: while, id: 5, ot: a READ &#160;BIN_GREATER 10&#45;&gt;value: if, id: 8, ot: a READ &#160;BIN_LESS
                10
            </title>
            <path fill="none" stroke="black" d="M608.25,-216.85C676.61,-205.51 767.67,-190.41 835.95,-179.08"/>
            <polygon fill="black" stroke="black" points="836.35,-182.56 845.64,-177.48 835.2,-175.66 836.35,-182.56"/>
        </g>
        <!-- value: assigment, id: 6, ot: a WRITE 2 BIN_PLUS 3&#45;&gt;value: while, id: 5, ot: a READ &#160;BIN_GREATER 10 -->
        <g id="edge6" class="edge">
            <title>value: assigment, id: 6, ot: a WRITE 2 BIN_PLUS 3&#45;&gt;value: while, id: 5, ot: a READ &#160;BIN_GREATER
                10
            </title>
            <path fill="none" stroke="black" d="M516.8,-180.1C517.56,-187.37 517.81,-196.04 517.56,-204.24"/>
            <polygon fill="black" stroke="black" points="514.06,-203.98 516.91,-214.19 521.05,-204.43 514.06,-203.98"/>
        </g>
        <!-- value: assigment, id: 9, ot: a WRITE a READ &#160;BIN_MUL 2 -->
        <g id="node8" class="node">
            <title>value: assigment, id: 9, ot: a WRITE a READ &#160;BIN_MUL 2</title>
            <polygon fill="aquamarine" stroke="black"
                     points="693.12,-72.05 708.49,-72.15 723.7,-72.3 738.7,-72.49 753.41,-72.74 767.78,-73.03 781.75,-73.36 795.27,-73.75 808.28,-74.18 820.75,-74.65 832.62,-75.16 843.85,-75.71 854.4,-76.31 864.25,-76.94 873.36,-77.61 881.71,-78.31 889.27,-79.04 896.03,-79.8 901.98,-80.59 907.12,-81.41 911.43,-82.25 914.91,-83.11 917.59,-83.99 919.45,-84.89 920.52,-85.8 920.8,-86.72 920.33,-87.65 919.12,-88.59 917.19,-89.53 914.57,-90.47 911.29,-91.41 907.38,-92.35 902.88,-93.28 897.81,-94.2 892.21,-95.11 886.11,-96.01 879.55,-96.89 872.56,-97.75 865.17,-98.59 857.42,-99.41 849.34,-100.2 840.96,-100.96 832.31,-101.69 823.42,-102.39 814.31,-103.06 805.01,-103.69 795.54,-104.29 785.93,-104.84 776.19,-105.35 766.34,-105.82 756.4,-106.25 746.38,-106.64 736.3,-106.97 726.17,-107.26 715.99,-107.51 705.78,-107.7 695.55,-107.85 685.3,-107.95 675.03,-108 664.77,-108 654.51,-107.95 644.26,-107.85 634.02,-107.7 623.81,-107.51 613.64,-107.26 603.5,-106.97 593.42,-106.64 583.4,-106.25 573.46,-105.82 563.62,-105.35 553.88,-104.84 544.26,-104.29 534.8,-103.69 525.5,-103.06 516.39,-102.39 507.49,-101.69 498.84,-100.96 490.46,-100.2 482.38,-99.41 474.63,-98.59 467.24,-97.75 460.25,-96.89 453.69,-96.01 447.59,-95.11 441.99,-94.2 436.92,-93.28 432.42,-92.35 428.51,-91.41 425.23,-90.47 422.62,-89.53 420.69,-88.59 419.47,-87.65 419,-86.72 419.29,-85.8 420.35,-84.89 422.22,-83.99 424.89,-83.11 428.38,-82.25 432.69,-81.41 437.82,-80.59 443.77,-79.8 450.53,-79.04 458.1,-78.31 466.44,-77.61 475.55,-76.94 485.4,-76.31 495.96,-75.71 507.19,-75.16 519.05,-74.65 531.52,-74.18 544.54,-73.75 558.06,-73.36 572.03,-73.03 586.4,-72.74 601.11,-72.49 616.1,-72.3 631.31,-72.15 646.68,-72.05 662.15,-72 677.65,-72 693.12,-72.05"/>
            <text text-anchor="middle" x="669.9" y="-84.95" font-family="Times,serif" font-size="14.00">value:
                assigment, id: 9, ot: a WRITE a READ &#160;BIN_MUL 2
            </text>
        </g>
        <!-- value: if, id: 8, ot: a READ &#160;BIN_LESS 10&#45;&gt;value: assigment, id: 9, ot: a WRITE a READ &#160;BIN_MUL 2 -->
        <g id="edge8" class="edge">
            <title>value: if, id: 8, ot: a READ &#160;BIN_LESS 10&#45;&gt;value: assigment, id: 9, ot: a WRITE a READ
                &#160;BIN_MUL 2
            </title>
            <path fill="none" stroke="black" d="M870.24,-144.32C832.05,-134.16 783.07,-121.12 743.1,-110.48"/>
            <polygon fill="black" stroke="black" points="744.11,-107.13 733.55,-107.94 742.31,-113.89 744.11,-107.13"/>
        </g>
        <!-- value: assigment, id: 10, ot: a WRITE a READ &#160;BIN_MUL 3 -->
        <g id="node10" class="node">
            <title>value: assigment, id: 10, ot: a WRITE a READ &#160;BIN_MUL 3</title>
            <polygon fill="aquamarine" stroke="black"
                     points="1218.57,-72.05 1234.25,-72.15 1249.76,-72.3 1265.04,-72.49 1280.04,-72.74 1294.69,-73.03 1308.93,-73.36 1322.72,-73.75 1335.99,-74.18 1348.7,-74.65 1360.8,-75.16 1372.25,-75.71 1383.01,-76.31 1393.05,-76.94 1402.34,-77.61 1410.85,-78.31 1418.56,-79.04 1425.45,-79.8 1431.52,-80.59 1436.75,-81.41 1441.15,-82.25 1444.7,-83.11 1447.43,-83.99 1449.33,-84.89 1450.42,-85.8 1450.71,-86.72 1450.23,-87.65 1448.99,-88.59 1447.02,-89.53 1444.35,-90.47 1441.01,-91.41 1437.03,-92.35 1432.44,-93.28 1427.27,-94.2 1421.56,-95.11 1415.34,-96.01 1408.65,-96.89 1401.52,-97.75 1393.99,-98.59 1386.09,-99.41 1377.85,-100.2 1369.3,-100.96 1360.48,-101.69 1351.42,-102.39 1342.13,-103.06 1332.65,-103.69 1323,-104.29 1313.19,-104.84 1303.26,-105.35 1293.22,-105.82 1283.09,-106.25 1272.88,-106.64 1262.6,-106.97 1252.27,-107.26 1241.89,-107.51 1231.48,-107.7 1221.05,-107.85 1210.6,-107.95 1200.13,-108 1189.67,-108 1179.21,-107.95 1168.76,-107.85 1158.32,-107.7 1147.91,-107.51 1137.54,-107.26 1127.2,-106.97 1116.93,-106.64 1106.71,-106.25 1096.58,-105.82 1086.54,-105.35 1076.61,-104.84 1066.81,-104.29 1057.16,-103.69 1047.67,-103.06 1038.39,-102.39 1029.32,-101.69 1020.5,-100.96 1011.95,-100.2 1003.72,-99.41 995.81,-98.59 988.28,-97.75 981.15,-96.89 974.46,-96.01 968.25,-95.11 962.54,-94.2 957.37,-93.28 952.78,-92.35 948.79,-91.41 945.45,-90.47 942.78,-89.53 940.82,-88.59 939.58,-87.65 939.09,-86.72 939.39,-85.8 940.48,-84.89 942.38,-83.99 945.1,-83.11 948.66,-82.25 953.05,-81.41 958.28,-80.59 964.35,-79.8 971.25,-79.04 978.96,-78.31 987.47,-77.61 996.75,-76.94 1006.79,-76.31 1017.55,-75.71 1029,-75.16 1041.11,-74.65 1053.81,-74.18 1067.09,-73.75 1080.87,-73.36 1095.11,-73.03 1109.76,-72.74 1124.76,-72.49 1140.05,-72.3 1155.56,-72.15 1171.23,-72.05 1187,-72 1202.8,-72 1218.57,-72.05"/>
            <text text-anchor="middle" x="1194.9" y="-84.95" font-family="Times,serif" font-size="14.00">value:
                assigment, id: 10, ot: a WRITE a READ &#160;BIN_MUL 3
            </text>
        </g>
        <!-- value: if, id: 8, ot: a READ &#160;BIN_LESS 10&#45;&gt;value: assigment, id: 10, ot: a WRITE a READ &#160;BIN_MUL 3 -->
        <g id="edge10" class="edge">
            <title>value: if, id: 8, ot: a READ &#160;BIN_LESS 10&#45;&gt;value: assigment, id: 10, ot: a WRITE a READ
                &#160;BIN_MUL 3
            </title>
            <path fill="none" stroke="black" d="M995.32,-144.32C1033.37,-134.16 1082.16,-121.12 1121.98,-110.48"/>
            <polygon fill="black" stroke="black"
                     points="1122.74,-113.9 1131.49,-107.94 1120.93,-107.14 1122.74,-113.9"/>
        </g>
        <!-- value: assigment, id: 11, ot: x WRITE 7 -->
        <g id="node9" class="node">
            <title>value: assigment, id: 11, ot: x WRITE 7</title>
            <polygon fill="aquamarine" stroke="black"
                     points="947.71,-0.05 958.17,-0.15 968.52,-0.3 978.73,-0.49 988.74,-0.74 998.52,-1.03 1008.03,-1.36 1017.23,-1.75 1026.09,-2.18 1034.58,-2.65 1042.66,-3.16 1050.3,-3.71 1057.49,-4.31 1064.19,-4.94 1070.39,-5.61 1076.07,-6.31 1081.22,-7.04 1085.82,-7.8 1089.87,-8.59 1093.37,-9.41 1096.3,-10.25 1098.67,-11.11 1100.49,-11.99 1101.76,-12.89 1102.49,-13.8 1102.68,-14.72 1102.36,-15.65 1101.53,-16.59 1100.22,-17.53 1098.44,-18.47 1096.21,-19.41 1093.55,-20.35 1090.48,-21.28 1087.03,-22.2 1083.22,-23.11 1079.07,-24.01 1074.6,-24.89 1069.84,-25.75 1064.82,-26.59 1059.54,-27.41 1054.04,-28.2 1048.34,-28.96 1042.45,-29.69 1036.39,-30.39 1030.19,-31.06 1023.86,-31.69 1017.42,-32.29 1010.88,-32.84 1004.25,-33.35 997.54,-33.82 990.78,-34.25 983.96,-34.64 977.1,-34.97 970.2,-35.26 963.27,-35.51 956.32,-35.7 949.36,-35.85 942.38,-35.95 935.4,-36 928.41,-36 921.42,-35.95 914.45,-35.85 907.48,-35.7 900.53,-35.51 893.6,-35.26 886.71,-34.97 879.84,-34.64 873.03,-34.25 866.26,-33.82 859.56,-33.35 852.93,-32.84 846.38,-32.29 839.94,-31.69 833.61,-31.06 827.41,-30.39 821.36,-29.69 815.47,-28.96 809.76,-28.2 804.26,-27.41 798.99,-26.59 793.96,-25.75 789.2,-24.89 784.74,-24.01 780.58,-23.11 776.77,-22.2 773.32,-21.28 770.25,-20.35 767.6,-19.41 765.36,-18.47 763.58,-17.53 762.27,-16.59 761.44,-15.65 761.12,-14.72 761.32,-13.8 762.04,-12.89 763.31,-11.99 765.13,-11.11 767.5,-10.25 770.44,-9.41 773.93,-8.59 777.98,-7.8 782.59,-7.04 787.73,-6.31 793.41,-5.61 799.61,-4.94 806.32,-4.31 813.5,-3.71 821.15,-3.16 829.23,-2.65 837.71,-2.18 846.57,-1.75 855.77,-1.36 865.28,-1.03 875.06,-0.74 885.08,-0.49 895.28,-0.3 905.64,-0.15 916.1,-0.05 926.63,0 937.18,0 947.71,-0.05"/>
            <text text-anchor="middle" x="931.9" y="-12.95" font-family="Times,serif" font-size="14.00">value:
                assigment, id: 11, ot: x WRITE 7
            </text>
        </g>
        <!-- value: assigment, id: 9, ot: a WRITE a READ &#160;BIN_MUL 2&#45;&gt;value: assigment, id: 11, ot: x WRITE 7 -->
        <g id="edge9" class="edge">
            <title>value: assigment, id: 9, ot: a WRITE a READ &#160;BIN_MUL 2&#45;&gt;value: assigment, id: 11, ot: x
                WRITE 7
            </title>
            <path fill="none" stroke="black" d="M733.66,-71.97C772.56,-61.57 822.33,-48.28 862.26,-37.61"/>
            <polygon fill="black" stroke="black" points="863.03,-41.02 871.78,-35.06 861.22,-34.26 863.03,-41.02"/>
        </g>
        <!-- value: assigment, id: 10, ot: a WRITE a READ &#160;BIN_MUL 3&#45;&gt;value: assigment, id: 11, ot: x WRITE 7 -->
        <g id="edge11" class="edge">
            <title>value: assigment, id: 10, ot: a WRITE a READ &#160;BIN_MUL 3&#45;&gt;value: assigment, id: 11, ot: x
                WRITE 7
            </title>
            <path fill="none" stroke="black" d="M1130.9,-71.97C1091.85,-61.57 1041.9,-48.28 1001.81,-37.61"/>
            <polygon fill="black" stroke="black" points="1002.81,-34.25 992.24,-35.06 1001.01,-41.02 1002.81,-34.25"/>
        </g>
        <!-- value: assigment, id: 4, ot: a WRITE a READ &#160;BIN_MUL 3&#45;&gt;value: while, id: 5, ot: a READ &#160;BIN_GREATER 10 -->
        <g id="edge13" class="edge">
            <title>value: assigment, id: 4, ot: a WRITE a READ &#160;BIN_MUL 3&#45;&gt;value: while, id: 5, ot: a READ
                &#160;BIN_GREATER 10
            </title>
            <path fill="none" stroke="black" d="M707.63,-287.97C669.79,-277.78 621.6,-264.8 582.39,-254.25"/>
            <polygon fill="black" stroke="black" points="583.35,-250.88 572.78,-251.66 581.53,-257.64 583.35,-250.88"/>
        </g>
    </g>
</svg>
