<?xml version="1.0" encoding="UTF-8" standalone="no"?>
<!DOCTYPE svg PUBLIC "-//W3C//DTD SVG 1.1//EN"
 "http://www.w3.org/Graphics/SVG/1.1/DTD/svg11.dtd">
<!-- Generated by graphviz version 9.0.0 (20230911.1827)
 -->
<!-- Title: G Pages: 1 -->
<svg width="4165pt" height="908pt"
 viewBox="0.00 0.00 4165.47 908.00" xmlns="http://www.w3.org/2000/svg" xmlns:xlink="http://www.w3.org/1999/xlink">
<g id="graph0" class="graph" transform="scale(1 1) rotate(0) translate(4 904)">
<title>G</title>
<polygon fill="white" stroke="none" points="-4,4 -4,-904 4161.47,-904 4161.47,4 -4,4"/>
<!-- type: source, id: 55 -->
<g id="node1" class="node">
<title>type: source, id: 55</title>
<ellipse fill="none" stroke="black" cx="1276.1" cy="-882" rx="82.57" ry="18"/>
<text text-anchor="middle" x="1276.1" y="-876.95" font-family="Times,serif" font-size="14.00">type: source, id: 55</text>
</g>
<!-- type: common, id: 54, name: source_item -->
<g id="node2" class="node">
<title>type: common, id: 54, name: source_item</title>
<ellipse fill="none" stroke="black" cx="1276.1" cy="-810" rx="168.04" ry="18"/>
<text text-anchor="middle" x="1276.1" y="-804.95" font-family="Times,serif" font-size="14.00">type: common, id: 54, name: source_item</text>
</g>
<!-- type: source, id: 55&#45;&gt;type: common, id: 54, name: source_item -->
<g id="edge1" class="edge">
<title>type: source, id: 55&#45;&gt;type: common, id: 54, name: source_item</title>
<path fill="none" stroke="black" d="M1276.1,-863.7C1276.1,-856.41 1276.1,-847.73 1276.1,-839.54"/>
<polygon fill="black" stroke="black" points="1279.6,-839.62 1276.1,-829.62 1272.6,-839.62 1279.6,-839.62"/>
</g>
<!-- type: function_signature, id: 6 -->
<g id="node3" class="node">
<title>type: function_signature, id: 6</title>
<ellipse fill="none" stroke="black" cx="1135.1" cy="-738" rx="123" ry="18"/>
<text text-anchor="middle" x="1135.1" y="-732.95" font-family="Times,serif" font-size="14.00">type: function_signature, id: 6</text>
</g>
<!-- type: common, id: 54, name: source_item&#45;&gt;type: function_signature, id: 6 -->
<g id="edge2" class="edge">
<title>type: common, id: 54, name: source_item&#45;&gt;type: function_signature, id: 6</title>
<path fill="none" stroke="black" d="M1241.97,-792.05C1223.09,-782.68 1199.42,-770.93 1179.16,-760.87"/>
<polygon fill="black" stroke="black" points="1180.79,-757.77 1170.27,-756.46 1177.67,-764.04 1180.79,-757.77"/>
</g>
<!-- type: common, id: 53, name: body -->
<g id="node10" class="node">
<title>type: common, id: 53, name: body</title>
<ellipse fill="none" stroke="black" cx="1529.1" cy="-738" rx="140.92" ry="18"/>
<text text-anchor="middle" x="1529.1" y="-732.95" font-family="Times,serif" font-size="14.00">type: common, id: 53, name: body</text>
</g>
<!-- type: common, id: 54, name: source_item&#45;&gt;type: common, id: 53, name: body -->
<g id="edge9" class="edge">
<title>type: common, id: 54, name: source_item&#45;&gt;type: common, id: 53, name: body</title>
<path fill="none" stroke="black" d="M1335.1,-792.68C1372.65,-782.29 1421.44,-768.79 1460.69,-757.93"/>
<polygon fill="black" stroke="black" points="1461.59,-761.31 1470.29,-755.27 1459.72,-754.56 1461.59,-761.31"/>
</g>
<!-- type: identifier, id: 0, value: meow -->
<g id="node4" class="node">
<title>type: identifier, id: 0, value: meow</title>
<ellipse fill="none" stroke="black" cx="735.1" cy="-666" rx="140.41" ry="18"/>
<text text-anchor="middle" x="735.1" y="-660.95" font-family="Times,serif" font-size="14.00">type: identifier, id: 0, value: meow</text>
</g>
<!-- type: function_signature, id: 6&#45;&gt;type: identifier, id: 0, value: meow -->
<g id="edge3" class="edge">
<title>type: function_signature, id: 6&#45;&gt;type: identifier, id: 0, value: meow</title>
<path fill="none" stroke="black" d="M1058.45,-723.59C992.45,-712.04 897.05,-695.34 826.97,-683.08"/>
<polygon fill="black" stroke="black" points="827.9,-679.69 817.44,-681.41 826.69,-686.58 827.9,-679.69"/>
</g>
<!-- type: common, id: 4, name: list -->
<g id="node5" class="node">
<title>type: common, id: 4, name: list</title>
<ellipse fill="none" stroke="black" cx="1023.1" cy="-666" rx="129.15" ry="18"/>
<text text-anchor="middle" x="1023.1" y="-660.95" font-family="Times,serif" font-size="14.00">type: common, id: 4, name: list</text>
</g>
<!-- type: function_signature, id: 6&#45;&gt;type: common, id: 4, name: list -->
<g id="edge4" class="edge">
<title>type: function_signature, id: 6&#45;&gt;type: common, id: 4, name: list</title>
<path fill="none" stroke="black" d="M1107.99,-720.05C1093.51,-711.01 1075.49,-699.74 1059.78,-689.93"/>
<polygon fill="black" stroke="black" points="1061.97,-687.17 1051.63,-684.83 1058.26,-693.1 1061.97,-687.17"/>
</g>
<!-- type: identifier, id: 5, value: gav -->
<g id="node9" class="node">
<title>type: identifier, id: 5, value: gav</title>
<ellipse fill="none" stroke="black" cx="1301.1" cy="-666" rx="130.68" ry="18"/>
<text text-anchor="middle" x="1301.1" y="-660.95" font-family="Times,serif" font-size="14.00">type: identifier, id: 5, value: gav</text>
</g>
<!-- type: function_signature, id: 6&#45;&gt;type: identifier, id: 5, value: gav -->
<g id="edge8" class="edge">
<title>type: function_signature, id: 6&#45;&gt;type: identifier, id: 5, value: gav</title>
<path fill="none" stroke="black" d="M1174.02,-720.59C1197.16,-710.83 1226.74,-698.35 1251.54,-687.9"/>
<polygon fill="black" stroke="black" points="1252.6,-691.25 1260.45,-684.14 1249.88,-684.8 1252.6,-691.25"/>
</g>
<!-- type: common, id: 3, name: list_item -->
<g id="node6" class="node">
<title>type: common, id: 3, name: list_item</title>
<ellipse fill="none" stroke="black" cx="1023.1" cy="-594" rx="150.64" ry="18"/>
<text text-anchor="middle" x="1023.1" y="-588.95" font-family="Times,serif" font-size="14.00">type: common, id: 3, name: list_item</text>
</g>
<!-- type: common, id: 4, name: list&#45;&gt;type: common, id: 3, name: list_item -->
<g id="edge5" class="edge">
<title>type: common, id: 4, name: list&#45;&gt;type: common, id: 3, name: list_item</title>
<path fill="none" stroke="black" d="M1023.1,-647.7C1023.1,-640.41 1023.1,-631.73 1023.1,-623.54"/>
<polygon fill="black" stroke="black" points="1026.6,-623.62 1023.1,-613.62 1019.6,-623.62 1026.6,-623.62"/>
</g>
<!-- type: identifier, id: 1, value: q -->
<g id="node7" class="node">
<title>type: identifier, id: 1, value: q</title>
<ellipse fill="none" stroke="black" cx="847.1" cy="-522" rx="121.98" ry="18"/>
<text text-anchor="middle" x="847.1" y="-516.95" font-family="Times,serif" font-size="14.00">type: identifier, id: 1, value: q</text>
</g>
<!-- type: common, id: 3, name: list_item&#45;&gt;type: identifier, id: 1, value: q -->
<g id="edge6" class="edge">
<title>type: common, id: 3, name: list_item&#45;&gt;type: identifier, id: 1, value: q</title>
<path fill="none" stroke="black" d="M981.39,-576.41C956.64,-566.57 925.07,-554.01 898.75,-543.54"/>
<polygon fill="black" stroke="black" points="900.2,-540.35 889.61,-539.91 897.61,-546.86 900.2,-540.35"/>
</g>
<!-- type: type, id: 2, name: int -->
<g id="node8" class="node">
<title>type: type, id: 2, name: int</title>
<ellipse fill="none" stroke="black" cx="1097.1" cy="-522" rx="110.21" ry="18"/>
<text text-anchor="middle" x="1097.1" y="-516.95" font-family="Times,serif" font-size="14.00">type: type, id: 2, name: int</text>
</g>
<!-- type: common, id: 3, name: list_item&#45;&gt;type: type, id: 2, name: int -->
<g id="edge7" class="edge">
<title>type: common, id: 3, name: list_item&#45;&gt;type: type, id: 2, name: int</title>
<path fill="none" stroke="black" d="M1041.39,-575.7C1050.26,-567.3 1061.08,-557.07 1070.82,-547.86"/>
<polygon fill="black" stroke="black" points="1073.06,-550.56 1077.92,-541.14 1068.25,-545.47 1073.06,-550.56"/>
</g>
<!-- type: block, id: 52 -->
<g id="node11" class="node">
<title>type: block, id: 52</title>
<ellipse fill="none" stroke="black" cx="1529.1" cy="-666" rx="78.99" ry="18"/>
<text text-anchor="middle" x="1529.1" y="-660.95" font-family="Times,serif" font-size="14.00">type: block, id: 52</text>
</g>
<!-- type: common, id: 53, name: body&#45;&gt;type: block, id: 52 -->
<g id="edge10" class="edge">
<title>type: common, id: 53, name: body&#45;&gt;type: block, id: 52</title>
<path fill="none" stroke="black" d="M1529.1,-719.7C1529.1,-712.41 1529.1,-703.73 1529.1,-695.54"/>
<polygon fill="black" stroke="black" points="1532.6,-695.62 1529.1,-685.62 1525.6,-695.62 1532.6,-695.62"/>
</g>
<!-- type: common, id: 29, name: body_var -->
<g id="node34" class="node">
<title>type: common, id: 29, name: body_var</title>
<ellipse fill="none" stroke="black" cx="2565.1" cy="-666" rx="157.3" ry="18"/>
<text text-anchor="middle" x="2565.1" y="-660.95" font-family="Times,serif" font-size="14.00">type: common, id: 29, name: body_var</text>
</g>
<!-- type: common, id: 53, name: body&#45;&gt;type: common, id: 29, name: body_var -->
<g id="edge33" class="edge">
<title>type: common, id: 53, name: body&#45;&gt;type: common, id: 29, name: body_var</title>
<path fill="none" stroke="black" d="M1651.24,-728.75C1843.48,-715.76 2215.79,-690.6 2420.88,-676.74"/>
<polygon fill="black" stroke="black" points="2421.08,-680.24 2430.82,-676.07 2420.61,-673.26 2421.08,-680.24"/>
</g>
<!-- type: common, id: 51, name: block_item -->
<g id="node12" class="node">
<title>type: common, id: 51, name: block_item</title>
<ellipse fill="none" stroke="black" cx="1442.1" cy="-594" rx="164.46" ry="18"/>
<text text-anchor="middle" x="1442.1" y="-588.95" font-family="Times,serif" font-size="14.00">type: common, id: 51, name: block_item</text>
</g>
<!-- type: block, id: 52&#45;&gt;type: common, id: 51, name: block_item -->
<g id="edge11" class="edge">
<title>type: block, id: 52&#45;&gt;type: common, id: 51, name: block_item</title>
<path fill="none" stroke="black" d="M1508.48,-648.41C1497.67,-639.71 1484.22,-628.89 1472.26,-619.27"/>
<polygon fill="black" stroke="black" points="1474.64,-616.69 1464.66,-613.15 1470.25,-622.15 1474.64,-616.69"/>
</g>
<!-- type: branch, id: 50 -->
<g id="node13" class="node">
<title>type: branch, id: 50</title>
<ellipse fill="none" stroke="black" cx="1369.1" cy="-522" rx="83.6" ry="18"/>
<text text-anchor="middle" x="1369.1" y="-516.95" font-family="Times,serif" font-size="14.00">type: branch, id: 50</text>
</g>
<!-- type: common, id: 51, name: block_item&#45;&gt;type: branch, id: 50 -->
<g id="edge12" class="edge">
<title>type: common, id: 51, name: block_item&#45;&gt;type: branch, id: 50</title>
<path fill="none" stroke="black" d="M1424.05,-575.7C1415.24,-567.24 1404.47,-556.92 1394.81,-547.66"/>
<polygon fill="black" stroke="black" points="1397.42,-545.31 1387.78,-540.91 1392.57,-550.36 1397.42,-545.31"/>
</g>
<!-- type: expression, id: 32 -->
<g id="node14" class="node">
<title>type: expression, id: 32</title>
<ellipse fill="none" stroke="black" cx="590.1" cy="-450" rx="97.93" ry="18"/>
<text text-anchor="middle" x="590.1" y="-444.95" font-family="Times,serif" font-size="14.00">type: expression, id: 32</text>
</g>
<!-- type: branch, id: 50&#45;&gt;type: expression, id: 32 -->
<g id="edge13" class="edge">
<title>type: branch, id: 50&#45;&gt;type: expression, id: 32</title>
<path fill="none" stroke="black" d="M1296.76,-512.57C1271.28,-509.7 1242.43,-506.58 1216.1,-504 1030.7,-485.86 814.05,-468.33 690.37,-458.68"/>
<polygon fill="black" stroke="black" points="690.81,-455.2 680.57,-457.91 690.27,-462.18 690.81,-455.2"/>
</g>
<!-- type: common, id: 42, name: call -->
<g id="node17" class="node">
<title>type: common, id: 42, name: call</title>
<ellipse fill="none" stroke="black" cx="1243.1" cy="-450" rx="135.8" ry="18"/>
<text text-anchor="middle" x="1243.1" y="-444.95" font-family="Times,serif" font-size="14.00">type: common, id: 42, name: call</text>
</g>
<!-- type: branch, id: 50&#45;&gt;type: common, id: 42, name: call -->
<g id="edge16" class="edge">
<title>type: branch, id: 50&#45;&gt;type: common, id: 42, name: call</title>
<path fill="none" stroke="black" d="M1339.88,-504.76C1323.07,-495.43 1301.71,-483.56 1283.33,-473.35"/>
<polygon fill="black" stroke="black" points="1285.24,-470.41 1274.8,-468.61 1281.84,-476.53 1285.24,-470.41"/>
</g>
<!-- type: expression, id: 49 -->
<g id="node27" class="node">
<title>type: expression, id: 49</title>
<ellipse fill="none" stroke="black" cx="1495.1" cy="-450" rx="97.93" ry="18"/>
<text text-anchor="middle" x="1495.1" y="-444.95" font-family="Times,serif" font-size="14.00">type: expression, id: 49</text>
</g>
<!-- type: branch, id: 50&#45;&gt;type: expression, id: 49 -->
<g id="edge26" class="edge">
<title>type: branch, id: 50&#45;&gt;type: expression, id: 49</title>
<path fill="none" stroke="black" d="M1398.32,-504.76C1415.37,-495.29 1437.11,-483.21 1455.67,-472.91"/>
<polygon fill="black" stroke="black" points="1457.23,-476.04 1464.27,-468.12 1453.83,-469.92 1457.23,-476.04"/>
</g>
<!-- type: value, id: 30, type_name: DEC, value: 100 -->
<g id="node15" class="node">
<title>type: value, id: 30, type_name: DEC, value: 100</title>
<ellipse fill="none" stroke="black" cx="192.1" cy="-378" rx="192.1" ry="18"/>
<text text-anchor="middle" x="192.1" y="-372.95" font-family="Times,serif" font-size="14.00">type: value, id: 30, type_name: DEC, value: 100</text>
</g>
<!-- type: expression, id: 32&#45;&gt;type: value, id: 30, type_name: DEC, value: 100 -->
<g id="edge14" class="edge">
<title>type: expression, id: 32&#45;&gt;type: value, id: 30, type_name: DEC, value: 100</title>
<path fill="none" stroke="black" d="M521.23,-436.89C457.76,-425.73 362.86,-409.03 291.25,-396.44"/>
<polygon fill="black" stroke="black" points="291.91,-393 281.45,-394.72 290.69,-399.89 291.91,-393"/>
</g>
<!-- type: value, id: 31, type_name: DEC, value: 50 -->
<g id="node16" class="node">
<title>type: value, id: 31, type_name: DEC, value: 50</title>
<ellipse fill="none" stroke="black" cx="590.1" cy="-378" rx="187.49" ry="18"/>
<text text-anchor="middle" x="590.1" y="-372.95" font-family="Times,serif" font-size="14.00">type: value, id: 31, type_name: DEC, value: 50</text>
</g>
<!-- type: expression, id: 32&#45;&gt;type: value, id: 31, type_name: DEC, value: 50 -->
<g id="edge15" class="edge">
<title>type: expression, id: 32&#45;&gt;type: value, id: 31, type_name: DEC, value: 50</title>
<path fill="none" stroke="black" d="M590.1,-431.7C590.1,-424.41 590.1,-415.73 590.1,-407.54"/>
<polygon fill="black" stroke="black" points="593.6,-407.62 590.1,-397.62 586.6,-407.62 593.6,-407.62"/>
</g>
<!-- type: identifier, id: 33, value: sosiska -->
<g id="node18" class="node">
<title>type: identifier, id: 33, value: sosiska</title>
<ellipse fill="none" stroke="black" cx="944.1" cy="-378" rx="148.59" ry="18"/>
<text text-anchor="middle" x="944.1" y="-372.95" font-family="Times,serif" font-size="14.00">type: identifier, id: 33, value: sosiska</text>
</g>
<!-- type: common, id: 42, name: call&#45;&gt;type: identifier, id: 33, value: sosiska -->
<g id="edge17" class="edge">
<title>type: common, id: 42, name: call&#45;&gt;type: identifier, id: 33, value: sosiska</title>
<path fill="none" stroke="black" d="M1178.22,-433.81C1132.17,-423.03 1070.15,-408.51 1021.51,-397.12"/>
<polygon fill="black" stroke="black" points="1022.41,-393.74 1011.88,-394.87 1020.81,-400.55 1022.41,-393.74"/>
</g>
<!-- type: common, id: 41, name: list -->
<g id="node19" class="node">
<title>type: common, id: 41, name: list</title>
<ellipse fill="none" stroke="black" cx="1244.1" cy="-378" rx="133.75" ry="18"/>
<text text-anchor="middle" x="1244.1" y="-372.95" font-family="Times,serif" font-size="14.00">type: common, id: 41, name: list</text>
</g>
<!-- type: common, id: 42, name: call&#45;&gt;type: common, id: 41, name: list -->
<g id="edge18" class="edge">
<title>type: common, id: 42, name: call&#45;&gt;type: common, id: 41, name: list</title>
<path fill="none" stroke="black" d="M1243.35,-431.7C1243.45,-424.41 1243.57,-415.73 1243.69,-407.54"/>
<polygon fill="black" stroke="black" points="1247.19,-407.67 1243.83,-397.62 1240.19,-407.57 1247.19,-407.67"/>
</g>
<!-- type: common, id: 40, name: expr -->
<g id="node20" class="node">
<title>type: common, id: 40, name: expr</title>
<ellipse fill="none" stroke="black" cx="1212.1" cy="-306" rx="138.87" ry="18"/>
<text text-anchor="middle" x="1212.1" y="-300.95" font-family="Times,serif" font-size="14.00">type: common, id: 40, name: expr</text>
</g>
<!-- type: common, id: 41, name: list&#45;&gt;type: common, id: 40, name: expr -->
<g id="edge19" class="edge">
<title>type: common, id: 41, name: list&#45;&gt;type: common, id: 40, name: expr</title>
<path fill="none" stroke="black" d="M1236.19,-359.7C1232.7,-352.07 1228.52,-342.92 1224.62,-334.4"/>
<polygon fill="black" stroke="black" points="1227.89,-333.12 1220.55,-325.48 1221.52,-336.03 1227.89,-333.12"/>
</g>
<!-- type: value, id: 34, type_name: DEC, value: 1 -->
<g id="node21" class="node">
<title>type: value, id: 34, type_name: DEC, value: 1</title>
<ellipse fill="none" stroke="black" cx="872.1" cy="-234" rx="182.89" ry="18"/>
<text text-anchor="middle" x="872.1" y="-228.95" font-family="Times,serif" font-size="14.00">type: value, id: 34, type_name: DEC, value: 1</text>
</g>
<!-- type: common, id: 40, name: expr&#45;&gt;type: value, id: 34, type_name: DEC, value: 1 -->
<g id="edge20" class="edge">
<title>type: common, id: 40, name: expr&#45;&gt;type: value, id: 34, type_name: DEC, value: 1</title>
<path fill="none" stroke="black" d="M1140.41,-290.24C1087.71,-279.39 1015.82,-264.59 959.71,-253.04"/>
<polygon fill="black" stroke="black" points="960.69,-249.67 950.19,-251.08 959.28,-256.52 960.69,-249.67"/>
</g>
<!-- type: common, id: 39, name: expr -->
<g id="node22" class="node">
<title>type: common, id: 39, name: expr</title>
<ellipse fill="none" stroke="black" cx="1212.1" cy="-234" rx="138.87" ry="18"/>
<text text-anchor="middle" x="1212.1" y="-228.95" font-family="Times,serif" font-size="14.00">type: common, id: 39, name: expr</text>
</g>
<!-- type: common, id: 40, name: expr&#45;&gt;type: common, id: 39, name: expr -->
<g id="edge21" class="edge">
<title>type: common, id: 40, name: expr&#45;&gt;type: common, id: 39, name: expr</title>
<path fill="none" stroke="black" d="M1212.1,-287.7C1212.1,-280.41 1212.1,-271.73 1212.1,-263.54"/>
<polygon fill="black" stroke="black" points="1215.6,-263.62 1212.1,-253.62 1208.6,-263.62 1215.6,-263.62"/>
</g>
<!-- type: common, id: 38, name: indexer -->
<g id="node23" class="node">
<title>type: common, id: 38, name: indexer</title>
<ellipse fill="none" stroke="black" cx="1212.1" cy="-162" rx="150.13" ry="18"/>
<text text-anchor="middle" x="1212.1" y="-156.95" font-family="Times,serif" font-size="14.00">type: common, id: 38, name: indexer</text>
</g>
<!-- type: common, id: 39, name: expr&#45;&gt;type: common, id: 38, name: indexer -->
<g id="edge22" class="edge">
<title>type: common, id: 39, name: expr&#45;&gt;type: common, id: 38, name: indexer</title>
<path fill="none" stroke="black" d="M1212.1,-215.7C1212.1,-208.41 1212.1,-199.73 1212.1,-191.54"/>
<polygon fill="black" stroke="black" points="1215.6,-191.62 1212.1,-181.62 1208.6,-191.62 1215.6,-191.62"/>
</g>
<!-- type: identifier, id: 35, value: l -->
<g id="node24" class="node">
<title>type: identifier, id: 35, value: l</title>
<ellipse fill="none" stroke="black" cx="1072.1" cy="-90" rx="124.54" ry="18"/>
<text text-anchor="middle" x="1072.1" y="-84.95" font-family="Times,serif" font-size="14.00">type: identifier, id: 35, value: l</text>
</g>
<!-- type: common, id: 38, name: indexer&#45;&gt;type: identifier, id: 35, value: l -->
<g id="edge23" class="edge">
<title>type: common, id: 38, name: indexer&#45;&gt;type: identifier, id: 35, value: l</title>
<path fill="none" stroke="black" d="M1178.21,-144.05C1159.46,-134.68 1135.96,-122.93 1115.85,-112.87"/>
<polygon fill="black" stroke="black" points="1117.54,-109.81 1107.03,-108.47 1114.41,-116.07 1117.54,-109.81"/>
</g>
<!-- type: common, id: 37, name: expr -->
<g id="node25" class="node">
<title>type: common, id: 37, name: expr</title>
<ellipse fill="none" stroke="black" cx="1353.1" cy="-90" rx="138.87" ry="18"/>
<text text-anchor="middle" x="1353.1" y="-84.95" font-family="Times,serif" font-size="14.00">type: common, id: 37, name: expr</text>
</g>
<!-- type: common, id: 38, name: indexer&#45;&gt;type: common, id: 37, name: expr -->
<g id="edge24" class="edge">
<title>type: common, id: 38, name: indexer&#45;&gt;type: common, id: 37, name: expr</title>
<path fill="none" stroke="black" d="M1246.23,-144.05C1265.11,-134.68 1288.78,-122.93 1309.04,-112.87"/>
<polygon fill="black" stroke="black" points="1310.52,-116.04 1317.93,-108.46 1307.41,-109.77 1310.52,-116.04"/>
</g>
<!-- type: value, id: 36, type_name: DEC, value: 7 -->
<g id="node26" class="node">
<title>type: value, id: 36, type_name: DEC, value: 7</title>
<ellipse fill="none" stroke="black" cx="1353.1" cy="-18" rx="182.89" ry="18"/>
<text text-anchor="middle" x="1353.1" y="-12.95" font-family="Times,serif" font-size="14.00">type: value, id: 36, type_name: DEC, value: 7</text>
</g>
<!-- type: common, id: 37, name: expr&#45;&gt;type: value, id: 36, type_name: DEC, value: 7 -->
<g id="edge25" class="edge">
<title>type: common, id: 37, name: expr&#45;&gt;type: value, id: 36, type_name: DEC, value: 7</title>
<path fill="none" stroke="black" d="M1353.1,-71.7C1353.1,-64.41 1353.1,-55.73 1353.1,-47.54"/>
<polygon fill="black" stroke="black" points="1356.6,-47.62 1353.1,-37.62 1349.6,-47.62 1356.6,-47.62"/>
</g>
<!-- type: expression, id: 47 -->
<g id="node28" class="node">
<title>type: expression, id: 47</title>
<ellipse fill="none" stroke="black" cx="1495.1" cy="-378" rx="97.93" ry="18"/>
<text text-anchor="middle" x="1495.1" y="-372.95" font-family="Times,serif" font-size="14.00">type: expression, id: 47</text>
</g>
<!-- type: expression, id: 49&#45;&gt;type: expression, id: 47 -->
<g id="edge27" class="edge">
<title>type: expression, id: 49&#45;&gt;type: expression, id: 47</title>
<path fill="none" stroke="black" d="M1495.1,-431.7C1495.1,-424.41 1495.1,-415.73 1495.1,-407.54"/>
<polygon fill="black" stroke="black" points="1498.6,-407.62 1495.1,-397.62 1491.6,-407.62 1498.6,-407.62"/>
</g>
<!-- type: value, id: 48, type_name: DEC, value: 6 -->
<g id="node33" class="node">
<title>type: value, id: 48, type_name: DEC, value: 6</title>
<ellipse fill="none" stroke="black" cx="1794.1" cy="-378" rx="182.89" ry="18"/>
<text text-anchor="middle" x="1794.1" y="-372.95" font-family="Times,serif" font-size="14.00">type: value, id: 48, type_name: DEC, value: 6</text>
</g>
<!-- type: expression, id: 49&#45;&gt;type: value, id: 48, type_name: DEC, value: 6 -->
<g id="edge32" class="edge">
<title>type: expression, id: 49&#45;&gt;type: value, id: 48, type_name: DEC, value: 6</title>
<path fill="none" stroke="black" d="M1553.81,-435.25C1599.59,-424.54 1663.64,-409.54 1714.1,-397.73"/>
<polygon fill="black" stroke="black" points="1714.89,-401.14 1723.83,-395.45 1713.29,-394.32 1714.89,-401.14"/>
</g>
<!-- type: expression, id: 45 -->
<g id="node29" class="node">
<title>type: expression, id: 45</title>
<ellipse fill="none" stroke="black" cx="1495.1" cy="-306" rx="97.93" ry="18"/>
<text text-anchor="middle" x="1495.1" y="-300.95" font-family="Times,serif" font-size="14.00">type: expression, id: 45</text>
</g>
<!-- type: expression, id: 47&#45;&gt;type: expression, id: 45 -->
<g id="edge28" class="edge">
<title>type: expression, id: 47&#45;&gt;type: expression, id: 45</title>
<path fill="none" stroke="black" d="M1495.1,-359.7C1495.1,-352.41 1495.1,-343.73 1495.1,-335.54"/>
<polygon fill="black" stroke="black" points="1498.6,-335.62 1495.1,-325.62 1491.6,-335.62 1498.6,-335.62"/>
</g>
<!-- type: value, id: 46, type_name: DEC, value: 6 -->
<g id="node32" class="node">
<title>type: value, id: 46, type_name: DEC, value: 6</title>
<ellipse fill="none" stroke="black" cx="1794.1" cy="-306" rx="182.89" ry="18"/>
<text text-anchor="middle" x="1794.1" y="-300.95" font-family="Times,serif" font-size="14.00">type: value, id: 46, type_name: DEC, value: 6</text>
</g>
<!-- type: expression, id: 47&#45;&gt;type: value, id: 46, type_name: DEC, value: 6 -->
<g id="edge31" class="edge">
<title>type: expression, id: 47&#45;&gt;type: value, id: 46, type_name: DEC, value: 6</title>
<path fill="none" stroke="black" d="M1553.81,-363.25C1599.59,-352.54 1663.64,-337.54 1714.1,-325.73"/>
<polygon fill="black" stroke="black" points="1714.89,-329.14 1723.83,-323.45 1713.29,-322.32 1714.89,-329.14"/>
</g>
<!-- type: identifier, id: 43, value: a -->
<g id="node30" class="node">
<title>type: identifier, id: 43, value: a</title>
<ellipse fill="none" stroke="black" cx="1495.1" cy="-234" rx="126.08" ry="18"/>
<text text-anchor="middle" x="1495.1" y="-228.95" font-family="Times,serif" font-size="14.00">type: identifier, id: 43, value: a</text>
</g>
<!-- type: expression, id: 45&#45;&gt;type: identifier, id: 43, value: a -->
<g id="edge29" class="edge">
<title>type: expression, id: 45&#45;&gt;type: identifier, id: 43, value: a</title>
<path fill="none" stroke="black" d="M1495.1,-287.7C1495.1,-280.41 1495.1,-271.73 1495.1,-263.54"/>
<polygon fill="black" stroke="black" points="1498.6,-263.62 1495.1,-253.62 1491.6,-263.62 1498.6,-263.62"/>
</g>
<!-- type: value, id: 44, type_name: DEC, value: 6 -->
<g id="node31" class="node">
<title>type: value, id: 44, type_name: DEC, value: 6</title>
<ellipse fill="none" stroke="black" cx="1822.1" cy="-234" rx="182.89" ry="18"/>
<text text-anchor="middle" x="1822.1" y="-228.95" font-family="Times,serif" font-size="14.00">type: value, id: 44, type_name: DEC, value: 6</text>
</g>
<!-- type: expression, id: 45&#45;&gt;type: value, id: 44, type_name: DEC, value: 6 -->
<g id="edge30" class="edge">
<title>type: expression, id: 45&#45;&gt;type: value, id: 44, type_name: DEC, value: 6</title>
<path fill="none" stroke="black" d="M1556.99,-291.75C1607.85,-280.86 1680.44,-265.32 1736.81,-253.26"/>
<polygon fill="black" stroke="black" points="1737.33,-256.73 1746.38,-251.21 1735.87,-249.88 1737.33,-256.73"/>
</g>
<!-- type: common, id: 22, name: body_var -->
<g id="node35" class="node">
<title>type: common, id: 22, name: body_var</title>
<ellipse fill="none" stroke="black" cx="2565.1" cy="-594" rx="157.3" ry="18"/>
<text text-anchor="middle" x="2565.1" y="-588.95" font-family="Times,serif" font-size="14.00">type: common, id: 22, name: body_var</text>
</g>
<!-- type: common, id: 29, name: body_var&#45;&gt;type: common, id: 22, name: body_var -->
<g id="edge34" class="edge">
<title>type: common, id: 29, name: body_var&#45;&gt;type: common, id: 22, name: body_var</title>
<path fill="none" stroke="black" d="M2565.1,-647.7C2565.1,-640.41 2565.1,-631.73 2565.1,-623.54"/>
<polygon fill="black" stroke="black" points="2568.6,-623.62 2565.1,-613.62 2561.6,-623.62 2568.6,-623.62"/>
</g>
<!-- type: common, id: 28, name: body_item -->
<g id="node51" class="node">
<title>type: common, id: 28, name: body_item</title>
<ellipse fill="none" stroke="black" cx="3319.1" cy="-594" rx="162.41" ry="18"/>
<text text-anchor="middle" x="3319.1" y="-588.95" font-family="Times,serif" font-size="14.00">type: common, id: 28, name: body_item</text>
</g>
<!-- type: common, id: 29, name: body_var&#45;&gt;type: common, id: 28, name: body_item -->
<g id="edge50" class="edge">
<title>type: common, id: 29, name: body_var&#45;&gt;type: common, id: 28, name: body_item</title>
<path fill="none" stroke="black" d="M2684.16,-653.95C2820.72,-641.27 3044.05,-620.54 3186.18,-607.34"/>
<polygon fill="black" stroke="black" points="3186.4,-610.83 3196.04,-606.42 3185.76,-603.86 3186.4,-610.83"/>
</g>
<!-- type: common, id: 15, name: body_var -->
<g id="node36" class="node">
<title>type: common, id: 15, name: body_var</title>
<ellipse fill="none" stroke="black" cx="2396.1" cy="-522" rx="157.3" ry="18"/>
<text text-anchor="middle" x="2396.1" y="-516.95" font-family="Times,serif" font-size="14.00">type: common, id: 15, name: body_var</text>
</g>
<!-- type: common, id: 22, name: body_var&#45;&gt;type: common, id: 15, name: body_var -->
<g id="edge35" class="edge">
<title>type: common, id: 22, name: body_var&#45;&gt;type: common, id: 15, name: body_var</title>
<path fill="none" stroke="black" d="M2524.62,-576.23C2501.38,-566.61 2471.97,-554.43 2447.16,-544.15"/>
<polygon fill="black" stroke="black" points="2448.81,-541.04 2438.23,-540.45 2446.13,-547.51 2448.81,-541.04"/>
</g>
<!-- type: common, id: 21, name: body_item -->
<g id="node45" class="node">
<title>type: common, id: 21, name: body_item</title>
<ellipse fill="none" stroke="black" cx="2734.1" cy="-522" rx="162.41" ry="18"/>
<text text-anchor="middle" x="2734.1" y="-516.95" font-family="Times,serif" font-size="14.00">type: common, id: 21, name: body_item</text>
</g>
<!-- type: common, id: 22, name: body_var&#45;&gt;type: common, id: 21, name: body_item -->
<g id="edge44" class="edge">
<title>type: common, id: 22, name: body_var&#45;&gt;type: common, id: 21, name: body_item</title>
<path fill="none" stroke="black" d="M2605.58,-576.23C2628.82,-566.61 2658.22,-554.43 2683.04,-544.15"/>
<polygon fill="black" stroke="black" points="2684.07,-547.51 2691.97,-540.45 2681.39,-541.04 2684.07,-547.51"/>
</g>
<!-- type: common, id: 14, name: body_item -->
<g id="node37" class="node">
<title>type: common, id: 14, name: body_item</title>
<ellipse fill="none" stroke="black" cx="2396.1" cy="-450" rx="162.41" ry="18"/>
<text text-anchor="middle" x="2396.1" y="-444.95" font-family="Times,serif" font-size="14.00">type: common, id: 14, name: body_item</text>
</g>
<!-- type: common, id: 15, name: body_var&#45;&gt;type: common, id: 14, name: body_item -->
<g id="edge36" class="edge">
<title>type: common, id: 15, name: body_var&#45;&gt;type: common, id: 14, name: body_item</title>
<path fill="none" stroke="black" d="M2396.1,-503.7C2396.1,-496.41 2396.1,-487.73 2396.1,-479.54"/>
<polygon fill="black" stroke="black" points="2399.6,-479.62 2396.1,-469.62 2392.6,-479.62 2399.6,-479.62"/>
</g>
<!-- type: common, id: 12, name: list -->
<g id="node38" class="node">
<title>type: common, id: 12, name: list</title>
<ellipse fill="none" stroke="black" cx="2129.1" cy="-378" rx="133.75" ry="18"/>
<text text-anchor="middle" x="2129.1" y="-372.95" font-family="Times,serif" font-size="14.00">type: common, id: 12, name: list</text>
</g>
<!-- type: common, id: 14, name: body_item&#45;&gt;type: common, id: 12, name: list -->
<g id="edge37" class="edge">
<title>type: common, id: 14, name: body_item&#45;&gt;type: common, id: 12, name: list</title>
<path fill="none" stroke="black" d="M2334.84,-432.94C2294.42,-422.34 2241.36,-408.43 2199.24,-397.39"/>
<polygon fill="black" stroke="black" points="2200.26,-394.04 2189.7,-394.89 2198.48,-400.81 2200.26,-394.04"/>
</g>
<!-- type: identifier, id: 13, value: abobus -->
<g id="node44" class="node">
<title>type: identifier, id: 13, value: abobus</title>
<ellipse fill="none" stroke="black" cx="2429.1" cy="-378" rx="148.08" ry="18"/>
<text text-anchor="middle" x="2429.1" y="-372.95" font-family="Times,serif" font-size="14.00">type: identifier, id: 13, value: abobus</text>
</g>
<!-- type: common, id: 14, name: body_item&#45;&gt;type: identifier, id: 13, value: abobus -->
<g id="edge43" class="edge">
<title>type: common, id: 14, name: body_item&#45;&gt;type: identifier, id: 13, value: abobus</title>
<path fill="none" stroke="black" d="M2404.26,-431.7C2407.85,-424.07 2412.17,-414.92 2416.18,-406.4"/>
<polygon fill="black" stroke="black" points="2419.29,-408.01 2420.39,-397.47 2412.96,-405.03 2419.29,-408.01"/>
</g>
<!-- type: identifier, id: 7, value: a -->
<g id="node39" class="node">
<title>type: identifier, id: 7, value: a</title>
<ellipse fill="none" stroke="black" cx="2122.1" cy="-306" rx="121.47" ry="18"/>
<text text-anchor="middle" x="2122.1" y="-300.95" font-family="Times,serif" font-size="14.00">type: identifier, id: 7, value: a</text>
</g>
<!-- type: common, id: 12, name: list&#45;&gt;type: identifier, id: 7, value: a -->
<g id="edge38" class="edge">
<title>type: common, id: 12, name: list&#45;&gt;type: identifier, id: 7, value: a</title>
<path fill="none" stroke="black" d="M2127.37,-359.7C2126.64,-352.41 2125.77,-343.73 2124.95,-335.54"/>
<polygon fill="black" stroke="black" points="2128.44,-335.21 2123.96,-325.61 2121.47,-335.91 2128.44,-335.21"/>
</g>
<!-- type: common, id: 11, name: list -->
<g id="node40" class="node">
<title>type: common, id: 11, name: list</title>
<ellipse fill="none" stroke="black" cx="2395.1" cy="-306" rx="133.75" ry="18"/>
<text text-anchor="middle" x="2395.1" y="-300.95" font-family="Times,serif" font-size="14.00">type: common, id: 11, name: list</text>
</g>
<!-- type: common, id: 12, name: list&#45;&gt;type: common, id: 11, name: list -->
<g id="edge39" class="edge">
<title>type: common, id: 12, name: list&#45;&gt;type: common, id: 11, name: list</title>
<path fill="none" stroke="black" d="M2188.13,-361.46C2228.68,-350.79 2282.69,-336.58 2325.36,-325.35"/>
<polygon fill="black" stroke="black" points="2325.99,-328.81 2334.77,-322.88 2324.2,-322.04 2325.99,-328.81"/>
</g>
<!-- type: identifier, id: 8, value: b -->
<g id="node41" class="node">
<title>type: identifier, id: 8, value: b</title>
<ellipse fill="none" stroke="black" cx="2267.1" cy="-234" rx="121.98" ry="18"/>
<text text-anchor="middle" x="2267.1" y="-228.95" font-family="Times,serif" font-size="14.00">type: identifier, id: 8, value: b</text>
</g>
<!-- type: common, id: 11, name: list&#45;&gt;type: identifier, id: 8, value: b -->
<g id="edge40" class="edge">
<title>type: common, id: 11, name: list&#45;&gt;type: identifier, id: 8, value: b</title>
<path fill="none" stroke="black" d="M2364.11,-288.05C2347.21,-278.81 2326.08,-267.26 2307.86,-257.29"/>
<polygon fill="black" stroke="black" points="2309.58,-254.24 2299.13,-252.52 2306.22,-260.38 2309.58,-254.24"/>
</g>
<!-- type: common, id: 10, name: list -->
<g id="node42" class="node">
<title>type: common, id: 10, name: list</title>
<ellipse fill="none" stroke="black" cx="2541.1" cy="-234" rx="133.75" ry="18"/>
<text text-anchor="middle" x="2541.1" y="-228.95" font-family="Times,serif" font-size="14.00">type: common, id: 10, name: list</text>
</g>
<!-- type: common, id: 11, name: list&#45;&gt;type: common, id: 10, name: list -->
<g id="edge41" class="edge">
<title>type: common, id: 11, name: list&#45;&gt;type: common, id: 10, name: list</title>
<path fill="none" stroke="black" d="M2430.07,-288.23C2449.77,-278.79 2474.6,-266.88 2495.78,-256.73"/>
<polygon fill="black" stroke="black" points="2497.29,-259.88 2504.8,-252.41 2494.27,-253.57 2497.29,-259.88"/>
</g>
<!-- type: identifier, id: 9, value: c -->
<g id="node43" class="node">
<title>type: identifier, id: 9, value: c</title>
<ellipse fill="none" stroke="black" cx="2541.1" cy="-162" rx="121.47" ry="18"/>
<text text-anchor="middle" x="2541.1" y="-156.95" font-family="Times,serif" font-size="14.00">type: identifier, id: 9, value: c</text>
</g>
<!-- type: common, id: 10, name: list&#45;&gt;type: identifier, id: 9, value: c -->
<g id="edge42" class="edge">
<title>type: common, id: 10, name: list&#45;&gt;type: identifier, id: 9, value: c</title>
<path fill="none" stroke="black" d="M2541.1,-215.7C2541.1,-208.41 2541.1,-199.73 2541.1,-191.54"/>
<polygon fill="black" stroke="black" points="2544.6,-191.62 2541.1,-181.62 2537.6,-191.62 2544.6,-191.62"/>
</g>
<!-- type: common, id: 19, name: list -->
<g id="node46" class="node">
<title>type: common, id: 19, name: list</title>
<ellipse fill="none" stroke="black" cx="2722.1" cy="-450" rx="133.75" ry="18"/>
<text text-anchor="middle" x="2722.1" y="-444.95" font-family="Times,serif" font-size="14.00">type: common, id: 19, name: list</text>
</g>
<!-- type: common, id: 21, name: body_item&#45;&gt;type: common, id: 19, name: list -->
<g id="edge45" class="edge">
<title>type: common, id: 21, name: body_item&#45;&gt;type: common, id: 19, name: list</title>
<path fill="none" stroke="black" d="M2731.13,-503.7C2729.87,-496.32 2728.36,-487.52 2726.94,-479.25"/>
<polygon fill="black" stroke="black" points="2730.43,-478.86 2725.29,-469.6 2723.53,-480.04 2730.43,-478.86"/>
</g>
<!-- type: identifier, id: 20, value: amogus -->
<g id="node50" class="node">
<title>type: identifier, id: 20, value: amogus</title>
<ellipse fill="none" stroke="black" cx="3025.1" cy="-450" rx="151.15" ry="18"/>
<text text-anchor="middle" x="3025.1" y="-444.95" font-family="Times,serif" font-size="14.00">type: identifier, id: 20, value: amogus</text>
</g>
<!-- type: common, id: 21, name: body_item&#45;&gt;type: identifier, id: 20, value: amogus -->
<g id="edge49" class="edge">
<title>type: common, id: 21, name: body_item&#45;&gt;type: identifier, id: 20, value: amogus</title>
<path fill="none" stroke="black" d="M2800.13,-505.12C2844.36,-494.48 2902.72,-480.44 2948.92,-469.33"/>
<polygon fill="black" stroke="black" points="2949.7,-472.74 2958.61,-466.99 2948.07,-465.93 2949.7,-472.74"/>
</g>
<!-- type: identifier, id: 16, value: d -->
<g id="node47" class="node">
<title>type: identifier, id: 16, value: d</title>
<ellipse fill="none" stroke="black" cx="2722.1" cy="-378" rx="126.59" ry="18"/>
<text text-anchor="middle" x="2722.1" y="-372.95" font-family="Times,serif" font-size="14.00">type: identifier, id: 16, value: d</text>
</g>
<!-- type: common, id: 19, name: list&#45;&gt;type: identifier, id: 16, value: d -->
<g id="edge46" class="edge">
<title>type: common, id: 19, name: list&#45;&gt;type: identifier, id: 16, value: d</title>
<path fill="none" stroke="black" d="M2722.1,-431.7C2722.1,-424.41 2722.1,-415.73 2722.1,-407.54"/>
<polygon fill="black" stroke="black" points="2725.6,-407.62 2722.1,-397.62 2718.6,-407.62 2725.6,-407.62"/>
</g>
<!-- type: common, id: 18, name: list -->
<g id="node48" class="node">
<title>type: common, id: 18, name: list</title>
<ellipse fill="none" stroke="black" cx="3000.1" cy="-378" rx="133.75" ry="18"/>
<text text-anchor="middle" x="3000.1" y="-372.95" font-family="Times,serif" font-size="14.00">type: common, id: 18, name: list</text>
</g>
<!-- type: common, id: 19, name: list&#45;&gt;type: common, id: 18, name: list -->
<g id="edge47" class="edge">
<title>type: common, id: 19, name: list&#45;&gt;type: common, id: 18, name: list</title>
<path fill="none" stroke="black" d="M2783.45,-433.55C2826.05,-422.82 2882.98,-408.49 2927.79,-397.21"/>
<polygon fill="black" stroke="black" points="2928.59,-400.61 2937.44,-394.78 2926.88,-393.83 2928.59,-400.61"/>
</g>
<!-- type: identifier, id: 17, value: e -->
<g id="node49" class="node">
<title>type: identifier, id: 17, value: e</title>
<ellipse fill="none" stroke="black" cx="3000.1" cy="-306" rx="126.08" ry="18"/>
<text text-anchor="middle" x="3000.1" y="-300.95" font-family="Times,serif" font-size="14.00">type: identifier, id: 17, value: e</text>
</g>
<!-- type: common, id: 18, name: list&#45;&gt;type: identifier, id: 17, value: e -->
<g id="edge48" class="edge">
<title>type: common, id: 18, name: list&#45;&gt;type: identifier, id: 17, value: e</title>
<path fill="none" stroke="black" d="M3000.1,-359.7C3000.1,-352.41 3000.1,-343.73 3000.1,-335.54"/>
<polygon fill="black" stroke="black" points="3003.6,-335.62 3000.1,-325.62 2996.6,-335.62 3003.6,-335.62"/>
</g>
<!-- type: common, id: 24, name: list -->
<g id="node52" class="node">
<title>type: common, id: 24, name: list</title>
<ellipse fill="none" stroke="black" cx="3319.1" cy="-522" rx="133.75" ry="18"/>
<text text-anchor="middle" x="3319.1" y="-516.95" font-family="Times,serif" font-size="14.00">type: common, id: 24, name: list</text>
</g>
<!-- type: common, id: 28, name: body_item&#45;&gt;type: common, id: 24, name: list -->
<g id="edge51" class="edge">
<title>type: common, id: 28, name: body_item&#45;&gt;type: common, id: 24, name: list</title>
<path fill="none" stroke="black" d="M3319.1,-575.7C3319.1,-568.41 3319.1,-559.73 3319.1,-551.54"/>
<polygon fill="black" stroke="black" points="3322.6,-551.62 3319.1,-541.62 3315.6,-551.62 3322.6,-551.62"/>
</g>
<!-- type: common, id: 27, name: array -->
<g id="node54" class="node">
<title>type: common, id: 27, name: array</title>
<ellipse fill="none" stroke="black" cx="3638.1" cy="-522" rx="141.43" ry="18"/>
<text text-anchor="middle" x="3638.1" y="-516.95" font-family="Times,serif" font-size="14.00">type: common, id: 27, name: array</text>
</g>
<!-- type: common, id: 28, name: body_item&#45;&gt;type: common, id: 27, name: array -->
<g id="edge53" class="edge">
<title>type: common, id: 28, name: body_item&#45;&gt;type: common, id: 27, name: array</title>
<path fill="none" stroke="black" d="M3390.29,-577.38C3439.99,-566.47 3506.39,-551.9 3557.94,-540.59"/>
<polygon fill="black" stroke="black" points="3558.55,-544.04 3567.56,-538.48 3557.05,-537.2 3558.55,-544.04"/>
</g>
<!-- type: identifier, id: 23, value: f -->
<g id="node53" class="node">
<title>type: identifier, id: 23, value: f</title>
<ellipse fill="none" stroke="black" cx="3319.1" cy="-450" rx="125.05" ry="18"/>
<text text-anchor="middle" x="3319.1" y="-444.95" font-family="Times,serif" font-size="14.00">type: identifier, id: 23, value: f</text>
</g>
<!-- type: common, id: 24, name: list&#45;&gt;type: identifier, id: 23, value: f -->
<g id="edge52" class="edge">
<title>type: common, id: 24, name: list&#45;&gt;type: identifier, id: 23, value: f</title>
<path fill="none" stroke="black" d="M3319.1,-503.7C3319.1,-496.41 3319.1,-487.73 3319.1,-479.54"/>
<polygon fill="black" stroke="black" points="3322.6,-479.62 3319.1,-469.62 3315.6,-479.62 3322.6,-479.62"/>
</g>
<!-- type: value, id: 25, type_name: AP, value: [] -->
<g id="node55" class="node">
<title>type: value, id: 25, type_name: AP, value: []</title>
<ellipse fill="none" stroke="black" cx="3638.1" cy="-450" rx="176.23" ry="18"/>
<text text-anchor="middle" x="3638.1" y="-444.95" font-family="Times,serif" font-size="14.00">type: value, id: 25, type_name: AP, value: []</text>
</g>
<!-- type: common, id: 27, name: array&#45;&gt;type: value, id: 25, type_name: AP, value: [] -->
<g id="edge54" class="edge">
<title>type: common, id: 27, name: array&#45;&gt;type: value, id: 25, type_name: AP, value: []</title>
<path fill="none" stroke="black" d="M3638.1,-503.7C3638.1,-496.41 3638.1,-487.73 3638.1,-479.54"/>
<polygon fill="black" stroke="black" points="3641.6,-479.62 3638.1,-469.62 3634.6,-479.62 3641.6,-479.62"/>
</g>
<!-- type: type, id: 26, name: int -->
<g id="node56" class="node">
<title>type: type, id: 26, name: int</title>
<polygon fill="none" stroke="black" points="3995.1,-468 3832.72,-450 3995.1,-432 4157.47,-450 3995.1,-468"/>
<polyline fill="none" stroke="black" points="3844.65,-451.32 3844.65,-448.68"/>
<polyline fill="none" stroke="black" points="3983.17,-433.32 4007.03,-433.32"/>
<polyline fill="none" stroke="black" points="4145.55,-448.68 4145.55,-451.32"/>
<polyline fill="none" stroke="black" points="4007.03,-466.68 3983.17,-466.68"/>
<text text-anchor="middle" x="3995.1" y="-444.95" font-family="Times,serif" font-size="14.00">type: type, id: 26, name: int</text>
</g>
<!-- type: common, id: 27, name: array&#45;&gt;type: type, id: 26, name: int -->
<g id="edge55" class="edge">
<title>type: common, id: 27, name: array&#45;&gt;type: type, id: 26, name: int</title>
<path fill="none" stroke="black" d="M3712.94,-506.33C3776.17,-493.93 3865.95,-476.32 3927.15,-464.32"/>
<polygon fill="black" stroke="black" points="3927.6,-467.8 3936.74,-462.44 3926.26,-460.93 3927.6,-467.8"/>
</g>
</g>
</svg>
